<svg id="walls_floor" xmlns="http://www.w3.org/2000/svg" xmlns:xlink="http://www.w3.org/1999/xlink" viewBox="0 0 500 333.33"><defs><style>.cls-1{fill:#f9d8d3;}.cls-1,.cls-10,.cls-100,.cls-101,.cls-102,.cls-103,.cls-104,.cls-105,.cls-106,.cls-107,.cls-108,.cls-109,.cls-11,.cls-110,.cls-111,.cls-112,.cls-113,.cls-114,.cls-115,.cls-116,.cls-117,.cls-118,.cls-119,.cls-12,.cls-120,.cls-121,.cls-122,.cls-123,.cls-124,.cls-125,.cls-126,.cls-127,.cls-128,.cls-129,.cls-13,.cls-130,.cls-131,.cls-132,.cls-133,.cls-134,.cls-135,.cls-136,.cls-137,.cls-138,.cls-139,.cls-14,.cls-140,.cls-141,.cls-142,.cls-143,.cls-144,.cls-145,.cls-146,.cls-147,.cls-148,.cls-149,.cls-15,.cls-150,.cls-151,.cls-152,.cls-153,.cls-154,.cls-155,.cls-156,.cls-157,.cls-158,.cls-159,.cls-16,.cls-17,.cls-18,.cls-19,.cls-2,.cls-20,.cls-21,.cls-22,.cls-23,.cls-24,.cls-25,.cls-26,.cls-27,.cls-28,.cls-29,.cls-3,.cls-30,.cls-31,.cls-32,.cls-33,.cls-34,.cls-35,.cls-36,.cls-37,.cls-38,.cls-39,.cls-4,.cls-40,.cls-41,.cls-42,.cls-43,.cls-44,.cls-45,.cls-46,.cls-47,.cls-48,.cls-49,.cls-5,.cls-50,.cls-51,.cls-52,.cls-53,.cls-54,.cls-55,.cls-56,.cls-57,.cls-58,.cls-59,.cls-6,.cls-60,.cls-61,.cls-62,.cls-63,.cls-64,.cls-65,.cls-66,.cls-67,.cls-68,.cls-69,.cls-7,.cls-70,.cls-71,.cls-72,.cls-73,.cls-74,.cls-75,.cls-76,.cls-77,.cls-78,.cls-79,.cls-8,.cls-80,.cls-81,.cls-82,.cls-83,.cls-84,.cls-85,.cls-86,.cls-87,.cls-88,.cls-89,.cls-9,.cls-90,.cls-91,.cls-92,.cls-93,.cls-94,.cls-97,.cls-99{fill-rule:evenodd;}.cls-2{fill:#fce6e3;}.cls-3{fill:#e2b7b2;}.cls-4{fill:#874a31;}.cls-5{fill:#793f25;}.cls-6{fill:#96573c;}.cls-7{fill:#50210d;}.cls-8{fill:#652d15;}.cls-9{fill:#9dac56;}.cls-10{fill:#828a40;}.cls-11{fill:#d0db85;}.cls-12{fill:url(#New_Gradient_4);}.cls-13{fill:#fef7f1;}.cls-14{fill:#fff;}.cls-15{fill:#e2c2ab;}.cls-16{fill:#f7f0d9;}.cls-17{fill:#8e4f17;}.cls-18{fill:#f2a8a8;}.cls-19{fill:#cb7575;}.cls-20{fill:#e18787;}.cls-21{fill:#ed9898;}.cls-22{fill:#f2a6a6;}.cls-23{fill:url(#New_Gradient_4-2);}.cls-24{fill:#9e5a1a;}.cls-25{fill:#f7b4b4;}.cls-26{fill:#b67d4c;}.cls-27{fill:#8c5727;}.cls-28{fill:#4f620c;}.cls-29{fill:#84a730;}.cls-30{fill:#607d1b;}.cls-31{fill:#b1ce70;}.cls-32{fill:#994e15;}.cls-33{fill:#772f02;}.cls-34{fill:#b26a1f;}.cls-35{fill:#98bc46;}.cls-36{fill:#779929;}.cls-37{fill:#b8d576;}.cls-38{fill:#c9642f;}.cls-39{fill:#9d4616;}.cls-40{fill:#d87b3b;}.cls-41{fill:#e29664;}.cls-42{fill:#99b845;}.cls-43{fill:#7a9336;}.cls-44{fill:#adc862;}.cls-45{fill:#c3db84;}.cls-46{fill:#933f12;}.cls-47{fill:#782f07;}.cls-48{fill:#b35a2b;}.cls-49{fill:#c87447;}.cls-50{fill:#949da9;}.cls-51{fill:#5b6370;}.cls-52{fill:#a9b2be;}.cls-53{fill:#b6c1cd;}.cls-54{fill:#9a2121;}.cls-55{fill:#710a0a;}.cls-56{fill:#a83d3d;}.cls-57{fill:#bc6464;}.cls-58{fill:#852c19;}.cls-59{fill:#6b221f;}.cls-60{fill:#924436;}.cls-61{fill:#b66050;}.cls-62{fill:#bd673a;}.cls-63{fill:#9a542d;}.cls-64{fill:#c67b54;}.cls-65{fill:#d89464;}.cls-66{fill:#85230f;}.cls-67{fill:#691916;}.cls-68{fill:#933e2f;}.cls-69{fill:#c28767;}.cls-70{fill:#874b2c;}.cls-71{fill:#cb9975;}.cls-72{fill:#deae8c;}.cls-73{fill:#657b2c;}.cls-74{fill:#50641f;}.cls-75{fill:#768b3b;}.cls-76{fill:#8ba14c;}.cls-77{fill:#b1592a;}.cls-78{fill:#873911;}.cls-79{fill:#be6e36;}.cls-80{fill:#ce7e48;}.cls-81{fill:#d09c6e;}.cls-82{fill:#653520;}.cls-83{fill:#b47946;}.cls-84{fill:#96592b;}.cls-85{fill:#a8703f;}.cls-86{fill:#d29967;}.cls-87{fill:#e4ad79;}.cls-88{fill:#e4b283;}.cls-89{fill:#a86f3e;}.cls-90,.cls-96{fill:#b43c3c;}.cls-91,.cls-95{fill:#dd5d5d;}.cls-92{fill:#ede2c6;}.cls-93{fill:#fcf7ea;}.cls-94,.cls-98{fill:#6a5c5c;}.cls-97{fill:#fea4a4;}.cls-99{fill:#739442;}.cls-100{fill:#567429;}.cls-101{fill:#d93f4d;}.cls-102{fill:#b11b2a;}.cls-103{fill:#f96271;}.cls-104{fill:#ced3e0;}.cls-105{fill:#f2f5fc;}.cls-106{fill:#b4bbca;}.cls-107{fill:#7e848f;}.cls-108{fill:#794c23;}.cls-109{fill:#a6682e;}.cls-110{fill:#c3864c;}.cls-111{fill:#fcf3e3;}.cls-112{fill:#87572a;}.cls-113{fill:#e8c09a;}.cls-114{fill:#d5a578;}.cls-115{fill:#f2e8b0;}.cls-116{fill:#d5c983;}.cls-117{fill:#c57869;}.cls-118{fill:#d08c79;}.cls-119{fill:#6f4319;}.cls-120{fill:#8f5c30;}.cls-121{fill:#dca97a;}.cls-122{fill:#c28752;}.cls-123{fill:#a36b3a;}.cls-124{fill:#7b88a3;}.cls-125{fill:#afbbd8;}.cls-126{fill:#c3cee8;}.cls-127{fill:#f1a8b6;}.cls-128{fill:#f9bfc9;}.cls-129{fill:#c57a88;}.cls-130{fill:#94bb4c;}.cls-131{fill:#add06b;}.cls-132{fill:#86ac3f;}.cls-133{fill:#59771e;}.cls-134{fill:#f9fed4;}.cls-135{fill:#feffea;}.cls-136{fill:#ecf2b9;}.cls-137{fill:#acb463;}.cls-138{fill:#bb8552;}.cls-139{fill:#ac7849;}.cls-140{fill:#ce9761;}.cls-141{fill:#cd9d70;}.cls-142{fill:#e1b98c;}.cls-143{fill:#f2d0a5;}.cls-144{fill:#f9dbb3;}.cls-145{fill:#b48558;}.cls-146{fill:#f9d9af;}.cls-147{fill:#c87d6f;}.cls-148{fill:#a65c4c;}.cls-149{fill:#f4ddbd;}.cls-150{fill:#dab585;}.cls-151{fill:#b58256;}.cls-152{fill:#e4c092;}.cls-153{fill:#e4e8c2;}.cls-154{fill:#efcea4;}.cls-155{fill:#fffbed;}.cls-156{fill:#ead8b2;}.cls-157{fill:#aeb483;}.cls-158{fill:#f9efd5;}.cls-159{fill:#ead8b3;}</style><linearGradient id="New_Gradient_4" x1="405.5" y1="337.08" x2="405.5" y2="478.08" gradientTransform="translate(-131.65 -220.89) scale(0.83)" gradientUnits="userSpaceOnUse"><stop offset="0" stop-color="#cae7ff"/><stop offset="1" stop-color="#ddf3ff"/></linearGradient><linearGradient id="New_Gradient_4-2" x1="405.5" y1="337.08" x2="405.5" y2="478.08" gradientTransform="translate(94.19 -220.89) scale(0.83)" xlink:href="#New_Gradient_4"/></defs><title>room</title><polygon class="cls-1" points="0 0 500 0 500 333.33 0 333.33 0 0 0 0"/><path class="cls-2" d="M300.92,59.15c227-2.73,238.78-1.41,240.5,233.23l-481,2C58.21,40.61,87.87,61.71,300.92,59.15h0Z" transform="translate(-50 -45.22)"/><polygon class="cls-3" points="0 236.28 500 236.28 500 244.49 0 244.49 0 236.28 0 236.28"/><polygon class="cls-4" points="0 248.49 500 248.49 500 333.33 0 333.33 0 248.49 0 248.49"/><polygon class="cls-5" points="0 248.49 500 248.49 500 269.38 0 269.38 0 248.49 0 248.49"/><path class="cls-6" d="M538.14,378.56H61.86c37.18-44.6,72-48.62,122.93-48.62H415.21c51,0,85.75,4,122.93,48.62h0Z" transform="translate(-50 -45.22)"/><polygon class="cls-7" points="0 244.49 500 244.49 500 252.99 0 252.99 0 244.49 0 244.49"/><polygon class="cls-8" points="0 246.65 500 246.65 500 250.82 0 250.82 0 246.65 0 246.65"/><polygon class="cls-9" points="411.42 304.06 255.25 304.06 255.25 276.15 411.42 276.15 411.42 304.06 411.42 304.06"/><path class="cls-10" d="M461.42,349.28H305.25v-1.37c35.3-.28,70.38-0.55,105.69-1.3,26.18-.56,41,1.6,40.43-10.44-0.43-8.81-7.61-10.19-13.66-10.49-27.16-1.34-53-3.1-80.4-3.81,23.63-3.65,77.32-.51,104.11-0.51v27.91h0Z" transform="translate(-50 -45.22)"/><path class="cls-11" d="M338.8,269.63c-10.6,10.51-25.59,36.74-33.56,54.82,55.63-4,99.73-3.8,156.17,0-8-18.07-22.7-43.85-33.55-54.86-35.7-2.55-53.36-2.52-89.06,0h0Z" transform="translate(-50 -45.22)"/><path class="cls-10" d="M312.77,323.93c52.14-3.45,94.78-3.11,148.65.54a285.75,285.75,0,0,0-20.68-38.06c-41.68-4.4-73-4.56-113.58,1.06,27-.27,52.5-1.17,79.21.08a117.2,117.2,0,0,1,22.48,2.86c9.56,2.27,13.08,7.57,16.51,15.47,4.26,9.79,3.51,13.21-7,12.67-42.06-2.16-83,.2-125.62,5.38h0Z" transform="translate(-50 -45.22)"/><path class="cls-3" d="M307.24,105.16a1.17,1.17,0,1,1-1.17,1.17,1.17,1.17,0,0,1,1.17-1.17h0Z" transform="translate(-50 -45.22)"/><path class="cls-3" d="M307.06,105.45a0.71,0.71,0,1,1-.71.71,0.71,0.71,0,0,1,.71-0.71h0Z" transform="translate(-50 -45.22)"/><path class="cls-3" d="M307.24,110.42a1.17,1.17,0,1,1-1.17,1.17,1.17,1.17,0,0,1,1.17-1.17h0Z" transform="translate(-50 -45.22)"/><path class="cls-3" d="M307.06,110.71a0.71,0.71,0,1,1-.71.71,0.71,0.71,0,0,1,.71-0.71h0Z" transform="translate(-50 -45.22)"/><path class="cls-3" d="M307.24,115.69a1.17,1.17,0,1,1-1.17,1.17,1.17,1.17,0,0,1,1.17-1.17h0Z" transform="translate(-50 -45.22)"/><path class="cls-3" d="M307.06,116a0.71,0.71,0,1,1-.71.71,0.71,0.71,0,0,1,.71-0.71h0Z" transform="translate(-50 -45.22)"/><path class="cls-3" d="M307.24,120.95a1.17,1.17,0,1,1-1.17,1.17,1.17,1.17,0,0,1,1.17-1.17h0Z" transform="translate(-50 -45.22)"/><path class="cls-3" d="M307.06,121.24a0.71,0.71,0,1,1-.71.71,0.71,0.71,0,0,1,.71-0.71h0Z" transform="translate(-50 -45.22)"/><path class="cls-3" d="M307.24,126.21a1.17,1.17,0,1,1-1.17,1.17,1.17,1.17,0,0,1,1.17-1.17h0Z" transform="translate(-50 -45.22)"/><path class="cls-3" d="M307.06,126.5a0.71,0.71,0,1,1-.71.71,0.71,0.71,0,0,1,.71-0.71h0Z" transform="translate(-50 -45.22)"/><path class="cls-3" d="M307.24,131.47a1.17,1.17,0,1,1-1.17,1.17,1.17,1.17,0,0,1,1.17-1.17h0Z" transform="translate(-50 -45.22)"/><path class="cls-3" d="M307.06,131.76a0.71,0.71,0,1,1-.71.71,0.71,0.71,0,0,1,.71-0.71h0Z" transform="translate(-50 -45.22)"/><path class="cls-3" d="M307.24,136.74a1.17,1.17,0,1,1-1.17,1.17,1.17,1.17,0,0,1,1.17-1.17h0Z" transform="translate(-50 -45.22)"/><path class="cls-3" d="M307.06,137a0.71,0.71,0,1,1-.71.71,0.71,0.71,0,0,1,.71-0.71h0Z" transform="translate(-50 -45.22)"/><path class="cls-3" d="M307.24,142a1.17,1.17,0,1,1-1.17,1.17,1.17,1.17,0,0,1,1.17-1.17h0Z" transform="translate(-50 -45.22)"/><path class="cls-3" d="M307.06,142.29a0.71,0.71,0,1,1-.71.71,0.71,0.71,0,0,1,.71-0.71h0Z" transform="translate(-50 -45.22)"/><path class="cls-3" d="M307.24,147.26a1.17,1.17,0,1,1-1.17,1.17,1.17,1.17,0,0,1,1.17-1.17h0Z" transform="translate(-50 -45.22)"/><path class="cls-3" d="M307.06,147.55a0.71,0.71,0,1,1-.71.71,0.71,0.71,0,0,1,.71-0.71h0Z" transform="translate(-50 -45.22)"/><path class="cls-3" d="M307.24,152.52a1.17,1.17,0,1,1-1.17,1.17,1.17,1.17,0,0,1,1.17-1.17h0Z" transform="translate(-50 -45.22)"/><path class="cls-3" d="M307.06,152.81a0.71,0.71,0,1,1-.71.71,0.71,0.71,0,0,1,.71-0.71h0Z" transform="translate(-50 -45.22)"/><path class="cls-3" d="M307.24,157.79a1.17,1.17,0,1,1-1.17,1.17,1.17,1.17,0,0,1,1.17-1.17h0Z" transform="translate(-50 -45.22)"/><path class="cls-3" d="M307.06,158.08a0.71,0.71,0,1,1-.71.71,0.71,0.71,0,0,1,.71-0.71h0Z" transform="translate(-50 -45.22)"/><path class="cls-3" d="M307.24,163.05a1.17,1.17,0,1,1-1.17,1.17,1.17,1.17,0,0,1,1.17-1.17h0Z" transform="translate(-50 -45.22)"/><path class="cls-3" d="M307.06,163.34a0.71,0.71,0,1,1-.71.71,0.71,0.71,0,0,1,.71-0.71h0Z" transform="translate(-50 -45.22)"/><path class="cls-3" d="M307.24,168.31a1.17,1.17,0,1,1-1.17,1.17,1.17,1.17,0,0,1,1.17-1.17h0Z" transform="translate(-50 -45.22)"/><path class="cls-3" d="M307.06,168.6a0.71,0.71,0,1,1-.71.71,0.71,0.71,0,0,1,.71-0.71h0Z" transform="translate(-50 -45.22)"/><path class="cls-3" d="M307.24,173.58a1.17,1.17,0,1,1-1.17,1.17,1.17,1.17,0,0,1,1.17-1.17h0Z" transform="translate(-50 -45.22)"/><path class="cls-3" d="M307.06,173.87a0.71,0.71,0,1,1-.71.71,0.71,0.71,0,0,1,.71-0.71h0Z" transform="translate(-50 -45.22)"/><path class="cls-3" d="M307.24,178.84a1.17,1.17,0,1,1-1.17,1.17,1.17,1.17,0,0,1,1.17-1.17h0Z" transform="translate(-50 -45.22)"/><path class="cls-3" d="M307.06,179.13a0.71,0.71,0,1,1-.71.71,0.71,0.71,0,0,1,.71-0.71h0Z" transform="translate(-50 -45.22)"/><path class="cls-3" d="M307.24,184.1a1.17,1.17,0,1,1-1.17,1.17,1.17,1.17,0,0,1,1.17-1.17h0Z" transform="translate(-50 -45.22)"/><path class="cls-3" d="M307.06,184.39a0.71,0.71,0,1,1-.71.71,0.71,0.71,0,0,1,.71-0.71h0Z" transform="translate(-50 -45.22)"/><path class="cls-3" d="M307.24,189.36a1.17,1.17,0,1,1-1.17,1.17,1.17,1.17,0,0,1,1.17-1.17h0Z" transform="translate(-50 -45.22)"/><path class="cls-3" d="M307.06,189.65a0.71,0.71,0,1,1-.71.71,0.71,0.71,0,0,1,.71-0.71h0Z" transform="translate(-50 -45.22)"/><path class="cls-3" d="M307.24,194.63a1.17,1.17,0,1,1-1.17,1.17,1.17,1.17,0,0,1,1.17-1.17h0Z" transform="translate(-50 -45.22)"/><path class="cls-3" d="M307.06,194.92a0.71,0.71,0,1,1-.71.71,0.71,0.71,0,0,1,.71-0.71h0Z" transform="translate(-50 -45.22)"/><path class="cls-3" d="M298.33,122.29h4.56c4.38,0,3.86-1,3.86-5.48v-8.33c0-1.82-.25-2,1.49-1.92l1.63,0.07c3.13,0.13,2.76-.87,2.76-3.5V96.42h2a27.82,27.82,0,0,0,0-9.47h-1.84c0-1.42,0-2.84,0-4.25,0-3.07.09-2.93-1.75-3H297.86l0.47,42.63h0Z" transform="translate(-50 -45.22)"/><polygon class="cls-3" points="164.17 179.58 248.33 179.58 248.33 72.9 250.83 72.9 250.83 182.08 166.6 182.08 164.17 179.58 164.17 179.58"/><polygon class="cls-12" points="166.25 59.99 246.25 59.99 246.25 177.5 166.25 177.5 166.25 59.99 166.25 59.99"/><path class="cls-13" d="M214.17,224.8V103.14h84.17V224.8H214.17Zm44.17-115h33.33v33.33H258.33V109.8h0Zm0,37.5h33.33v33.33H258.33V147.3h0Zm0,37.5h33.33v33.33H258.33V184.8h0Zm-37.5-75h33.33v33.33H220.83V109.8h0Zm0,37.5h33.33v33.33H220.83V147.3h0Zm0,37.5h33.33v33.33H220.83V184.8h0Z" transform="translate(-50 -45.22)"/><polygon class="cls-14" points="204.17 64.58 202.5 66.25 202.5 96.25 172.5 96.25 170.83 97.91 204.17 97.91 204.17 64.58 204.17 64.58"/><polygon class="cls-14" points="204.17 102.08 202.5 103.75 202.5 133.75 172.5 133.75 170.83 135.41 204.17 135.41 204.17 102.08 204.17 102.08"/><polygon class="cls-14" points="204.17 139.58 202.5 141.25 202.5 171.25 172.5 171.25 170.83 172.91 204.17 172.91 204.17 139.58 204.17 139.58"/><polygon class="cls-14" points="241.67 64.58 240 66.25 240 96.25 210 96.25 208.33 97.91 241.67 97.91 241.67 64.58 241.67 64.58"/><polygon class="cls-14" points="241.67 102.08 240 103.75 240 133.75 210 133.75 208.33 135.41 241.67 135.41 241.67 102.08 241.67 102.08"/><polygon class="cls-14" points="241.67 139.58 240 141.25 240 171.25 210 171.25 208.33 172.91 241.67 172.91 241.67 139.58 241.67 139.58"/><polygon class="cls-15" points="170.83 97.91 172.5 96.25 172.5 66.25 202.5 66.25 204.17 64.58 170.83 64.58 170.83 97.91 170.83 97.91"/><polygon class="cls-15" points="170.83 135.41 172.5 133.75 172.5 103.75 202.5 103.75 204.17 102.08 170.83 102.08 170.83 135.41 170.83 135.41"/><polygon class="cls-15" points="170.83 172.91 172.5 171.25 172.5 141.25 202.5 141.25 204.17 139.58 170.83 139.58 170.83 172.91 170.83 172.91"/><polygon class="cls-15" points="208.33 97.91 210 96.25 210 66.25 240 66.25 241.67 64.58 208.33 64.58 208.33 97.91 208.33 97.91"/><polygon class="cls-15" points="208.33 135.41 210 133.75 210 103.75 240 103.75 241.67 102.08 208.33 102.08 208.33 135.41 208.33 135.41"/><polygon class="cls-15" points="208.33 172.91 210 171.25 210 141.25 240 141.25 241.67 139.58 208.33 139.58 208.33 172.91 208.33 172.91"/><path class="cls-16" d="M304.7,103.76a1.17,1.17,0,1,1-1.17,1.17,1.17,1.17,0,0,1,1.17-1.17h0Z" transform="translate(-50 -45.22)"/><path class="cls-14" d="M304.52,104a0.71,0.71,0,1,1-.71.71,0.71,0.71,0,0,1,.71-0.71h0Z" transform="translate(-50 -45.22)"/><path class="cls-16" d="M304.7,109a1.17,1.17,0,1,1-1.17,1.17A1.17,1.17,0,0,1,304.7,109h0Z" transform="translate(-50 -45.22)"/><path class="cls-14" d="M304.52,109.31a0.71,0.71,0,1,1-.71.71,0.71,0.71,0,0,1,.71-0.71h0Z" transform="translate(-50 -45.22)"/><path class="cls-16" d="M304.7,114.28a1.17,1.17,0,1,1-1.17,1.17,1.17,1.17,0,0,1,1.17-1.17h0Z" transform="translate(-50 -45.22)"/><path class="cls-14" d="M304.52,114.57a0.71,0.71,0,1,1-.71.71,0.71,0.71,0,0,1,.71-0.71h0Z" transform="translate(-50 -45.22)"/><path class="cls-16" d="M304.7,119.54a1.17,1.17,0,1,1-1.17,1.17,1.17,1.17,0,0,1,1.17-1.17h0Z" transform="translate(-50 -45.22)"/><path class="cls-14" d="M304.52,119.83a0.71,0.71,0,1,1-.71.71,0.71,0.71,0,0,1,.71-0.71h0Z" transform="translate(-50 -45.22)"/><path class="cls-16" d="M304.7,124.81a1.17,1.17,0,1,1-1.17,1.17,1.17,1.17,0,0,1,1.17-1.17h0Z" transform="translate(-50 -45.22)"/><path class="cls-14" d="M304.52,125.1a0.71,0.71,0,1,1-.71.71,0.71,0.71,0,0,1,.71-0.71h0Z" transform="translate(-50 -45.22)"/><path class="cls-16" d="M304.7,130.07a1.17,1.17,0,1,1-1.17,1.17,1.17,1.17,0,0,1,1.17-1.17h0Z" transform="translate(-50 -45.22)"/><path class="cls-14" d="M304.52,130.36a0.71,0.71,0,1,1-.71.71,0.71,0.71,0,0,1,.71-0.71h0Z" transform="translate(-50 -45.22)"/><path class="cls-16" d="M304.7,135.33a1.17,1.17,0,1,1-1.17,1.17,1.17,1.17,0,0,1,1.17-1.17h0Z" transform="translate(-50 -45.22)"/><path class="cls-14" d="M304.52,135.62a0.71,0.71,0,1,1-.71.71,0.71,0.71,0,0,1,.71-0.71h0Z" transform="translate(-50 -45.22)"/><path class="cls-16" d="M304.7,140.6a1.17,1.17,0,1,1-1.17,1.17,1.17,1.17,0,0,1,1.17-1.17h0Z" transform="translate(-50 -45.22)"/><path class="cls-14" d="M304.52,140.89a0.71,0.71,0,1,1-.71.71,0.71,0.71,0,0,1,.71-0.71h0Z" transform="translate(-50 -45.22)"/><path class="cls-16" d="M304.7,145.86a1.17,1.17,0,1,1-1.17,1.17,1.17,1.17,0,0,1,1.17-1.17h0Z" transform="translate(-50 -45.22)"/><path class="cls-14" d="M304.52,146.15a0.71,0.71,0,1,1-.71.71,0.71,0.71,0,0,1,.71-0.71h0Z" transform="translate(-50 -45.22)"/><path class="cls-16" d="M304.7,151.12a1.17,1.17,0,1,1-1.17,1.17,1.17,1.17,0,0,1,1.17-1.17h0Z" transform="translate(-50 -45.22)"/><path class="cls-14" d="M304.52,151.41a0.71,0.71,0,1,1-.71.71,0.71,0.71,0,0,1,.71-0.71h0Z" transform="translate(-50 -45.22)"/><path class="cls-16" d="M304.7,156.38a1.17,1.17,0,1,1-1.17,1.17,1.17,1.17,0,0,1,1.17-1.17h0Z" transform="translate(-50 -45.22)"/><path class="cls-14" d="M304.52,156.67a0.71,0.71,0,1,1-.71.71,0.71,0.71,0,0,1,.71-0.71h0Z" transform="translate(-50 -45.22)"/><path class="cls-16" d="M304.7,161.65a1.17,1.17,0,1,1-1.17,1.17,1.17,1.17,0,0,1,1.17-1.17h0Z" transform="translate(-50 -45.22)"/><path class="cls-14" d="M304.52,161.94a0.71,0.71,0,1,1-.71.71,0.71,0.71,0,0,1,.71-0.71h0Z" transform="translate(-50 -45.22)"/><path class="cls-16" d="M304.7,166.91a1.17,1.17,0,1,1-1.17,1.17,1.17,1.17,0,0,1,1.17-1.17h0Z" transform="translate(-50 -45.22)"/><path class="cls-14" d="M304.52,167.2a0.71,0.71,0,1,1-.71.71,0.71,0.71,0,0,1,.71-0.71h0Z" transform="translate(-50 -45.22)"/><path class="cls-16" d="M304.7,172.17a1.17,1.17,0,1,1-1.17,1.17,1.17,1.17,0,0,1,1.17-1.17h0Z" transform="translate(-50 -45.22)"/><path class="cls-14" d="M304.52,172.46a0.71,0.71,0,1,1-.71.71,0.71,0.71,0,0,1,.71-0.71h0Z" transform="translate(-50 -45.22)"/><path class="cls-16" d="M304.7,177.44a1.17,1.17,0,1,1-1.17,1.17,1.17,1.17,0,0,1,1.17-1.17h0Z" transform="translate(-50 -45.22)"/><path class="cls-14" d="M304.52,177.73a0.71,0.71,0,1,1-.71.71,0.71,0.71,0,0,1,.71-0.71h0Z" transform="translate(-50 -45.22)"/><path class="cls-16" d="M304.7,182.7a1.17,1.17,0,1,1-1.17,1.17,1.17,1.17,0,0,1,1.17-1.17h0Z" transform="translate(-50 -45.22)"/><path class="cls-14" d="M304.52,183a0.71,0.71,0,1,1-.71.71,0.71,0.71,0,0,1,.71-0.71h0Z" transform="translate(-50 -45.22)"/><path class="cls-16" d="M304.7,188a1.17,1.17,0,1,1-1.17,1.17A1.17,1.17,0,0,1,304.7,188h0Z" transform="translate(-50 -45.22)"/><path class="cls-14" d="M304.52,188.25a0.71,0.71,0,1,1-.71.71,0.71,0.71,0,0,1,.71-0.71h0Z" transform="translate(-50 -45.22)"/><path class="cls-16" d="M304.7,193.22a1.17,1.17,0,1,1-1.17,1.17,1.17,1.17,0,0,1,1.17-1.17h0Z" transform="translate(-50 -45.22)"/><path class="cls-14" d="M304.52,193.51a0.71,0.71,0,1,1-.71.71,0.71,0.71,0,0,1,.71-0.71h0Z" transform="translate(-50 -45.22)"/><path class="cls-17" d="M199.32,84.25h113a30.05,30.05,0,0,1,0,9.47h-113a25.87,25.87,0,0,1,0-9.47h0Z" transform="translate(-50 -45.22)"/><polygon class="cls-18" points="157.88 55.47 253.76 55.47 253.76 73.36 157.88 73.36 157.88 55.47 157.88 55.47"/><polygon class="cls-19" points="157.88 55.47 253.76 55.47 253.76 57.48 157.88 57.48 157.88 55.47 157.88 55.47"/><path class="cls-20" d="M204,76.83H307.66a1.76,1.76,0,0,1,1.75,1.75V98.94a1.76,1.76,0,0,1-1.75,1.75H204a1.76,1.76,0,0,1-1.75-1.75V78.59A1.76,1.76,0,0,1,204,76.83h0Z" transform="translate(-50 -45.22)"/><path class="cls-21" d="M219.69,78.41c20.66-.07,41.43-0.35,62.08.27,13.12,0.39,15.82-1.61,16.05,9.17,0.12,5.53-.37,7.34-6.66,7.63-15.48.72-33.94,0.12-49.58-.08-8.08-.1-16.37-0.78-24-0.42-5.84.27-11.84,0.08-12.28-8.31-0.5-9.37,7.28-8.23,14.43-8.26h0Z" transform="translate(-50 -45.22)"/><path class="cls-22" d="M222.43,81.11c10.91,0,21.88-.2,32.78.15,13.85,0.45,9.33,9.28,5,9.49a355.14,355.14,0,0,1-38.88-.28c-8.54-.68-10.39-9.32,1.13-9.36h0Z" transform="translate(-50 -45.22)"/><polygon class="cls-23" points="392.09 59.99 472.09 59.99 472.09 177.5 392.09 177.5 392.09 59.99 392.09 59.99"/><path class="cls-13" d="M440,224.8V103.14h84.17V224.8H440Zm44.17-115h33.33v33.33H484.17V109.8h0Zm0,37.5h33.33v33.33H484.17V147.3h0Zm0,37.5h33.33v33.33H484.17V184.8h0Zm-37.5-75H480v33.33H446.67V109.8h0Zm0,37.5H480v33.33H446.67V147.3h0Zm0,37.5H480v33.33H446.67V184.8h0Z" transform="translate(-50 -45.22)"/><polygon class="cls-14" points="430.01 64.58 428.34 66.25 428.34 96.25 398.34 96.25 396.67 97.91 430.01 97.91 430.01 64.58 430.01 64.58"/><polygon class="cls-14" points="430.01 102.08 428.34 103.75 428.34 133.75 398.34 133.75 396.67 135.41 430.01 135.41 430.01 102.08 430.01 102.08"/><polygon class="cls-14" points="430.01 139.58 428.34 141.25 428.34 171.25 398.34 171.25 396.67 172.91 430.01 172.91 430.01 139.58 430.01 139.58"/><polygon class="cls-14" points="467.51 64.58 465.84 66.25 465.84 96.25 435.84 96.25 434.17 97.91 467.51 97.91 467.51 64.58 467.51 64.58"/><polygon class="cls-14" points="467.51 102.08 465.84 103.75 465.84 133.75 435.84 133.75 434.17 135.41 467.51 135.41 467.51 102.08 467.51 102.08"/><polygon class="cls-14" points="467.51 139.58 465.84 141.25 465.84 171.25 435.84 171.25 434.17 172.91 467.51 172.91 467.51 139.58 467.51 139.58"/><polygon class="cls-15" points="396.67 97.91 398.34 96.25 398.34 66.25 428.34 66.25 430 64.58 396.67 64.58 396.67 97.91 396.67 97.91"/><polygon class="cls-15" points="396.67 135.41 398.34 133.75 398.34 103.75 428.34 103.75 430 102.08 396.67 102.08 396.67 135.41 396.67 135.41"/><polygon class="cls-15" points="396.67 172.91 398.34 171.25 398.34 141.25 428.34 141.25 430 139.58 396.67 139.58 396.67 172.91 396.67 172.91"/><polygon class="cls-15" points="434.17 97.91 435.84 96.25 435.84 66.25 465.84 66.25 467.5 64.58 434.17 64.58 434.17 97.91 434.17 97.91"/><polygon class="cls-15" points="434.17 135.41 435.84 133.75 435.84 103.75 465.84 103.75 467.5 102.08 434.17 102.08 434.17 135.41 434.17 135.41"/><polygon class="cls-15" points="434.17 172.91 435.84 171.25 435.84 141.25 465.84 141.25 467.5 139.58 434.17 139.58 434.17 172.91 434.17 172.91"/><path class="cls-3" d="M434.12,105.16a1.17,1.17,0,1,1-1.17,1.17,1.17,1.17,0,0,1,1.17-1.17h0Z" transform="translate(-50 -45.22)"/><path class="cls-3" d="M433.94,105.45a0.71,0.71,0,1,1-.71.71,0.71,0.71,0,0,1,.71-0.71h0Z" transform="translate(-50 -45.22)"/><path class="cls-3" d="M434.12,110.42a1.17,1.17,0,1,1-1.17,1.17,1.17,1.17,0,0,1,1.17-1.17h0Z" transform="translate(-50 -45.22)"/><path class="cls-3" d="M433.94,110.71a0.71,0.71,0,1,1-.71.71,0.71,0.71,0,0,1,.71-0.71h0Z" transform="translate(-50 -45.22)"/><path class="cls-3" d="M434.12,115.69a1.17,1.17,0,1,1-1.17,1.17,1.17,1.17,0,0,1,1.17-1.17h0Z" transform="translate(-50 -45.22)"/><path class="cls-3" d="M433.94,116a0.71,0.71,0,1,1-.71.71,0.71,0.71,0,0,1,.71-0.71h0Z" transform="translate(-50 -45.22)"/><path class="cls-3" d="M434.12,120.95a1.17,1.17,0,1,1-1.17,1.17,1.17,1.17,0,0,1,1.17-1.17h0Z" transform="translate(-50 -45.22)"/><path class="cls-3" d="M433.94,121.24a0.71,0.71,0,1,1-.71.71,0.71,0.71,0,0,1,.71-0.71h0Z" transform="translate(-50 -45.22)"/><path class="cls-3" d="M434.12,126.21a1.17,1.17,0,1,1-1.17,1.17,1.17,1.17,0,0,1,1.17-1.17h0Z" transform="translate(-50 -45.22)"/><path class="cls-3" d="M433.94,126.5a0.71,0.71,0,1,1-.71.71,0.71,0.71,0,0,1,.71-0.71h0Z" transform="translate(-50 -45.22)"/><path class="cls-3" d="M434.12,131.47a1.17,1.17,0,1,1-1.17,1.17,1.17,1.17,0,0,1,1.17-1.17h0Z" transform="translate(-50 -45.22)"/><path class="cls-3" d="M433.94,131.76a0.71,0.71,0,1,1-.71.71,0.71,0.71,0,0,1,.71-0.71h0Z" transform="translate(-50 -45.22)"/><path class="cls-3" d="M434.12,136.74a1.17,1.17,0,1,1-1.17,1.17,1.17,1.17,0,0,1,1.17-1.17h0Z" transform="translate(-50 -45.22)"/><path class="cls-3" d="M433.94,137a0.71,0.71,0,1,1-.71.71,0.71,0.71,0,0,1,.71-0.71h0Z" transform="translate(-50 -45.22)"/><path class="cls-3" d="M434.12,142a1.17,1.17,0,1,1-1.17,1.17,1.17,1.17,0,0,1,1.17-1.17h0Z" transform="translate(-50 -45.22)"/><path class="cls-3" d="M433.94,142.29a0.71,0.71,0,1,1-.71.71,0.71,0.71,0,0,1,.71-0.71h0Z" transform="translate(-50 -45.22)"/><path class="cls-3" d="M434.12,147.26a1.17,1.17,0,1,1-1.17,1.17,1.17,1.17,0,0,1,1.17-1.17h0Z" transform="translate(-50 -45.22)"/><path class="cls-3" d="M433.94,147.55a0.71,0.71,0,1,1-.71.71,0.71,0.71,0,0,1,.71-0.71h0Z" transform="translate(-50 -45.22)"/><path class="cls-3" d="M434.12,152.52a1.17,1.17,0,1,1-1.17,1.17,1.17,1.17,0,0,1,1.17-1.17h0Z" transform="translate(-50 -45.22)"/><path class="cls-3" d="M433.94,152.81a0.71,0.71,0,1,1-.71.71,0.71,0.71,0,0,1,.71-0.71h0Z" transform="translate(-50 -45.22)"/><path class="cls-3" d="M434.12,157.79A1.17,1.17,0,1,1,433,159a1.17,1.17,0,0,1,1.17-1.17h0Z" transform="translate(-50 -45.22)"/><path class="cls-3" d="M433.94,158.08a0.71,0.71,0,1,1-.71.71,0.71,0.71,0,0,1,.71-0.71h0Z" transform="translate(-50 -45.22)"/><path class="cls-3" d="M434.12,163.05a1.17,1.17,0,1,1-1.17,1.17,1.17,1.17,0,0,1,1.17-1.17h0Z" transform="translate(-50 -45.22)"/><path class="cls-3" d="M433.94,163.34a0.71,0.71,0,1,1-.71.71,0.71,0.71,0,0,1,.71-0.71h0Z" transform="translate(-50 -45.22)"/><path class="cls-3" d="M434.12,168.31a1.17,1.17,0,1,1-1.17,1.17,1.17,1.17,0,0,1,1.17-1.17h0Z" transform="translate(-50 -45.22)"/><path class="cls-3" d="M433.94,168.6a0.71,0.71,0,1,1-.71.71,0.71,0.71,0,0,1,.71-0.71h0Z" transform="translate(-50 -45.22)"/><path class="cls-3" d="M434.12,173.58a1.17,1.17,0,1,1-1.17,1.17,1.17,1.17,0,0,1,1.17-1.17h0Z" transform="translate(-50 -45.22)"/><path class="cls-3" d="M433.94,173.87a0.71,0.71,0,1,1-.71.71,0.71,0.71,0,0,1,.71-0.71h0Z" transform="translate(-50 -45.22)"/><path class="cls-3" d="M434.12,178.84A1.17,1.17,0,1,1,433,180a1.17,1.17,0,0,1,1.17-1.17h0Z" transform="translate(-50 -45.22)"/><path class="cls-3" d="M433.94,179.13a0.71,0.71,0,1,1-.71.71,0.71,0.71,0,0,1,.71-0.71h0Z" transform="translate(-50 -45.22)"/><path class="cls-3" d="M434.12,184.1a1.17,1.17,0,1,1-1.17,1.17,1.17,1.17,0,0,1,1.17-1.17h0Z" transform="translate(-50 -45.22)"/><path class="cls-3" d="M433.94,184.39a0.71,0.71,0,1,1-.71.71,0.71,0.71,0,0,1,.71-0.71h0Z" transform="translate(-50 -45.22)"/><path class="cls-3" d="M434.12,189.36a1.17,1.17,0,1,1-1.17,1.17,1.17,1.17,0,0,1,1.17-1.17h0Z" transform="translate(-50 -45.22)"/><path class="cls-3" d="M433.94,189.65a0.71,0.71,0,1,1-.71.71,0.71,0.71,0,0,1,.71-0.71h0Z" transform="translate(-50 -45.22)"/><path class="cls-3" d="M434.12,194.63A1.17,1.17,0,1,1,433,195.8a1.17,1.17,0,0,1,1.17-1.17h0Z" transform="translate(-50 -45.22)"/><path class="cls-3" d="M433.94,194.92a0.71,0.71,0,1,1-.71.71,0.71,0.71,0,0,1,.71-0.71h0Z" transform="translate(-50 -45.22)"/><path class="cls-3" d="M524.17,132.29h4.56c4.38,0,3.86-1,3.86-5.48V108.48c0-1.82-.25-2,1.49-1.92l1.63,0.07c3.13,0.13,2.76-.87,2.76-3.5V96.42h2a27.83,27.83,0,0,0,0-9.47h-1.84c0-1.42,0-2.84,0-4.25,0-3.07.09-2.93-1.75-3H523.7l0.47,52.63h0Z" transform="translate(-50 -45.22)"/><polygon class="cls-3" points="390.01 179.58 474.17 179.58 474.17 72.9 476.67 72.9 476.67 182.08 392.44 182.08 390.01 179.58 390.01 179.58"/><path class="cls-16" d="M431.58,103.76a1.17,1.17,0,1,1-1.17,1.17,1.17,1.17,0,0,1,1.17-1.17h0Z" transform="translate(-50 -45.22)"/><path class="cls-14" d="M431.4,104a0.71,0.71,0,1,1-.71.71,0.71,0.71,0,0,1,.71-0.71h0Z" transform="translate(-50 -45.22)"/><path class="cls-16" d="M431.58,109a1.17,1.17,0,1,1-1.17,1.17,1.17,1.17,0,0,1,1.17-1.17h0Z" transform="translate(-50 -45.22)"/><path class="cls-14" d="M431.4,109.31a0.71,0.71,0,1,1-.71.71,0.71,0.71,0,0,1,.71-0.71h0Z" transform="translate(-50 -45.22)"/><path class="cls-16" d="M431.58,114.28a1.17,1.17,0,1,1-1.17,1.17,1.17,1.17,0,0,1,1.17-1.17h0Z" transform="translate(-50 -45.22)"/><path class="cls-14" d="M431.4,114.57a0.71,0.71,0,1,1-.71.71,0.71,0.71,0,0,1,.71-0.71h0Z" transform="translate(-50 -45.22)"/><path class="cls-16" d="M431.58,119.54a1.17,1.17,0,1,1-1.17,1.17,1.17,1.17,0,0,1,1.17-1.17h0Z" transform="translate(-50 -45.22)"/><path class="cls-14" d="M431.4,119.83a0.71,0.71,0,1,1-.71.71,0.71,0.71,0,0,1,.71-0.71h0Z" transform="translate(-50 -45.22)"/><path class="cls-16" d="M431.58,124.81a1.17,1.17,0,1,1-1.17,1.17,1.17,1.17,0,0,1,1.17-1.17h0Z" transform="translate(-50 -45.22)"/><path class="cls-14" d="M431.4,125.1a0.71,0.71,0,1,1-.71.71,0.71,0.71,0,0,1,.71-0.71h0Z" transform="translate(-50 -45.22)"/><path class="cls-16" d="M431.58,130.07a1.17,1.17,0,1,1-1.17,1.17,1.17,1.17,0,0,1,1.17-1.17h0Z" transform="translate(-50 -45.22)"/><path class="cls-14" d="M431.4,130.36a0.71,0.71,0,1,1-.71.71,0.71,0.71,0,0,1,.71-0.71h0Z" transform="translate(-50 -45.22)"/><path class="cls-16" d="M431.58,135.33a1.17,1.17,0,1,1-1.17,1.17,1.17,1.17,0,0,1,1.17-1.17h0Z" transform="translate(-50 -45.22)"/><path class="cls-14" d="M431.4,135.62a0.71,0.71,0,1,1-.71.71,0.71,0.71,0,0,1,.71-0.71h0Z" transform="translate(-50 -45.22)"/><path class="cls-16" d="M431.58,140.6a1.17,1.17,0,1,1-1.17,1.17,1.17,1.17,0,0,1,1.17-1.17h0Z" transform="translate(-50 -45.22)"/><path class="cls-14" d="M431.4,140.89a0.71,0.71,0,1,1-.71.71,0.71,0.71,0,0,1,.71-0.71h0Z" transform="translate(-50 -45.22)"/><path class="cls-16" d="M431.58,145.86a1.17,1.17,0,1,1-1.17,1.17,1.17,1.17,0,0,1,1.17-1.17h0Z" transform="translate(-50 -45.22)"/><path class="cls-14" d="M431.4,146.15a0.71,0.71,0,1,1-.71.71,0.71,0.71,0,0,1,.71-0.71h0Z" transform="translate(-50 -45.22)"/><path class="cls-16" d="M431.58,151.12a1.17,1.17,0,1,1-1.17,1.17,1.17,1.17,0,0,1,1.17-1.17h0Z" transform="translate(-50 -45.22)"/><path class="cls-14" d="M431.4,151.41a0.71,0.71,0,1,1-.71.71,0.71,0.71,0,0,1,.71-0.71h0Z" transform="translate(-50 -45.22)"/><path class="cls-16" d="M431.58,156.38a1.17,1.17,0,1,1-1.17,1.17,1.17,1.17,0,0,1,1.17-1.17h0Z" transform="translate(-50 -45.22)"/><path class="cls-14" d="M431.4,156.67a0.71,0.71,0,1,1-.71.71,0.71,0.71,0,0,1,.71-0.71h0Z" transform="translate(-50 -45.22)"/><path class="cls-16" d="M431.58,161.65a1.17,1.17,0,1,1-1.17,1.17,1.17,1.17,0,0,1,1.17-1.17h0Z" transform="translate(-50 -45.22)"/><path class="cls-14" d="M431.4,161.94a0.71,0.71,0,1,1-.71.71,0.71,0.71,0,0,1,.71-0.71h0Z" transform="translate(-50 -45.22)"/><path class="cls-16" d="M431.58,166.91a1.17,1.17,0,1,1-1.17,1.17,1.17,1.17,0,0,1,1.17-1.17h0Z" transform="translate(-50 -45.22)"/><path class="cls-14" d="M431.4,167.2a0.71,0.71,0,1,1-.71.71,0.71,0.71,0,0,1,.71-0.71h0Z" transform="translate(-50 -45.22)"/><path class="cls-16" d="M431.58,172.17a1.17,1.17,0,1,1-1.17,1.17,1.17,1.17,0,0,1,1.17-1.17h0Z" transform="translate(-50 -45.22)"/><path class="cls-14" d="M431.4,172.46a0.71,0.71,0,1,1-.71.71,0.71,0.71,0,0,1,.71-0.71h0Z" transform="translate(-50 -45.22)"/><path class="cls-16" d="M431.58,177.44a1.17,1.17,0,1,1-1.17,1.17,1.17,1.17,0,0,1,1.17-1.17h0Z" transform="translate(-50 -45.22)"/><path class="cls-14" d="M431.4,177.73a0.71,0.71,0,1,1-.71.71,0.71,0.71,0,0,1,.71-0.71h0Z" transform="translate(-50 -45.22)"/><path class="cls-16" d="M431.58,182.7a1.17,1.17,0,1,1-1.17,1.17,1.17,1.17,0,0,1,1.17-1.17h0Z" transform="translate(-50 -45.22)"/><path class="cls-14" d="M431.4,183a0.71,0.71,0,1,1-.71.71,0.71,0.71,0,0,1,.71-0.71h0Z" transform="translate(-50 -45.22)"/><path class="cls-16" d="M431.58,188a1.17,1.17,0,1,1-1.17,1.17,1.17,1.17,0,0,1,1.17-1.17h0Z" transform="translate(-50 -45.22)"/><path class="cls-14" d="M431.4,188.25a0.71,0.71,0,1,1-.71.71,0.71,0.71,0,0,1,.71-0.71h0Z" transform="translate(-50 -45.22)"/><path class="cls-16" d="M431.58,193.22a1.17,1.17,0,1,1-1.17,1.17,1.17,1.17,0,0,1,1.17-1.17h0Z" transform="translate(-50 -45.22)"/><path class="cls-14" d="M431.4,193.51a0.71,0.71,0,1,1-.71.71,0.71,0.71,0,0,1,.71-0.71h0Z" transform="translate(-50 -45.22)"/><path class="cls-24" d="M425.16,84.25h113a30.11,30.11,0,0,1,0,9.47h-113a25.83,25.83,0,0,1,0-9.47h0Z" transform="translate(-50 -45.22)"/><polygon class="cls-18" points="383.72 55.47 479.6 55.47 479.6 83.23 383.72 83.23 383.72 55.47 383.72 55.47"/><path class="cls-25" d="M433.72,100.69h90.83c-6.67,30.31-74.77,24.42-90.83,16.5v-16.5h0Z" transform="translate(-50 -45.22)"/><polygon class="cls-19" points="383.72 55.47 479.6 55.47 479.6 57.48 383.72 57.48 383.72 55.47 383.72 55.47"/><path class="cls-20" d="M429.81,76.83H533.5a1.76,1.76,0,0,1,1.75,1.75V98.94a1.76,1.76,0,0,1-1.75,1.75H429.81a1.76,1.76,0,0,1-1.75-1.75V78.59a1.76,1.76,0,0,1,1.75-1.75h0Z" transform="translate(-50 -45.22)"/><path class="cls-21" d="M445.53,78.41c20.66-.07,41.43-0.35,62.08.27,13.12,0.39,15.82-1.61,16,9.17,0.12,5.53-.37,7.34-6.66,7.63-15.48.72-33.94,0.12-49.58-.08-8.08-.1-16.37-0.78-24-0.42-5.84.27-11.84,0.08-12.28-8.31-0.5-9.37,7.29-8.23,14.42-8.26h0Z" transform="translate(-50 -45.22)"/><path class="cls-22" d="M448.27,81.11c10.91,0,21.88-.2,32.78.15,13.85,0.45,9.33,9.28,5,9.49a355.15,355.15,0,0,1-38.88-.28c-8.54-.68-10.39-9.32,1.13-9.36h0Z" transform="translate(-50 -45.22)"/><polygon class="cls-3" points="272.78 84.66 367.22 84.66 357.69 89.89 281.44 89.89 272.78 84.66 272.78 84.66"/><path class="cls-3" d="M420.8,94.78a9.88,9.88,0,0,0-7.7-.73,10.06,10.06,0,0,0-5.88,4.13c4.28-4.33,12-2.9,13.45,2,0.32,1.1.11,0.84-.48,0.42-3.73-2.63-7.86-1.78-11.06.71,0.12,0.12.24,0.25,0.36,0.39a3.88,3.88,0,0,1,.9,1.89,2.83,2.83,0,0,0,1.31-1.33c1.36-2.5,3.73-2.5,5.66-1.36,4.13,2.42-.27,10.73-2.6,13.14-0.68.7-1,1-1-.7a7,7,0,0,0-.19-1.64,1.71,1.71,0,0,1-1.08,1.25c-1.65,4-3.15,7.62-3.59,12.1-3,.13-8.78,0-12.17,0-0.44-4.48-1.94-8.15-3.59-12.1-0.59,0-1.06-1-1.31-1.95-1.74,1.15-3.28,2.29-3.62,3.55-0.45,1.65-.44,1.47-0.92.45a8.94,8.94,0,0,1-.16-8.26,8.68,8.68,0,0,1,6.49-4.34c-3.14-1.5-6.1-2.77-8.39-2.68-1.06,0-1.57,0-.82-1,1.77-2.31,6.84-2.92,10-2.61-1.51-1.89-2.28-3.62-3.41-5.28a11.87,11.87,0,0,0-4.33-4c-1.31-.58-1.45-0.8.53-0.8,7,0.12,10.82,2.18,13.18,5.55a16.38,16.38,0,0,1,1.22-7.42c1.51-3.86,1.73-3.73,2.54-.48a43.5,43.5,0,0,1,1.22,6.19c0.3-.58.63-1.2,1-1.86,1.37-2.53,2.85-5.32,3-8.25,0.07-1.72.39-.32,0.64,1.22A24.57,24.57,0,0,1,409,93.11c3.22-2.9,7.85-3.32,11.54.52,0.29,0.3,1.43,1.77.22,1.15h0Z" transform="translate(-50 -45.22)"/><polygon class="cls-3" points="272.78 133.66 367.22 133.66 357.69 138.89 281.44 138.89 272.78 133.66 272.78 133.66"/><path class="cls-3" d="M395,174.63v-27c0-1.93-1.76-1.69-3.65-1.74s-4.12-.27-4.12,1.63v27.14H395Z" transform="translate(-50 -45.22)"/><path class="cls-3" d="M405.62,174.63V151.07c0-1.68-2.42-1.47-5-1.51S395,149.32,395,151v23.65h10.67Z" transform="translate(-50 -45.22)"/><path class="cls-3" d="M361.58,174.63H333c-2.22,0-1.95-1.37-2-2.84s-0.31-3.2,1.87-3.2h29.4a1.16,1.16,0,0,1,1.35,1.25,15.53,15.53,0,0,1,0,3.22c-0.09,1.15-.75,1.49-2,1.58h0Z" transform="translate(-50 -45.22)"/><path class="cls-3" d="M360.29,168.59h-26c-2,0-1.77-1.13-1.81-2.35s-0.29-2.64,1.7-2.64h26.74a1,1,0,0,1,1.22,1,11.67,11.67,0,0,1,0,2.66c-0.08,1-.68,1.23-1.83,1.3h0Z" transform="translate(-50 -45.22)"/><path class="cls-3" d="M359.22,163.6H335.33c-1.85,0-1.62-.88-1.67-1.83s-0.26-2.06,1.56-2.06h24.54c0.84,0.06,1,.23,1.12.8a7.71,7.71,0,0,1,0,2.07c-0.08.74-.62,1-1.68,1h0Z" transform="translate(-50 -45.22)"/><path class="cls-3" d="M359.74,159.71H334.81c-1.93,0-1.69-1.5-1.74-3.11s-0.27-3.5,1.63-3.5h25.61c0.88,0.1,1.07.39,1.17,1.36a21.24,21.24,0,0,1,0,3.52,1.59,1.59,0,0,1-1.75,1.72h0Z" transform="translate(-50 -45.22)"/><path class="cls-3" d="M358.38,153.1H336.47c-1.7,0-1.49-.94-1.53-2s-0.24-2.2,1.43-2.2h22.51c0.77,0.06.94,0.24,1,.85a9.53,9.53,0,0,1,0,2.21c-0.07.79-.57,1-1.54,1.08h0Z" transform="translate(-50 -45.22)"/><path class="cls-3" d="M371.66,173.29l-5.5-29.73c-0.4-2.14-1.81-1.61-3.38-1.37s-3.46.33-3.07,2.44l5.49,29.67a0.56,0.56,0,0,0,.74.3l5-.91a0.73,0.73,0,0,0,.73-0.4h0Z" transform="translate(-50 -45.22)"/><path class="cls-3" d="M387.15,171.52l-14.23-26.67c-1-1.92-2.21-1-3.64-.28s-3.2,1.36-2.19,3.25l14.2,26.62a0.56,0.56,0,0,0,.8.06l4.48-2.37a0.73,0.73,0,0,0,.58-0.61h0Z" transform="translate(-50 -45.22)"/><path class="cls-3" d="M342.75,124.86l8.36-24.69c0.6-1.78-.69-2-2-2.45s-2.74-1.21-3.34.54l-8.34,24.63a0.48,0.48,0,0,0,.43.54l4.14,1.42a0.63,0.63,0,0,0,.72,0h0Z" transform="translate(-50 -45.22)"/><path class="cls-3" d="M337.33,125.13V98.33c0-1.91-1.54-1.68-3.2-1.72s-3.6-.27-3.6,1.62v26.91h6.8Z" transform="translate(-50 -45.22)"/><path class="cls-3" d="M372.47,125.13V98.68c0-1.89-1.24-1.66-2.57-1.7S367,96.71,367,98.58v26.55h5.46Z" transform="translate(-50 -45.22)"/><path class="cls-3" d="M367,125.13V99.45c0-1.83-2.24-1.61-4.64-1.65s-5.23-.26-5.23,1.55v25.78H367Z" transform="translate(-50 -45.22)"/><path class="cls-3" d="M355.37,125.12l1.95-28.44c0.14-2-1.2-1.87-2.62-2s-3.07-.5-3.21,1.5l-2,28.55h0l5.82,0.4h0Z" transform="translate(-50 -45.22)"/><polygon class="cls-26" points="284.01 133.66 287.15 133.66 292.16 143.8 289.02 143.8 284.01 133.66 284.01 133.66"/><polygon class="cls-27" points="292.16 133.66 287.15 133.66 292.16 143.8 292.16 133.66 292.16 133.66"/><polygon class="cls-26" points="284.01 84.66 287.15 84.66 292.16 94.8 289.02 94.8 284.01 84.66 284.01 84.66"/><polygon class="cls-27" points="292.16 84.66 287.15 84.66 292.16 94.8 292.16 84.66 292.16 84.66"/><polygon class="cls-26" points="355.99 133.66 352.85 133.66 347.84 143.8 350.98 143.8 355.99 133.66 355.99 133.66"/><polygon class="cls-27" points="347.84 133.66 352.85 133.66 347.84 143.8 347.84 133.66 347.84 133.66"/><polygon class="cls-26" points="355.99 84.66 352.85 84.66 347.84 94.8 350.98 94.8 355.99 84.66 355.99 84.66"/><polygon class="cls-27" points="347.84 84.66 352.85 84.66 347.84 94.8 347.84 84.66 347.84 84.66"/><path class="cls-28" d="M385.52,107.17c2.9-11.24,22.78-13.82,24.1.73-9.93,1.76-15.78,2.2-24.1-.73h0Z" transform="translate(-50 -45.22)"/><path class="cls-29" d="M396.25,78.21c1.69-4.31,1.93-4.16,2.84-.54,2.28,9.05,1.8,10.47-.83,19.49-3.16-6.71-4.78-11.91-2-18.95h0Z" transform="translate(-50 -45.22)"/><path class="cls-30" d="M398.38,75.35a13.85,13.85,0,0,1,.71,2.32c2.28,9.05,1.8,10.47-.83,19.49-2-4.2-3.35-7.81-3.43-11.65,1.83,2.75,3.31.77,3.86-1.68,0.62-2.75-.05-6.5-0.31-8.48h0Z" transform="translate(-50 -45.22)"/><path class="cls-29" d="M401.56,82.51c1.53-2.82,3.19-5.94,3.32-9.21,0.08-1.92.43-.36,0.72,1.37,1.93,11.58-2.88,17.8-7.22,27.79-1.63-9.49-1.51-11.31,3.18-19.95h0Z" transform="translate(-50 -45.22)"/><path class="cls-30" d="M405.71,75.41c1.61,11.11-3.09,17.28-7.33,27.05-0.34-2-.6-3.59-0.76-5,3.31-9.45,7.95-8.3,8.09-22h0Z" transform="translate(-50 -45.22)"/><path class="cls-29" d="M380.17,80.3c-2.21,0-2,.24-0.59.9a13.24,13.24,0,0,1,4.84,4.49c2.75,4,3.56,8.42,15.15,14.18-2.57-11.14-4.4-19.31-19.39-19.56h0Z" transform="translate(-50 -45.22)"/><path class="cls-31" d="M381.43,81.24c5,2,4.13,4.84,10.62,12.92l-3.26-7.67c-1-2-1.13-2.69.84-1.87A7.42,7.42,0,0,1,392,86.24c-2.47-3.86-6-4.5-10.57-5h0Z" transform="translate(-50 -45.22)"/><path class="cls-30" d="M399.56,99.87c-2.11-9.14-3.72-16.28-12.51-18.69a12.67,12.67,0,0,1,7.12,6.31c0.94,1.73,1.33,4.31-.16,2.31a10.79,10.79,0,0,0-4.75-4.09c3.79,3.16,6.87,12.26,10.3,14.16h0Z" transform="translate(-50 -45.22)"/><path class="cls-32" d="M385.12,106.46c7.86-.54,17.46-0.22,25,0,0,1.09-.64,3.83-1.71,3.91-1.84,4.41-3.51,8.51-4,13.51-3.41.14-9.81,0-13.59,0-0.49-5-2.17-9.1-4-13.51-1.07-.08-1.76-2.82-1.71-3.91h0Z" transform="translate(-50 -45.22)"/><path class="cls-33" d="M406,106.34l4.19,0.12c0,1.09-.64,3.83-1.71,3.91-1.84,4.41-3.51,8.51-4,13.51-3.5.06-9.4,0-13.59,0,0-.11-0.18-1.56-0.27-2,2.73,1.75,11.16,1.53,12.87-2.24,1.17-2.58,1.67-7.75-1-8.42a75.61,75.61,0,0,0-9.31-1.28c3.2-.12,6.33.15,9.42-0.48,1.7-.34,3.89-0.77,3.39-3.11h0Z" transform="translate(-50 -45.22)"/><path class="cls-34" d="M391.11,117.64c-1.18-2.55-1.11-5.15,2.4-5.09,1.3,0,2.59.07,3.89,0.13,3.17,0.15,3.67,1.61,3.26,3.42-0.9,4.06-2.91,4.55-5.41,4.49a4.44,4.44,0,0,1-4.15-3h0Z" transform="translate(-50 -45.22)"/><path class="cls-34" d="M387.73,107.29c4.1-.13,7.84-0.25,11.77,0,2,0.11,1.94.81,1.31,1.21a3.79,3.79,0,0,1-1.75.32c-1.9,0-8,.05-10.56,0a3.84,3.84,0,0,1-1.57-.27c-0.86-.42-1.28-1.15.8-1.22h0Z" transform="translate(-50 -45.22)"/><path class="cls-35" d="M378,95.6c-1.18,0-1.75,0-.92-1.1,2.28-3,9.48-3.42,12.58-2.7,4.54,1.06,7.58,4.89,10.43,11.75-7.09-.92-16.4-8.2-22.09-8h0Z" transform="translate(-50 -45.22)"/><path class="cls-36" d="M393,93.26c2.8,1.88,5,5.27,7.07,10.3-5.91-.77-13.37-6-19-7.52,4.85-.27,10.34,2.56,11.93,1,1.11-1.06.95-2.32,0-3.82h0Z" transform="translate(-50 -45.22)"/><path class="cls-29" d="M417.63,96.12c0.36,1.23.13,0.94-.54,0.47-6.86-4.85-14.92.87-17.6,7.94-1.31-16.12,15.84-16.35,18.14-8.41h0Z" transform="translate(-50 -45.22)"/><path class="cls-30" d="M417.28,96.72l-0.18-.13c-5.91-4.17-12.71-.51-16.19,5.1l-1.45.2c0.31-6.23,7.38-10.2,12.27-8.75a7.72,7.72,0,0,0-3.63.54c-0.37.12-.16,0.42,0.36,0.35,1.8-.25,7.09-0.35,8.82,2.69h0Z" transform="translate(-50 -45.22)"/><path class="cls-35" d="M417.79,90.08a11,11,0,0,0-8.6-.81c-5.35,1.57-7.34,5-8.88,9.69-0.14-10.8,10.13-17.56,17.24-10.16,0.32,0.33,1.59,2,.25,1.28h0Z" transform="translate(-50 -45.22)"/><path class="cls-36" d="M417,89.7a11,11,0,0,0-7.81-.44,11.52,11.52,0,0,0-7.92,7.12c0.32-6.23,9.64-11.18,15.73-6.68h0Z" transform="translate(-50 -45.22)"/><path class="cls-29" d="M405.68,104.23a7,7,0,0,1,4.18,6.58c0,1.88.41,1.57,1.17,0.78,2.61-2.69,7.52-12,2.91-14.67-2.16-1.26-4.8-1.27-6.32,1.52a2.9,2.9,0,0,1-1.73,1.57c-3.13.67-3.39,2.76-.2,4.22h0Z" transform="translate(-50 -45.22)"/><path class="cls-30" d="M405.68,104.23a7,7,0,0,1,4,4.94l0.05-.55c-0.57-2.15-4.15-7.4-1.14-8.26a4,4,0,0,1,3.72,1.92c-0.11-1.41-2.75-4.66-4.72-3.84a2.9,2.9,0,0,1-1.74,1.57c-3.13.67-3.39,2.76-.2,4.22h0Z" transform="translate(-50 -45.22)"/><path class="cls-29" d="M389.6,105.24c-2.87,2.42-7.61,4.45-8.28,6.91-0.5,1.85-.5,1.65-1,0.51-1-2.11-2.14-5.56-.17-9.23a9.76,9.76,0,0,1,16.26-1.06c-3.19-.83-4.51.94-6.79,2.87h0Z" transform="translate(-50 -45.22)"/><path class="cls-30" d="M389.6,105.24c-2.25,1.9-5.66,3.56-7.34,5.38,1.78-3,5.05-4.67,7.6-7.21,0.76-.86,2.66-3.19,1-3.94a10.23,10.23,0,0,0-3.86-.82,9.51,9.51,0,0,1,9.43,3.72c-3.19-.83-4.51.94-6.79,2.87h0Z" transform="translate(-50 -45.22)"/><path class="cls-35" d="M399.22,108.41a11.8,11.8,0,0,0-3.44-5.58c-3.92-4-.06-7,3.24-5.93,2.53-1.48,4.63-.84,6.12.92,2.77,3.29-.46,7.58-3.24,10.71s-1.88,2.13-2.69-.11h0Z" transform="translate(-50 -45.22)"/><path class="cls-36" d="M406.06,101.85c-0.53,2.33-2.43,4.72-4.16,6.67l-0.8.9c2.8-5.12-.63-8.08-0.11-9.65s2.21-.72,3.25,0a10.05,10.05,0,0,1,1.6,1.6l0.21,0.47h0Z" transform="translate(-50 -45.22)"/><path class="cls-37" d="M400.37,108.4a19.59,19.59,0,0,0-2.85-5.07,14,14,0,0,1-1.73-2.35c-1.31-2.51,1.19-4.27,3.57-3-1.06,1.33-1.18,2.57-.42,4.8a52.89,52.89,0,0,1,1.44,5.66h0Z" transform="translate(-50 -45.22)"/><path class="cls-37" d="M379.37,93.72c2.29-1.79,10.58-2,12.39-.08,1.21,1.3,0,1.48-1.12,1a16.69,16.69,0,0,0-11.27-.93h0Z" transform="translate(-50 -45.22)"/><path class="cls-31" d="M380.91,103.47c1.17-1.85,2.61-3,6-3.5,2.07-.3.53,1.39-0.12,2a15.2,15.2,0,0,1-3,2c-2.16,1.36-3.51,2.77-3.65,6.1,0.06,1.09,0,1.21-.2.09-0.43-2.4-.47-4.44,1-6.7h0Z" transform="translate(-50 -45.22)"/><path class="cls-31" d="M398.67,91.08c1.67-5,4.32-9.36,6.25-14.62-0.81,6.92-2.25,9.21-6.25,14.63h0Z" transform="translate(-50 -45.22)"/><path class="cls-31" d="M410.36,97.62c2.3-1,3.53,0,4.11,1,1.31,2.26-.67,7.13-1.93,9.51,1.46-4.83,2.57-9.2-2.19-10.52h0Z" transform="translate(-50 -45.22)"/><path class="cls-37" d="M416.63,88.34c-4.22-2.94-7.87-3.07-12.17.91,4-2.39,7.68-3.29,12.17-.91h0Z" transform="translate(-50 -45.22)"/><path class="cls-38" d="M340.25,123.61l8.36-24.69c0.6-1.78-.69-2-2-2.45s-2.74-1.21-3.34.54L335,121.65a0.48,0.48,0,0,0,.44.54l4.13,1.42a0.63,0.63,0,0,0,.72,0h0Z" transform="translate(-50 -45.22)"/><path class="cls-39" d="M340.25,123.61l8.36-24.69a1.46,1.46,0,0,0-.14-1.59c-2.32,6.88-4.58,14.17-7.15,20.89-1,2.52-1.43,3.79-3.64,3.08a2.89,2.89,0,0,1-2.09-1.49L335,121.65a0.48,0.48,0,0,0,.44.54l4.13,1.42a0.63,0.63,0,0,0,.72,0h0Z" transform="translate(-50 -45.22)"/><path class="cls-40" d="M346.31,96.35c-1.25-.48-2.47-0.95-3,0.67l-6.57,19.41c1,1.54,2.91,1.8,4-1,0.65-1.63,1.37-4,2.16-6.29l3.24-9.56c0.6-1.73,1.24-2.85.17-3.26h0Z" transform="translate(-50 -45.22)"/><path class="cls-41" d="M342.86,100.22c0.55-1.47.85-2.21,1.78-1.81s0.63,1,.25,2.46l-4,11.91c-0.47,1.4-1,3.42-2.14,2.93s-0.36-2.5.15-4c1-2.83,3-8.91,4-11.53h0Z" transform="translate(-50 -45.22)"/><path class="cls-42" d="M334.83,123.88V97.08c0-1.91-1.54-1.68-3.2-1.72S328,95.09,328,97v26.91h6.8Z" transform="translate(-50 -45.22)"/><path class="cls-43" d="M334.83,123.88V97.08a1.42,1.42,0,0,0-.78-1.48c0,7.39.25,15.17-.09,22.49-0.13,2.75-.17,4.12-3,4.16a3.93,3.93,0,0,1-3-.76v2.39h6.8Z" transform="translate(-50 -45.22)"/><path class="cls-44" d="M331.22,95.34C329.61,95.29,328,95.24,328,97v20.87c1.74,1.15,4,.79,4.21-2.24,0.12-1.79,0-4.27,0-6.78V98.54c0-1.87.31-3.16-1.06-3.2h0Z" transform="translate(-50 -45.22)"/><path class="cls-45" d="M328.77,100.21c0.06-1.6.12-2.42,1.33-2.33s1.12,0.8,1.24,2.29V113c0,1.51.21,3.61-1.31,3.53s-1.38-2.3-1.35-3.87c0.06-3.06,0-9.57.1-12.42h0Z" transform="translate(-50 -45.22)"/><path class="cls-46" d="M370,123.88V97.43c0-1.89-1.24-1.66-2.57-1.7s-2.89-.27-2.89,1.59v26.55H370Z" transform="translate(-50 -45.22)"/><path class="cls-47" d="M370,123.88V97.43a1.49,1.49,0,0,0-.62-1.46c0,7.3.2,15-.07,22.19-0.1,2.71-.14,4.07-2.38,4.11a2.73,2.73,0,0,1-2.39-.75v2.36H370Z" transform="translate(-50 -45.22)"/><path class="cls-48" d="M367.07,95.72c-1.29-.05-2.56-0.11-2.56,1.61v20.6c1.4,1.14,3.23.78,3.38-2.21,0.09-1.77,0-4.21,0-6.69V98.88c0-1.84.25-3.11-.86-3.16h0Z" transform="translate(-50 -45.22)"/><path class="cls-49" d="M365.1,100.52c0-1.58.09-2.38,1.07-2.3s0.9,0.79,1,2.26v12.64c0,1.49.17,3.57-1.05,3.48s-1.11-2.27-1.09-3.82c0-3,0-9.45.08-12.26h0Z" transform="translate(-50 -45.22)"/><path class="cls-50" d="M364.51,123.88V98.2c0-1.83-2.24-1.61-4.64-1.65s-5.23-.26-5.23,1.55v25.78h9.87Z" transform="translate(-50 -45.22)"/><path class="cls-51" d="M364.51,123.88V98.2a1.37,1.37,0,0,0-1.13-1.42c0,7.08.37,14.53-.13,21.54-0.19,2.64-.25,4-4.3,4a8,8,0,0,1-4.31-.73v2.29h9.87Z" transform="translate(-50 -45.22)"/><path class="cls-52" d="M359.26,96.54c-2.34-.05-4.62-0.1-4.62,1.56v20c2.53,1.11,5.83.75,6.11-2.15,0.17-1.71.05-4.09,0.05-6.49V99.61c0-1.79.45-3-1.55-3.07h0Z" transform="translate(-50 -45.22)"/><path class="cls-53" d="M355.71,101.2c0.08-1.54.17-2.31,1.93-2.23,1.58,0.07,1.62.77,1.79,2.19v12.27c0,1.44.3,3.46-1.9,3.38s-2-2.2-2-3.71c0.08-2.93,0-9.17.14-11.9h0Z" transform="translate(-50 -45.22)"/><path class="cls-54" d="M352.87,123.87l1.95-28.44c0.14-2-1.2-1.87-2.62-2s-3.07-.5-3.21,1.5l-2,28.55h0l5.81,0.4h0Z" transform="translate(-50 -45.22)"/><path class="cls-55" d="M352.87,123.87l1.95-28.44a1.6,1.6,0,0,0-.56-1.62c-0.52,7.85-.88,16.11-1.71,23.86-0.31,2.91-.45,4.36-2.85,4.24a2.91,2.91,0,0,1-2.49-1L347,123.47h0l5.81,0.4h0Z" transform="translate(-50 -45.22)"/><path class="cls-56" d="M351.84,93.37c-1.38-.15-2.72-0.3-2.85,1.54l-1.52,22.15c1.41,1.33,3.39,1.07,3.78-2.13,0.23-1.89.34-4.53,0.53-7.19l0.75-10.91c0.15-2,.49-3.33-0.68-3.46h0Z" transform="translate(-50 -45.22)"/><path class="cls-57" d="M349.39,98.4c0.17-1.7.27-2.56,1.31-2.39s0.9,0.92.9,2.5l-0.93,13.59c-0.11,1.6-.08,3.85-1.38,3.67s-1-2.52-.88-4.19c0.27-3.24.69-10.16,1-13.18h0Z" transform="translate(-50 -45.22)"/><path class="cls-58" d="M391.64,172.88v-27c0-1.93-1.76-1.69-3.66-1.74s-4.12-.27-4.12,1.63v27.14h7.77Z" transform="translate(-50 -45.22)"/><path class="cls-59" d="M391.64,172.88v-27a1.41,1.41,0,0,0-.89-1.5c0,7.46.29,15.3-.1,22.68-0.15,2.78-.2,4.16-3.39,4.2a5,5,0,0,1-3.39-.76v2.41h7.77Z" transform="translate(-50 -45.22)"/><path class="cls-60" d="M387.51,144.1c-1.84-.05-3.64-0.11-3.64,1.64v21c2,1.17,4.59.79,4.81-2.26,0.13-1.8,0-4.3,0-6.83V147.32c0-1.88.35-3.18-1.22-3.23h0Z" transform="translate(-50 -45.22)"/><path class="cls-61" d="M384.71,149c0.07-1.62.13-2.44,1.52-2.35s1.28,0.81,1.41,2.31v12.92c0,1.52.24,3.65-1.5,3.56s-1.58-2.32-1.55-3.9c0.06-3.08,0-9.66.11-12.53h0Z" transform="translate(-50 -45.22)"/><path class="cls-62" d="M402.31,172.88V149.32c0-1.68-2.42-1.47-5-1.51s-5.65-.24-5.65,1.42v23.65h10.67Z" transform="translate(-50 -45.22)"/><path class="cls-63" d="M402.31,172.88V149.32a1.32,1.32,0,0,0-1.22-1.3c0,6.5.4,13.33-.14,19.77-0.2,2.42-.27,3.62-4.65,3.66a10.08,10.08,0,0,1-4.66-.67v2.1h10.67Z" transform="translate(-50 -45.22)"/><path class="cls-64" d="M396.64,147.8c-2.53,0-5-.09-5,1.43v18.34c2.74,1,6.3.69,6.61-2,0.18-1.57.06-3.75,0.06-6v-9c0-1.64.48-2.77-1.67-2.81h0Z" transform="translate(-50 -45.22)"/><path class="cls-65" d="M392.79,152.08c0.09-1.41.18-2.12,2.09-2,1.71,0.07,1.75.7,1.94,2V163.3c0,1.32.33,3.18-2.06,3.1s-2.17-2-2.12-3.4c0.09-2.69,0-8.42.15-10.92h0Z" transform="translate(-50 -45.22)"/><path class="cls-62" d="M358.27,172.88H329.65c-2.22,0-1.94-1.37-2-2.84s-0.31-3.2,1.87-3.2h29.4a1.16,1.16,0,0,1,1.35,1.25,15.6,15.6,0,0,1,0,3.22c-0.09,1.15-.75,1.49-2,1.58h0Z" transform="translate(-50 -45.22)"/><path class="cls-63" d="M358.27,172.88H329.65c-1.51,0-1.87-.64-2-1.51,1.13,1.18,3.39.88,5.44,0.88h21.79c5.07,0,5.12-1.4,5.39-3.76a17,17,0,0,1,0,2.81c-0.09,1.15-.75,1.49-2,1.58h0Z" transform="translate(-50 -45.22)"/><path class="cls-64" d="M327.64,169.67c-0.06-1.43-.12-2.83,1.89-2.83h27.95c1.34,1.55.91,4.1-2.6,4.27-2.07.1-8.7,0-11.61,0H331.35c-2.16,0-3.66-.25-3.71-1.47h0Z" transform="translate(-50 -45.22)"/><path class="cls-65" d="M333.71,167.68c-1.86.05-2.8,0.1-2.7,1.18s0.93,1,2.65,1.1h14.85c1.75,0,4.19.18,4.09-1.17s-2.66-1.23-4.49-1.2c-3.55,0-11.1,0-14.4.09h0Z" transform="translate(-50 -45.22)"/><path class="cls-50" d="M357,166.84h-26c-2,0-1.77-1.13-1.81-2.35s-0.29-2.64,1.7-2.64h26.74a1,1,0,0,1,1.22,1,11.62,11.62,0,0,1,0,2.66c-0.08,1-.68,1.23-1.83,1.3h0Z" transform="translate(-50 -45.22)"/><path class="cls-51" d="M357,166.84h-26c-1.37,0-1.7-.53-1.78-1.25,1,1,3.08.73,4.95,0.73h19.82c4.61,0,4.66-1.16,4.91-3.1a12.88,12.88,0,0,1,0,2.32c-0.08,1-.68,1.23-1.83,1.3h0Z" transform="translate(-50 -45.22)"/><path class="cls-52" d="M329.12,164.18c-0.06-1.18-.11-2.34,1.72-2.34h25.41c1.22,1.28.83,3.38-2.36,3.53-1.89.09-7.91,0-10.55,0H332.49c-2,0-3.33-.21-3.37-1.22h0Z" transform="translate(-50 -45.22)"/><path class="cls-53" d="M334.64,162.54c-1.69,0-2.54.08-2.46,1s0.84,0.82,2.41.91h13.5c1.59,0,3.81.15,3.72-1s-2.42-1-4.08-1c-3.22,0-10.09,0-13.1.07h0Z" transform="translate(-50 -45.22)"/><path class="cls-66" d="M355.91,161.85H332c-1.85,0-1.62-.88-1.67-1.83s-0.26-2.06,1.56-2.06h24.54c0.84,0.06,1,.23,1.12.8a7.71,7.71,0,0,1,0,2.07c-0.08.74-.62,1-1.68,1h0Z" transform="translate(-50 -45.22)"/><path class="cls-67" d="M355.91,161.85H332c-1.26,0-1.56-.41-1.63-1,0.94,0.76,2.83.57,4.54,0.57h18.19c4.23,0,4.27-.9,4.5-2.42a8.41,8.41,0,0,1,0,1.81c-0.08.74-.62,1-1.68,1h0Z" transform="translate(-50 -45.22)"/><path class="cls-68" d="M330.34,159.78c-0.05-.92-0.1-1.82,1.58-1.82h23.33c1.12,1,.76,2.63-2.17,2.75-1.73.07-7.26,0-9.69,0h-9.95c-1.81,0-3.05-.16-3.1-0.95h0Z" transform="translate(-50 -45.22)"/><path class="cls-61" d="M335.41,158.5c-1.55,0-2.34.07-2.25,0.76s0.77,0.64,2.21.71h12.39c1.46,0,3.5.12,3.41-.75s-2.22-.79-3.75-0.77c-3,0-9.26,0-12,.06h0Z" transform="translate(-50 -45.22)"/><path class="cls-69" d="M356.43,158H331.5c-1.93,0-1.69-1.5-1.74-3.11s-0.27-3.5,1.63-3.5H357c0.88,0.1,1.07.39,1.17,1.36a21.24,21.24,0,0,1,0,3.52,1.59,1.59,0,0,1-1.75,1.72h0Z" transform="translate(-50 -45.22)"/><path class="cls-70" d="M356.43,158H331.5a1.5,1.5,0,0,1-1.7-1.65c1,1.29,3,1,4.74,1h19c4.42,0,4.46-1.53,4.7-4.11a23.41,23.41,0,0,1,0,3.07,1.59,1.59,0,0,1-1.75,1.72h0Z" transform="translate(-50 -45.22)"/><path class="cls-71" d="M329.75,154.45c-0.05-1.56-.11-3.09,1.64-3.09h24.34c1.17,1.7.79,4.48-2.26,4.67-1.81.11-7.58,0-10.11,0H333c-1.88,0-3.19-.28-3.23-1.61h0Z" transform="translate(-50 -45.22)"/><path class="cls-72" d="M335,152.27c-1.62.06-2.44,0.11-2.35,1.29s0.81,1.09,2.31,1.2h12.93c1.52,0,3.65.2,3.56-1.27s-2.32-1.34-3.91-1.32c-3.09.05-9.67,0-12.55,0.09h0Z" transform="translate(-50 -45.22)"/><path class="cls-73" d="M355.07,151.35H333.15c-1.7,0-1.49-.94-1.53-2s-0.24-2.2,1.43-2.2h22.51c0.77,0.06.94,0.24,1,.85a9.59,9.59,0,0,1,0,2.21c-0.07.79-.57,1-1.54,1.08h0Z" transform="translate(-50 -45.22)"/><path class="cls-74" d="M355.07,151.35H333.15c-1.16,0-1.43-.44-1.5-1,0.86,0.81,2.59.61,4.17,0.61h16.68c3.88,0,3.92-1,4.13-2.58a10.45,10.45,0,0,1,0,1.93c-0.07.79-.57,1-1.54,1.08h0Z" transform="translate(-50 -45.22)"/><path class="cls-75" d="M331.62,149.15c0-1-.09-1.94,1.45-1.94h21.4c1,1.06.7,2.81-2,2.93-1.59.07-6.66,0-8.89,0h-9.13c-1.66,0-2.8-.17-2.84-1h0Z" transform="translate(-50 -45.22)"/><path class="cls-76" d="M336.27,147.78c-1.42,0-2.14.07-2.07,0.81s0.71,0.68,2,.75H347.6c1.34,0,3.21.13,3.13-.8s-2-.84-3.44-0.83c-2.71,0-8.5,0-11,.06h0Z" transform="translate(-50 -45.22)"/><path class="cls-69" d="M368.35,171.54l-5.5-29.73c-0.4-2.14-1.81-1.61-3.38-1.37s-3.46.33-3.07,2.44l5.49,29.67a0.55,0.55,0,0,0,.74.3l5-.91a0.73,0.73,0,0,0,.73-0.4h0Z" transform="translate(-50 -45.22)"/><path class="cls-70" d="M368.35,171.54l-5.5-29.73a1.69,1.69,0,0,0-1-1.53c1.55,8.28,3.38,16.94,4.58,25.2,0.45,3.1.69,4.65-1.94,5.18a3.35,3.35,0,0,1-3-.33l0.41,2.21a0.55,0.55,0,0,0,.74.3l5-.91a0.73,0.73,0,0,0,.73-0.4h0Z" transform="translate(-50 -45.22)"/><path class="cls-71" d="M359.07,140.51c-1.53.22-3,.44-2.68,2.38l4.33,23.37c1.89,1,4,.18,3.52-3.25-0.26-2-.85-4.79-1.37-7.6l-2.13-11.51c-0.37-2.09-.36-3.59-1.67-3.4h0Z" transform="translate(-50 -45.22)"/><path class="cls-72" d="M357.76,146.39c-0.28-1.8-.39-2.72.78-2.84s1.22,0.7,1.64,2.35l2.66,14.34c0.31,1.69.95,4-.51,4.18s-1.79-2.33-2.08-4.1c-0.58-3.44-2-10.72-2.48-13.93h0Z" transform="translate(-50 -45.22)"/><path class="cls-77" d="M383.84,169.77l-14.23-26.67c-1-1.92-2.21-1-3.64-.28s-3.2,1.36-2.19,3.25L378,172.68a0.56,0.56,0,0,0,.8.06l4.48-2.37a0.73,0.73,0,0,0,.58-0.61h0Z" transform="translate(-50 -45.22)"/><path class="cls-78" d="M383.84,169.77l-14.23-26.67a1.69,1.69,0,0,0-1.46-1.14c4,7.42,8.35,15.12,12,22.64,1.37,2.82,2.06,4.22-.29,5.53a3.35,3.35,0,0,1-2.93.58l1.06,2a0.55,0.55,0,0,0,.8.06l4.48-2.37a0.73,0.73,0,0,0,.58-0.61h0Z" transform="translate(-50 -45.22)"/><path class="cls-79" d="M365.61,143c-1.4.68-2.76,1.34-1.83,3.08L375,167c2.1,0.37,3.83-1,2.37-4.16-0.86-1.85-2.26-4.3-3.6-6.83l-5.51-10.33c-1-1.88-1.43-3.31-2.62-2.73h0Z" transform="translate(-50 -45.22)"/><path class="cls-80" d="M366.14,149c-0.81-1.64-1.2-2.48-.12-2.94s1.38,0.3,2.28,1.74l6.87,12.87c0.81,1.51,2.11,3.54.78,4.14s-2.41-1.68-3.22-3.28c-1.59-3.1-5.14-9.62-6.58-12.53h0Z" transform="translate(-50 -45.22)"/><path class="cls-26" d="M322.66,123.88h94.68c2.81,0,2.75,6-.12,6H322.78c-2.87,0-2.93-6-.12-6h0Z" transform="translate(-50 -45.22)"/><path class="cls-27" d="M417,123.88h0.34c2.81,0,2.75,6-.12,6H322.78a1.82,1.82,0,0,1-1.4-.65c27.89,0,55.59-.36,83.48-0.78a65.81,65.81,0,0,0,9.42-.5c2-.35,3.61-0.93,2.72-4.07h0Z" transform="translate(-50 -45.22)"/><path class="cls-81" d="M332.35,125.08c4-.1,7.88-0.26,11.94-0.27,19.16-.07,38.47-0.11,57.62.12,7.49,0.09,7.7,2.38,0,2.42-19.49.11-39,0-58.5,0.14-3.66,0-7.4.19-10.94,0.1-8.69-.21-9.05-2.29-0.13-2.51h0Z" transform="translate(-50 -45.22)"/><path class="cls-26" d="M322.66,172.88h94.68c2.81,0,2.75,6-.12,6H322.78c-2.87,0-2.93-6-.12-6h0Z" transform="translate(-50 -45.22)"/><path class="cls-27" d="M417,172.88h0.34c2.81,0,2.75,6-.12,6H322.78a1.82,1.82,0,0,1-1.4-.65c27.89,0,55.59-.36,83.48-0.78a65.81,65.81,0,0,0,9.42-.5c2-.35,3.61-0.93,2.72-4.07h0Z" transform="translate(-50 -45.22)"/><path class="cls-81" d="M332.35,174.08c4-.1,7.88-0.26,11.94-0.27,19.16-.07,38.47-0.11,57.62.12,7.49,0.09,7.7,2.38,0,2.42-19.49.11-39,0-58.5,0.14-3.66,0-7.4.19-10.94,0.1-8.69-.21-9.05-2.29-0.13-2.51h0Z" transform="translate(-50 -45.22)"/><path class="cls-82" d="M195.21,263.88H308.13a2.86,2.86,0,0,1,2.85,2.85v54.46a2.86,2.86,0,0,1-2.85,2.85H195.21a2.86,2.86,0,0,1-2.85-2.85V266.73a2.86,2.86,0,0,1,2.85-2.85h0Z" transform="translate(-50 -45.22)"/><path class="cls-83" d="M195.21,260.67H308.13a2.86,2.86,0,0,1,2.85,2.85V318a2.86,2.86,0,0,1-2.85,2.85H195.21a2.86,2.86,0,0,1-2.85-2.85V263.52a2.86,2.86,0,0,1,2.85-2.85h0Z" transform="translate(-50 -45.22)"/><path class="cls-84" d="M311,263.52V318a2.86,2.86,0,0,1-2.85,2.85H195.21a2.86,2.86,0,0,1-2.85-2.85v-0.73c0.4,3,8.83,2.15,12.49,2.15h93.88c8.27,0,10.67-.07,10.67-8.92V261.71c1.29,0.19,1.59.16,1.59,1.82h0Z" transform="translate(-50 -45.22)"/><path class="cls-85" d="M201.3,270.35H302.84a3.08,3.08,0,0,1,3.07,3.07v15.8a3.08,3.08,0,0,1-3.07,3.07H201.3a3.08,3.08,0,0,1-3.07-3.07v-15.8a3.08,3.08,0,0,1,3.07-3.07h0Z" transform="translate(-50 -45.22)"/><path class="cls-85" d="M201.3,295H302.84a3.08,3.08,0,0,1,3.07,3.07v15.8a3.08,3.08,0,0,1-3.07,3.07H201.3a3.08,3.08,0,0,1-3.07-3.07v-15.8A3.08,3.08,0,0,1,201.3,295h0Z" transform="translate(-50 -45.22)"/><path class="cls-86" d="M190.88,264.81c-2.69,0-2.69-6.13,0-6.13H312.45c2.69,0,2.69,6.13,0,6.13H190.88Z" transform="translate(-50 -45.22)"/><path class="cls-87" d="M194.93,263.24a1.5,1.5,0,1,1,0-3H297.09a1.5,1.5,0,1,1,0,3H194.93Z" transform="translate(-50 -45.22)"/><polygon class="cls-88" points="140.88 213.45 157.02 208.03 246.32 208.03 262.45 213.45 140.88 213.45 140.88 213.45"/><path class="cls-89" d="M287.32,254.3c5.16,0,9.33.54,9.33,1.19s-4.18,1.19-9.33,1.19-9.33-.53-9.33-1.19,4.18-1.19,9.33-1.19h0Z" transform="translate(-50 -45.22)"/><path class="cls-90" d="M280.66,251.57c-1.71,4.62-1.52,5,1.9,1.6-0.43-.41-1.47-1.19-1.9-1.6h0Z" transform="translate(-50 -45.22)"/><path class="cls-90" d="M294,251.57c1.71,4.62,1.52,5-1.9,1.6,0.43-.41,1.47-1.19,1.9-1.6h0Z" transform="translate(-50 -45.22)"/><path class="cls-90" d="M287.33,237.37a9,9,0,1,1-9,9,9,9,0,0,1,9-9h0Z" transform="translate(-50 -45.22)"/><path class="cls-91" d="M280.87,240.11a2.21,2.21,0,0,0-1.49.27c-1.5.74-2.14,0.19-2.11-.79a4.79,4.79,0,0,1,5.24-4.92c1.72,0.09,2.45.68,1.5,2.13-0.44.67-1,1-1,1.69a9,9,0,0,1,8.69,0c0-.7-0.57-1-1-1.69-1-1.45-.22-2,1.5-2.13a4.79,4.79,0,0,1,5.23,4.92c0,1-.61,1.53-2.11.79a2.21,2.21,0,0,0-1.49-.27,8.29,8.29,0,0,1-1.29,12.69c-3.69,3-9.53,3-13.07-2.16a9,9,0,0,1,1.44-10.54h0Z" transform="translate(-50 -45.22)"/><path class="cls-90" d="M295.19,235.41a4.79,4.79,0,0,1,2.21,4.18c0,1-.61,1.53-2.11.79a2.21,2.21,0,0,0-1.49-.27l-1.21-.82c3.38,0.62,4.82-.86,2.61-3.88h0Z" transform="translate(-50 -45.22)"/><path class="cls-92" d="M287.33,252.95a6.58,6.58,0,1,1,6.58-6.58,6.59,6.59,0,0,1-6.58,6.58h0Z" transform="translate(-50 -45.22)"/><path class="cls-93" d="M283.3,251.57a6.59,6.59,0,1,1,3,.7,6.58,6.58,0,0,1-3-.7h0Z" transform="translate(-50 -45.22)"/><path class="cls-94" d="M287.33,245.9a0.46,0.46,0,1,1-.46.46,0.46,0.46,0,0,1,.46-0.46h0Z" transform="translate(-50 -45.22)"/><path class="cls-95" d="M286.5,237.84a0.83,0.83,0,0,0,1.67,0v-1.38a0.83,0.83,0,0,0-1.67,0v1.38h0Z" transform="translate(-50 -45.22)"/><path class="cls-96" d="M285.91,234.92a0.83,0.83,0,0,0,0,1.67h2.84a0.83,0.83,0,1,0,0-1.67h-2.84Z" transform="translate(-50 -45.22)"/><path class="cls-97" d="M280.25,237.59c-1.77,2.24-2.41.29-1.33-1.05s2.7-.7,1.33,1.05h0Z" transform="translate(-50 -45.22)"/><path class="cls-97" d="M292.4,237.24c-2.42-1.51-.55-2.37.9-1.43s1,2.61-.9,1.43h0Z" transform="translate(-50 -45.22)"/><path class="cls-98" d="M286.71,247.34a0.5,0.5,0,0,0-.64-0.76l-2.58,2.19a0.5,0.5,0,1,0,.64.76l2.58-2.19h0Z" transform="translate(-50 -45.22)"/><path class="cls-98" d="M289.8,251.61a0.37,0.37,0,1,0,.66-0.35L288.26,247a0.37,0.37,0,1,0-.66.35l2.21,4.23h0Z" transform="translate(-50 -45.22)"/><path class="cls-90" d="M282.88,234.69c0.82,2.72-2.87,5.26-4.18,6a3.83,3.83,0,0,0,.69-0.27,2.21,2.21,0,0,1,1.49-.27,16,16,0,0,1,6.39-2.74,9,9,0,0,0-4.27,1.12c0-.7.58-1,1-1.69,0.88-1.34.32-2-1.13-2.11h0Z" transform="translate(-50 -45.22)"/><path class="cls-94" d="M287.33,240.63a0.52,0.52,0,1,1-.52.51,0.52,0.52,0,0,1,.52-0.51h0Z" transform="translate(-50 -45.22)"/><path class="cls-94" d="M292.56,245.85a0.52,0.52,0,1,1-.52.52,0.52,0.52,0,0,1,.52-0.52h0Z" transform="translate(-50 -45.22)"/><path class="cls-94" d="M287.33,251.08a0.52,0.52,0,1,1-.52.52,0.52,0.52,0,0,1,.52-0.52h0Z" transform="translate(-50 -45.22)"/><path class="cls-94" d="M282.11,245.85a0.52,0.52,0,1,1-.52.52,0.52,0.52,0,0,1,.52-0.52h0Z" transform="translate(-50 -45.22)"/><path class="cls-89" d="M218.6,253.27c2.83,0,5.12.56,5.12,1.26s-2.29,1.26-5.12,1.26-5.12-.56-5.12-1.26,2.29-1.26,5.12-1.26h0Z" transform="translate(-50 -45.22)"/><path class="cls-99" d="M219.94,214.54c1.28-1.09,2.22-.84,1.33.83-1.81,3.4-3.54,3.32-4.82,8.3a11.3,11.3,0,0,1,3.49-9.13h0Z" transform="translate(-50 -45.22)"/><path class="cls-100" d="M221.4,215.1l-0.13.27c-1.81,3.4-3.54,3.32-4.82,8.3a10.43,10.43,0,0,1,0-1.64,18.5,18.5,0,0,1,5-6.93h0Z" transform="translate(-50 -45.22)"/><path class="cls-99" d="M215.48,225.2a59.71,59.71,0,0,1,.81-15.31L217,210c-0.81,6.21-1.43,8.17-.06,15.31l-1.5-.13h0Z" transform="translate(-50 -45.22)"/><path class="cls-100" d="M217,210.66c-0.77,5.72-1.3,7.78,0,14.67l-1.21-.1c-0.17-5.85,0-9.81,1.19-14.57h0Z" transform="translate(-50 -45.22)"/><path class="cls-101" d="M213.76,204.86a8.84,8.84,0,0,1,2-5.26c0.39-.43.43-0.55,0.86-0.06a1.75,1.75,0,0,1,.37.68c0.19,0.63.09,0.81,0.54,0a4.46,4.46,0,0,1,2.15-1.84c1.34-.62,1.46-0.42,2,1.11a4.8,4.8,0,0,1,.17,2.2c-0.15,1-.31.86,0.45,0.55s0.7,0,.77.63a7.75,7.75,0,0,1-1.41,5.17c-3.39,5-8.22,2.62-7.87-3.18h0Z" transform="translate(-50 -45.22)"/><path class="cls-102" d="M222.9,202.13a7.51,7.51,0,0,1-1.28,5.91c-2.61,3.84-6.07,3.32-7.37.23,3.31,2.48,5.53-.57,6-3.63,0.38-2.62.37-1.59,0.84-.44,0.56,1.38,1.86-.55,1.83-2.07h0Z" transform="translate(-50 -45.22)"/><path class="cls-103" d="M214.86,205.48c0.51,1.64,2.24,2.37,3.6.45a11.38,11.38,0,0,0,1.36-3.69c0.52-2.19-.1-1.67-1.58-0.54-1.18.9-1.64,0.77-1.93,0.26s-0.74-1.28-1.17,0a6.12,6.12,0,0,0-.28,3.55h0Z" transform="translate(-50 -45.22)"/><path class="cls-99" d="M216.13,226c-1.31-3.28-3.9-8.14-7.81-8.83-3-.54-2,0.6-0.29,1.88,4.67,3.43,3.67,2.31,8.1,7h0Z" transform="translate(-50 -45.22)"/><path class="cls-100" d="M216.13,226c-1.3-3.27-5.31-5.59-8.33-7.12a45.63,45.63,0,0,1,8.33,7.12h0Z" transform="translate(-50 -45.22)"/><path class="cls-104" d="M214.44,225c-0.83,0-2.41.13-1.23,1.33,1.65,1.67,2,2.85,2,5.35,0,1.92,0,1.77-.08,3-0.23,4.17-1,5.32-3.87,9.19s-2,8.24,1.89,10.43c2.64,1.5,4.62,1.38,7.16-.33,3.4-2.29,4-6.46,1.36-10.1-2.79-3.83-3.62-5-3.86-9-0.07-1.27-.09-1.16-0.09-3.16,0-2.49.33-3.67,2-5.35,1.18-1.2-.4-1.33-1.23-1.33h-4Z" transform="translate(-50 -45.22)"/><path class="cls-105" d="M215.57,226.66c-1.55,0-1.6-1.1-.07-1.07,1.73,0,1.59,1.06.07,1.07h0Z" transform="translate(-50 -45.22)"/><path class="cls-105" d="M214.14,245.6c1.12-.53,1.72.11,1.15,1.54-1,2.61-4.47,0-1.15-1.54h0Z" transform="translate(-50 -45.22)"/><path class="cls-105" d="M212.9,243.82c1-.4,1.81.72,0.23,1.1-0.67.16-1.25-.69-0.23-1.1h0Z" transform="translate(-50 -45.22)"/><path class="cls-106" d="M209.89,250.6a6.84,6.84,0,0,0,3.22,3.76c2.64,1.5,4.62,1.38,7.16-.33,3.41-2.29,4-6.46,1.36-10.1-2.32-3.18-3.28-4.52-3.68-7.22-0.11,1.14,1.65,6,2.08,7.4,0.74,2.45.86,5-1.39,7.17-2.08,2-5.62,2.09-8.75-.68h0Z" transform="translate(-50 -45.22)"/><path class="cls-107" d="M213,254.31l0.1,0.06c2.64,1.5,4.62,1.38,7.16-.33,3.4-2.29,4-6.46,1.36-10.1l-0.33-.46c1.62,3.08,2.6,9.63-4.35,11.22a7,7,0,0,1-3.93-.38h0Z" transform="translate(-50 -45.22)"/><polygon class="cls-108" points="177.9 189.64 174.96 209.45 180.78 209.45 177.9 189.64 177.9 189.64"/><path class="cls-109" d="M251.47,257H231c-3,0-2.45.42-2.59-2.68q-0.58-12.59-1.15-25.19c-0.12-2.57-.49-2.13,2.12-2.13h20.44c2.63,0,2.2-.43,2.32,2.19q0.59,12.78,1.17,25.57c0.12,2.55.59,2.25-1.87,2.25h0Z" transform="translate(-50 -45.22)"/><path class="cls-110" d="M250.34,255.53H232c-2.72,0-2.2.37-2.33-2.41q-0.52-11.32-1-22.64c-0.11-2.31-.44-1.91,1.91-1.91h18.37c2.36,0,2-.39,2.08,2l1.05,23c0.1,2.29.53,2-1.68,2h0Z" transform="translate(-50 -45.22)"/><path class="cls-111" d="M248.75,253.5c-5.22,0-10.13,0-15.34,0-2.32,0-1.88.32-2-2.05q-0.44-9.65-.88-19.29c-0.09-2-.37-1.63,1.62-1.63,5.22,0,10.13,0,15.34,0,2,0,1.69-.33,1.78,1.67l0.9,19.58c0.09,2,.45,1.72-1.43,1.72h0Z" transform="translate(-50 -45.22)"/><path class="cls-112" d="M239.85,233.26c2.32-.52,3.27.32,4.17,2.17a35.84,35.84,0,0,1,1.77,5.86c1.09,4.26,2.43,5.49,2.32,10.12-5-.41-9.66.15-14.73,0-0.77-3.41,1.36-8.25,2-13,0.26-1.93,1.59-5.84,4.47-5.16h0Z" transform="translate(-50 -45.22)"/><path class="cls-113" d="M238.82,243.64a5.54,5.54,0,0,1-.29,2.5c-0.56.91-1.75,0.63-2.63,0.66a2.71,2.71,0,0,0-2.87,2,18.75,18.75,0,0,0-.45,4.73l16.23,0a23.15,23.15,0,0,0-.37-4.84C248,247,247,247,245.37,247c-3.13.06-3.37-.65-3.2-3.55l-3.34.16h0Z" transform="translate(-50 -45.22)"/><path class="cls-114" d="M238.82,243.64c0,0.3,0,.56,0,0.8,1.09,1.66,2.6,3.12,5.06,2.53-1.71-.23-1.84-1.14-1.71-3.49l-3.34.16h0Z" transform="translate(-50 -45.22)"/><path class="cls-115" d="M236.2,246.81a2.1,2.1,0,0,0-.3,0,2.71,2.71,0,0,0-2.87,2,18.76,18.76,0,0,0-.45,4.73l16.23,0a23.14,23.14,0,0,0-.37-4.84C248,247,247,247,245.37,247h-0.71a10.23,10.23,0,0,1-1.91,4,2.64,2.64,0,0,1-4,.22,7.92,7.92,0,0,1-2.55-4.42h0Z" transform="translate(-50 -45.22)"/><polygon class="cls-116" points="196.16 208.29 195.74 205.95 195.45 208.29 196.16 208.29 196.16 208.29"/><polygon class="cls-116" points="186.6 208.31 185.88 208.31 186.31 205.95 186.6 208.31 186.6 208.31"/><path class="cls-116" d="M248.81,253.51a23.19,23.19,0,0,0-.37-4.84,1.9,1.9,0,0,0-1.08-1.44c1,1.49.73,3.9,0.24,6.28h1.21Z" transform="translate(-50 -45.22)"/><path class="cls-113" d="M236.83,237.72a15.43,15.43,0,0,0,.5,4.41,3.44,3.44,0,0,0,1.83,2,2.18,2.18,0,0,0,3.06-.45,4,4,0,0,0,1.08-2.22,11.32,11.32,0,0,0,.06-3.44v-0.09c-0.07-4.36-5.55-4.11-6.53-.17h0Z" transform="translate(-50 -45.22)"/><path class="cls-114" d="M240.69,240.63a2.2,2.2,0,0,1,0-1.75,1.79,1.79,0,0,1,1.71-.77,0.94,0.94,0,0,1,1,.34,0.49,0.49,0,0,1-.79.45,1.93,1.93,0,0,0-1.29,0,2,2,0,0,0-.66,1.7h0Z" transform="translate(-50 -45.22)"/><path class="cls-112" d="M242.4,234.9a4.4,4.4,0,0,0-4.61-.05c-1.4.81-1.4,2.07-1.42,3.5s0.31,0.26,1.21-.31a5.37,5.37,0,0,1,2.55-.41,3.82,3.82,0,0,1,2.8.52c0.51,0.46,1,1.93,1,.33a4,4,0,0,0-1.56-3.57h0Z" transform="translate(-50 -45.22)"/><path class="cls-117" d="M239.92,242.14l0.26,0.09,0.25-.09c0.43,0.08.52,0.32,0.84,0.38a1.19,1.19,0,0,1-2.16.09,8.31,8.31,0,0,1,.8-0.48h0Z" transform="translate(-50 -45.22)"/><path class="cls-118" d="M241.27,242.52a1.19,1.19,0,0,1-2.16.09,3.73,3.73,0,0,0,2.16-.09h0Z" transform="translate(-50 -45.22)"/><path class="cls-119" d="M241.43,238.8a1.25,1.25,0,0,1,1.22,0c0.32,0.14.46,0.32,0.05,0.54s-0.38.15-.09,0,0.15-.24-0.12-0.34l-0.28-.08c0.17,0.57-.76.82-0.72,0h0c-0.45.07-.54,0.1,0-0.14h0Z" transform="translate(-50 -45.22)"/><path class="cls-119" d="M239,238.88a1.24,1.24,0,0,0-1.22.12c-0.31.17-.43,0.35,0,0.54,0.26,0.13.39,0.12,0.09,0s-0.16-.23.1-0.35l0.28-.1c-0.13.58,0.81,0.77,0.71,0h0c0.45,0,.54.06,0-0.14h0Z" transform="translate(-50 -45.22)"/><path class="cls-119" d="M243,238.26a2.42,2.42,0,0,0-1.58.09,2.37,2.37,0,0,0-.35.2c-0.11.07-.28,0.2-0.23-0.08,0.09-.51,1.56-0.62,2.17-0.21h0Z" transform="translate(-50 -45.22)"/><path class="cls-119" d="M237.4,238.45a2.41,2.41,0,0,1,1.59,0,2.38,2.38,0,0,1,.36.17c0.11,0.06.29,0.18,0.22-.09-0.12-.51-1.6-0.51-2.17-0.06h0Z" transform="translate(-50 -45.22)"/><path class="cls-114" d="M239.64,241a0.67,0.67,0,0,0,.62.27,0.79,0.79,0,0,0,.63-0.27,7,7,0,0,0-.36-1,5,5,0,0,1,.13,1,0.68,0.68,0,0,1-.41.15,1.13,1.13,0,0,1-.61-0.11h0Z" transform="translate(-50 -45.22)"/><path class="cls-81" d="M200.5,269.12H301.69a3.08,3.08,0,0,1,3.07,3.07V288a3.08,3.08,0,0,1-3.07,3.07H200.5a3.08,3.08,0,0,1-3.07-3.07v-15.8a3.08,3.08,0,0,1,3.07-3.07h0Z" transform="translate(-50 -45.22)"/><path class="cls-120" d="M301.86,269.13a3.08,3.08,0,0,1,2.9,3.06V288a3.08,3.08,0,0,1-3.07,3.07H200.5a3.06,3.06,0,0,1-3.07-3.32c1.42,2.34,7.06,1.89,10.68,1.93,10.15,0.09,69.08,0,79.23-.08,16.7-.15,16.11,1.49,16.11-11.4,0-3.38.36-7.93-1.6-9.06h0Z" transform="translate(-50 -45.22)"/><path class="cls-121" d="M250.17,271.19c18.63,0,37.4.09,42.48,0.75,7.31,0.95,8.42,4.08,5.75,6.28-12.95,10.69-83.57,10.65-96.46,0-2.67-2.2-1.56-5.34,5.75-6.28,5.08-.66,23.85-0.78,42.48-0.75h0Z" transform="translate(-50 -45.22)"/><path class="cls-120" d="M250.52,276.84a3.58,3.58,0,1,1-3.58,3.58,3.58,3.58,0,0,1,3.58-3.58h0Z" transform="translate(-50 -45.22)"/><path class="cls-26" d="M250.17,276.68a3.41,3.41,0,1,1-3.41,3.41,3.41,3.41,0,0,1,3.41-3.41h0Z" transform="translate(-50 -45.22)"/><path class="cls-122" d="M246.76,279.88a3.41,3.41,0,0,1,3.2-3.2,3,3,0,1,1-3.2,3.2h0Z" transform="translate(-50 -45.22)"/><path class="cls-121" d="M249.56,277.67a1.73,1.73,0,1,1-1.73,1.73,1.73,1.73,0,0,1,1.73-1.73h0Z" transform="translate(-50 -45.22)"/><path class="cls-81" d="M200.5,293.79H301.69a3.08,3.08,0,0,1,3.07,3.07v15.8a3.08,3.08,0,0,1-3.07,3.07H200.5a3.08,3.08,0,0,1-3.07-3.07v-15.8a3.08,3.08,0,0,1,3.07-3.07h0Z" transform="translate(-50 -45.22)"/><path class="cls-120" d="M301.86,293.79a3.08,3.08,0,0,1,2.9,3.06v15.8a3.08,3.08,0,0,1-3.07,3.07H200.5a3.06,3.06,0,0,1-3.07-3.32c1.42,2.34,7.06,1.89,10.68,1.93,10.15,0.09,69.08,0,79.23-.08,16.7-.15,16.11,1.49,16.11-11.4,0-3.38.36-7.93-1.6-9.06h0Z" transform="translate(-50 -45.22)"/><path class="cls-121" d="M250.17,295.86c18.63,0,37.4.09,42.48,0.75,7.31,0.95,8.42,4.08,5.75,6.28-12.95,10.69-83.57,10.65-96.46,0-2.67-2.2-1.56-5.34,5.75-6.28,5.08-.66,23.85-0.78,42.48-0.75h0Z" transform="translate(-50 -45.22)"/><path class="cls-120" d="M250.52,301.51a3.58,3.58,0,1,1-3.58,3.58,3.58,3.58,0,0,1,3.58-3.58h0Z" transform="translate(-50 -45.22)"/><path class="cls-26" d="M250.17,301.34a3.41,3.41,0,1,1-3.41,3.41,3.41,3.41,0,0,1,3.41-3.41h0Z" transform="translate(-50 -45.22)"/><path class="cls-122" d="M246.76,304.55a3.41,3.41,0,0,1,3.2-3.2,3,3,0,1,1-3.2,3.2h0Z" transform="translate(-50 -45.22)"/><path class="cls-121" d="M249.56,302.34a1.73,1.73,0,1,1-1.73,1.73,1.73,1.73,0,0,1,1.73-1.73h0Z" transform="translate(-50 -45.22)"/><path class="cls-46" d="M273.43,255.88V232.06c0-1.7-1.12-1.49-2.31-1.53s-2.61-.24-2.61,1.43v23.91h4.92Z" transform="translate(-50 -45.22)"/><path class="cls-47" d="M273.43,255.88V232.06a1.34,1.34,0,0,0-.56-1.32c0,6.57.18,13.48-.06,20-0.09,2.45-.13,3.66-2.15,3.7a2.46,2.46,0,0,1-2.15-.67v2.13h4.92Z" transform="translate(-50 -45.22)"/><path class="cls-48" d="M270.81,230.52c-1.16,0-2.3-.1-2.3,1.45v18.54c1.26,1,2.91.7,3-2,0.08-1.59,0-3.79,0-6v-9.14c0-1.66.22-2.8-.77-2.84h0Z" transform="translate(-50 -45.22)"/><path class="cls-49" d="M269,234.85c0-1.42.08-2.15,1-2.07s0.81,0.71.89,2v11.38c0,1.34.15,3.21-.95,3.13s-1-2-1-3.44c0-2.72,0-8.51.07-11h0Z" transform="translate(-50 -45.22)"/><path class="cls-42" d="M261,255.72l7.4-21.86c0.53-1.57-.61-1.74-1.75-2.17s-2.43-1.07-3,.48L256.31,254a0.42,0.42,0,0,0,.39.47l3.66,1.25a0.56,0.56,0,0,0,.64,0h0Z" transform="translate(-50 -45.22)"/><path class="cls-43" d="M261,255.72l7.4-21.86a1.29,1.29,0,0,0-.13-1.4c-2,6.09-4.05,12.55-6.33,18.5-0.86,2.23-1.27,3.35-3.22,2.73a2.56,2.56,0,0,1-1.85-1.32L256.31,254a0.42,0.42,0,0,0,.39.47l3.66,1.25a0.56,0.56,0,0,0,.64,0h0Z" transform="translate(-50 -45.22)"/><path class="cls-44" d="M266.36,231.59c-1.1-.42-2.19-0.84-2.67.59l-5.82,17.18c0.89,1.36,2.57,1.59,3.55-.85,0.58-1.45,1.22-3.5,1.91-5.57l2.87-8.47c0.53-1.53,1.09-2.52.15-2.88h0Z" transform="translate(-50 -45.22)"/><path class="cls-45" d="M263.3,235c0.49-1.3.75-2,1.58-1.6s0.55,0.92.22,2.18l-3.57,10.54c-0.42,1.24-.86,3-1.9,2.6s-0.32-2.22.14-3.51c0.89-2.5,2.66-7.88,3.53-10.21h0Z" transform="translate(-50 -45.22)"/><path class="cls-82" d="M464,270.95h58.75a2.51,2.51,0,0,1,2.5,2.5V321.2a2.51,2.51,0,0,1-2.5,2.5H464a2.51,2.51,0,0,1-2.5-2.5V273.45a2.51,2.51,0,0,1,2.5-2.5h0Z" transform="translate(-50 -45.22)"/><path class="cls-83" d="M464,268.14h58.75a2.51,2.51,0,0,1,2.5,2.5v47.75a2.51,2.51,0,0,1-2.5,2.5H464a2.51,2.51,0,0,1-2.5-2.5V270.64a2.51,2.51,0,0,1,2.5-2.5h0Z" transform="translate(-50 -45.22)"/><path class="cls-84" d="M525.21,270.64v47.75a2.51,2.51,0,0,1-2.5,2.5H464a2.51,2.51,0,0,1-2.5-2.5v-0.87c0.53,1.73,1.61,1.83,3.67,1.83h53.59c4.73,0,4.91-.12,4.91-5.05v-45.7c0.68,0,1.58,1.44,1.58,2h0Z" transform="translate(-50 -45.22)"/><path class="cls-123" d="M472.92,277.26h42.7a2.51,2.51,0,0,1,2.5,2.5v12.88a2.51,2.51,0,0,1-2.5,2.5h-42.7a2.51,2.51,0,0,1-2.5-2.5V279.76a2.51,2.51,0,0,1,2.5-2.5h0Z" transform="translate(-50 -45.22)"/><path class="cls-123" d="M472.92,299.73h42.7a2.51,2.51,0,0,1,2.5,2.5v12.88a2.51,2.51,0,0,1-2.5,2.5h-42.7a2.51,2.51,0,0,1-2.5-2.5V302.23a2.51,2.51,0,0,1,2.5-2.5h0Z" transform="translate(-50 -45.22)"/><path class="cls-86" d="M459.92,271.76c-2.36,0-2.36-5.37,0-5.37h66.84c2.36,0,2.36,5.37,0,5.37H459.92Z" transform="translate(-50 -45.22)"/><path class="cls-87" d="M461.21,270.39a1.31,1.31,0,1,1,0-2.62H513.4a1.31,1.31,0,1,1,0,2.62H461.21Z" transform="translate(-50 -45.22)"/><polygon class="cls-88" points="409.92 221.16 424.06 216.41 462.61 216.41 476.75 221.16 409.92 221.16 409.92 221.16"/><path class="cls-89" d="M486.16,261.78c5,0,9.12.77,9.12,1.71s-4.08,1.71-9.12,1.71-9.12-.77-9.12-1.71,4.08-1.71,9.12-1.71h0Z" transform="translate(-50 -45.22)"/><path class="cls-89" d="M507.74,262.19c3.95,0,7.14.6,7.14,1.34s-3.2,1.34-7.14,1.34-7.14-.6-7.14-1.34,3.2-1.34,7.14-1.34h0Z" transform="translate(-50 -45.22)"/><path class="cls-81" d="M472,276.26h42.7a2.51,2.51,0,0,1,2.5,2.5v12.87a2.51,2.51,0,0,1-2.5,2.5H472a2.51,2.51,0,0,1-2.5-2.5V278.76a2.51,2.51,0,0,1,2.5-2.5h0Z" transform="translate(-50 -45.22)"/><path class="cls-120" d="M514.82,276.26a2.51,2.51,0,0,1,2.36,2.5v12.87a2.51,2.51,0,0,1-2.5,2.5H472a2.49,2.49,0,0,1-2.5-2.7c1.16,1.91,5.75,1.54,8.71,1.57,8.27,0.08,16.54,0,24.81-.06,13.6-.12,13.12,1.22,13.12-9.29,0-2.75.3-6.46-1.3-7.38h0Z" transform="translate(-50 -45.22)"/><path class="cls-121" d="M478.44,278.12c8.8,0,20.75-.62,28.89.43,9.78,1.27,5.13,6.51-1.23,8.57-8.76,2.84-17.55,3.32-26.71,3.8-7.08.37-6.51-1.91-6.69-7.55-0.06-4,1.08-5.25,5.75-5.25h0Z" transform="translate(-50 -45.22)"/><path class="cls-120" d="M493.62,282.55a2.92,2.92,0,1,1-2.92,2.92,2.92,2.92,0,0,1,2.92-2.92h0Z" transform="translate(-50 -45.22)"/><path class="cls-26" d="M493.33,282.42a2.78,2.78,0,1,1-2.78,2.78,2.78,2.78,0,0,1,2.78-2.78h0Z" transform="translate(-50 -45.22)"/><path class="cls-122" d="M490.56,285a2.78,2.78,0,0,1,2.61-2.61,2.45,2.45,0,1,1-2.61,2.61h0Z" transform="translate(-50 -45.22)"/><path class="cls-121" d="M492.83,283.23a1.41,1.41,0,1,1-1.41,1.41,1.41,1.41,0,0,1,1.41-1.41h0Z" transform="translate(-50 -45.22)"/><path class="cls-81" d="M472,298.51h42.7a2.51,2.51,0,0,1,2.5,2.5v12.87a2.51,2.51,0,0,1-2.5,2.5H472a2.51,2.51,0,0,1-2.5-2.5V301a2.51,2.51,0,0,1,2.5-2.5h0Z" transform="translate(-50 -45.22)"/><path class="cls-120" d="M514.82,298.51a2.51,2.51,0,0,1,2.36,2.5v12.87a2.51,2.51,0,0,1-2.5,2.5H472a2.49,2.49,0,0,1-2.5-2.71c1.16,1.91,5.75,1.54,8.71,1.57,8.27,0.08,16.54,0,24.81-.06,13.6-.13,13.12,1.22,13.12-9.29,0-2.75.3-6.46-1.3-7.38h0Z" transform="translate(-50 -45.22)"/><path class="cls-121" d="M478.44,300.37c8.8,0,20.75-.62,28.89.43,9.78,1.27,5.13,6.51-1.23,8.57-8.76,2.84-17.55,3.32-26.71,3.8-7.08.37-6.51-1.91-6.69-7.55-0.06-4,1.08-5.25,5.75-5.25h0Z" transform="translate(-50 -45.22)"/><path class="cls-120" d="M493.62,304.6a2.92,2.92,0,1,1-2.92,2.92,2.92,2.92,0,0,1,2.92-2.92h0Z" transform="translate(-50 -45.22)"/><path class="cls-26" d="M493.33,304.46a2.78,2.78,0,1,1-2.78,2.78,2.78,2.78,0,0,1,2.78-2.78h0Z" transform="translate(-50 -45.22)"/><path class="cls-122" d="M490.56,307.08a2.78,2.78,0,0,1,2.61-2.61,2.45,2.45,0,1,1-2.61,2.61h0Z" transform="translate(-50 -45.22)"/><path class="cls-121" d="M492.83,305.27a1.41,1.41,0,1,1-1.41,1.41,1.41,1.41,0,0,1,1.41-1.41h0Z" transform="translate(-50 -45.22)"/><path class="cls-124" d="M475.42,262.73c-4.06-4-4-10.19.64-15,5.12,0,10.21,0,15.34,0,4.6,4.76,4.7,11,.64,15-3.19,3.12-13.43,3.12-16.62,0h0Z" transform="translate(-50 -45.22)"/><path class="cls-125" d="M474.54,261.75c-3.13-4-2.71-9.59,1.52-14,4.79,0,9.55,0,14.33,0,7.94,12.32-7.45,20.24-15.85,14h0Z" transform="translate(-50 -45.22)"/><path class="cls-126" d="M476,248.29c3.12,0,6.22,0,9.33,0,4.48,5,1.11,11-5.49,10.83-6.23-.18-8.4-6.1-3.84-10.82h0Z" transform="translate(-50 -45.22)"/><path class="cls-124" d="M474.29,250a12.23,12.23,0,0,1,1.77-2.24c5.12,0,10.21,0,15.34,0a13.75,13.75,0,0,1,1.79,2.26,27.84,27.84,0,0,1-18.89,0h0Z" transform="translate(-50 -45.22)"/><path class="cls-127" d="M472.68,248.61c-3.65-1.1-2.14-2.17-.85-5.52,1.57-4.09,3.27-7.54,4.88-11.41,1.49-3.57,1.69-3.61,7-3.57s5.43,0.06,7,3.57c1.73,3.82,3.31,7.32,4.88,11.41,1.29,3.35,2.76,4.28-.85,5.52-6,2.06-16,1.85-22.11,0h0Z" transform="translate(-50 -45.22)"/><path class="cls-128" d="M472.62,241.1c1.32-3.21,2.76-6.24,4.09-9.42,1.45-3.47,1.68-3.61,6.6-3.57,4,2.35,4.82,11.24,1.2,15.29-3.39,3.79-11.83,3.51-11.89-2.29h0Z" transform="translate(-50 -45.22)"/><path class="cls-129" d="M472.68,248.61a4.06,4.06,0,0,1-2.05-1.06c4.38,1.75,14.73,2.46,18.94-.25,1.86-1.2,2.64-3.4,1.57-7.42-0.79-3-1.09-5.78-2.08-8.45-0.49-1.32-.86-2.72-2-3.28,2.21,0.19,2.5,1,3.66,3.53,1.73,3.82,3.31,7.32,4.88,11.41,1.29,3.35,2.76,4.28-.85,5.52-6,2.06-16,1.85-22.11,0h0Z" transform="translate(-50 -45.22)"/><path class="cls-130" d="M512,250.84v12.65c0,1.57-11.51,1.55-11.51,0V250.84c0-.93,2.88-0.94,5.76-0.94s5.75,0.08,5.75.94h0Z" transform="translate(-50 -45.22)"/><path class="cls-131" d="M504.15,251.14c3.54-.2,4.7.13,4,4a7.86,7.86,0,0,1-1.24,2.9c-0.86,1.3-1.6,1.75-2.66,1.77-1.56,0-2.09-2.53-2.25-4.8-0.2-2.85.24-3.77,2.18-3.88h0Z" transform="translate(-50 -45.22)"/><path class="cls-132" d="M512,250.84v12.65c0,1.57-11.51,1.55-11.51,0v-0.2a11.36,11.36,0,0,0,5.9.34c3-.37,3.76-1.59,4.4-5.32a53.61,53.61,0,0,0,.46-8.07,1.76,1.76,0,0,1,.55.25,0.4,0.4,0,0,1,.2.35h0Z" transform="translate(-50 -45.22)"/><path class="cls-133" d="M512,250.84v12.65c0,1.45-9.87,1.55-11.33.32,2.93,0.44,6.07.85,8.92-.2,1.72-.64,1.79-1.4,2-3.46,0.29-3.26.23-6.39,0.24-9.66a0.4,0.4,0,0,1,.2.35h0Z" transform="translate(-50 -45.22)"/><path class="cls-132" d="M512,252.94c4.7,0.33,5,7.5,0,8.11v-1.79a2.31,2.31,0,0,0,0-4.6v-1.72h0Z" transform="translate(-50 -45.22)"/><path class="cls-133" d="M514.69,254.29a4.15,4.15,0,0,1-2.71,6.76v-1.27c3,0.09,3.94-3,2.71-5.49h0Z" transform="translate(-50 -45.22)"/><path class="cls-134" d="M512,251.68v2.12c-3.62.06-7.57-.05-11.51,0v-2.12c3.88-.1,7.76-0.07,11.51,0h0Z" transform="translate(-50 -45.22)"/><path class="cls-135" d="M507.77,251.65a2.49,2.49,0,0,1,.54,2.17c-2.08,0-4.23,0-6.38,0a2.85,2.85,0,0,1,.63-2.13c1.75,0,3.49,0,5.22,0h0Z" transform="translate(-50 -45.22)"/><path class="cls-136" d="M512,251.68v2.12h-0.82c0-.71,0-1.42,0-2.13H512Z" transform="translate(-50 -45.22)"/><path class="cls-137" d="M512,251.68v2.12h-0.21c0-.7,0-1.41,0-2.12H512Z" transform="translate(-50 -45.22)"/><polygon class="cls-134" points="461.99 210.72 461.99 212.85 450.48 212.85 450.48 210.72 461.99 210.72 461.99 210.72"/><path class="cls-135" d="M507.91,255.95a8.39,8.39,0,0,1-1,2.11v0h-4.38a11,11,0,0,1-.44-2.12h5.86Z" transform="translate(-50 -45.22)"/><path class="cls-136" d="M512,255.95v2.13h-1.17c0.11-.71.19-1.42,0.25-2.13H512Z" transform="translate(-50 -45.22)"/><path class="cls-137" d="M512,255.95v2.13h-0.3c0-.71.06-1.42,0.07-2.13H512Z" transform="translate(-50 -45.22)"/><path class="cls-134" d="M512,259.86V262a55,55,0,0,1-11.51,0v-2.11a47.46,47.46,0,0,0,11.51,0h0Z" transform="translate(-50 -45.22)"/><path class="cls-136" d="M512,259.86V262q-1.24.13-2.51,0.2a6,6,0,0,0,.94-2.16l1.57-.16h0Z" transform="translate(-50 -45.22)"/><path class="cls-137" d="M512,259.86V262l-0.71.07a10.54,10.54,0,0,0,.27-1.9l0-.24,0.42,0h0Z" transform="translate(-50 -45.22)"/><polygon class="cls-82" points="40.85 257.86 125.77 257.86 125.77 265.39 125.91 265.39 127.33 273.52 117.18 265.39 49.63 265.39 39.48 273.52 40.9 265.39 40.85 265.39 40.85 257.86 40.85 257.86"/><polygon class="cls-138" points="85.65 39.66 125.14 39.66 125.14 66.18 85.65 66.18 85.65 39.66 85.65 39.66"/><path class="cls-139" d="M135.65,84.89h39.5v26.52h-2.8c-1.22-21.46-17-21-36.7-22.21V84.89h0Z" transform="translate(-50 -45.22)"/><polygon class="cls-139" points="122.25 39.66 125.14 39.66 125.14 66.18 122.25 66.18 122.25 39.66 122.25 39.66"/><polygon class="cls-139" points="85.65 39.66 88.54 39.66 88.54 66.18 85.65 66.18 85.65 39.66 85.65 39.66"/><polygon class="cls-140" points="85.02 41.87 125.77 41.87 125.77 35.2 85.02 35.2 85.02 41.87 85.02 41.87"/><polygon class="cls-138" points="41.52 33.54 81.02 33.54 81.02 60.06 41.52 60.06 41.52 33.54 41.52 33.54"/><path class="cls-139" d="M91.52,78.76H131v26.52h-2.8c-6.1-19.59-18.27-20-36.7-22.21V78.76h0Z" transform="translate(-50 -45.22)"/><polygon class="cls-139" points="78.13 33.54 81.02 33.54 81.02 60.06 78.13 60.06 78.13 33.54 78.13 33.54"/><polygon class="cls-139" points="41.52 33.54 44.41 33.54 44.41 60.06 41.52 60.06 41.52 33.54 41.52 33.54"/><polygon class="cls-140" points="40.9 35.74 81.65 35.74 81.65 29.08 40.9 29.08 40.9 35.74 40.9 35.74"/><polygon class="cls-141" points="31.18 65.55 135.42 65.55 135.42 67.18 31.18 67.18 31.18 65.55 31.18 65.55"/><path class="cls-142" d="M81.25,102.84H185.42V312.93c0,6.57.59,6.44-4.24,6.44-4.66,0-3.59.31-4.66-4.86-2-9.49-5.09-10.41-15.77-10.41H106.1c-9.89,0-14.07,1.09-15.84,10.5-0.92,4.91.1,4.78-4.15,4.78-5.19,0-4.87.8-4.87-5.38V102.84h0Z" transform="translate(-50 -45.22)"/><path class="cls-141" d="M130.46,304.1c-8.43,0-16.86-.06-25.29,0-9.22.07-13.19,1.39-14.9,10.5-0.92,4.91.1,4.78-4.15,4.78-3.38,0-4.42.34-4.74-1.13a8.66,8.66,0,0,0,4.68.21c2.7-.74,2.65-5.6,3.6-8.3,2.16-6.18,5.33-6.58,11.71-7.27a97.22,97.22,0,0,1,11.73-.11q20.29,0,40.59,0a97.22,97.22,0,0,1,11.73.11c6.39,0.69,9.55,1.09,11.71,7.27,0.95,2.71.89,7.57,3.6,8.3a8.66,8.66,0,0,0,4.68-.21c-0.31,1.48-1.35,1.13-4.74,1.13-4.25,0-3.22.14-4.15-4.78-1.7-9-5.62-10.4-14.67-10.49-10.47-.11-20.93,0-31.4,0h0Z" transform="translate(-50 -45.22)"/><path class="cls-142" d="M79.17,110.55a3.9,3.9,0,0,0,2,.22H185.33c2.16,0,2.17.17,2.17-2.13V96.88a2.06,2.06,0,0,0-1.51-.33h-4.52c-1.07,0-1.13,0-1.72.53-15.34,14.75-26.87-14-46.26,4.63-19.15-18.4-30.64,9.43-45.7-4.12-1.15-1-.8-1-2.66-1H81c-1.8,0-1.83.08-1.83,2.05v11.33c0,0.23,0,.43,0,0.62h0Z" transform="translate(-50 -45.22)"/><path class="cls-143" d="M179.68,108.79c4.65,0,5.78.48,5.8-1.86,0-.75,0-1.5,0-2.25,0-2.42.28-4.45-2.82-4.27-3.6,0-3.79,1.85-6.16,2.93-3.71,1.7-8.64,3-17.5-1-7.29-3.29-14.32-5.91-23.34,1.2a3.21,3.21,0,0,1-4.35,0c-9-7.11-16-4.49-23.34-1.2-8.85,4-13.78,2.65-17.5,1-2.37-1.08-2.56-2.93-6.16-2.93-3.1-.18-2.82,1.85-2.82,4.27,0,0.75,0,1.5,0,2.25,0,2.34,1.14,1.86,5.8,1.86h92.39Z" transform="translate(-50 -45.22)"/><path class="cls-141" d="M89,115.31h41.75a2.51,2.51,0,0,1,2.5,2.5v173.5a2.51,2.51,0,0,1-2.5,2.5H89a2.51,2.51,0,0,1-2.5-2.5V117.81a2.51,2.51,0,0,1,2.5-2.5h0Z" transform="translate(-50 -45.22)"/><path class="cls-143" d="M89,115.31h39.5a2.51,2.51,0,0,1,2.5,2.5v171.5a2.51,2.51,0,0,1-2.5,2.5H89a2.51,2.51,0,0,1-2.5-2.5V117.81a2.51,2.51,0,0,1,2.5-2.5h0Z" transform="translate(-50 -45.22)"/><path class="cls-144" d="M100.83,122.56h15.83a8.36,8.36,0,0,1,8.33,8.33V276.22a8.36,8.36,0,0,1-8.33,8.33H100.83a8.36,8.36,0,0,1-8.33-8.33V130.89a8.36,8.36,0,0,1,8.33-8.33h0Z" transform="translate(-50 -45.22)"/><path class="cls-145" d="M125.48,196.7h0a1.25,1.25,0,0,1,1.25,1.25v11.2a1.25,1.25,0,0,1-2.5,0V198a1.25,1.25,0,0,1,1.25-1.25h0Z" transform="translate(-50 -45.22)"/><path class="cls-141" d="M126.1,196.87V208.1a1.25,1.25,0,0,1-1.87,1.08V198a1.25,1.25,0,0,1,1.88-1.08h0Z" transform="translate(-50 -45.22)"/><path class="cls-146" d="M125.41,197.9v7a0.34,0.34,0,0,1-.68,0v-7a0.34,0.34,0,0,1,.68,0h0Z" transform="translate(-50 -45.22)"/><path class="cls-141" d="M138.17,115.31h41.71a2.51,2.51,0,0,1,2.5,2.5v173.5a2.51,2.51,0,0,1-2.5,2.5H138.17a2.51,2.51,0,0,1-2.5-2.5V117.81a2.51,2.51,0,0,1,2.5-2.5h0Z" transform="translate(-50 -45.22)"/><path class="cls-143" d="M138.17,115.31h39.5a2.51,2.51,0,0,1,2.5,2.5v171.5a2.51,2.51,0,0,1-2.5,2.5h-39.5a2.51,2.51,0,0,1-2.5-2.5V117.81a2.51,2.51,0,0,1,2.5-2.5h0Z" transform="translate(-50 -45.22)"/><path class="cls-144" d="M150,122.56h15.83a8.36,8.36,0,0,1,8.33,8.33V276.22a8.36,8.36,0,0,1-8.33,8.33H150a8.36,8.36,0,0,1-8.33-8.33V130.89a8.36,8.36,0,0,1,8.33-8.33h0Z" transform="translate(-50 -45.22)"/><path class="cls-145" d="M141.6,196.7h0a1.25,1.25,0,0,1,1.25,1.25v11.2a1.25,1.25,0,0,1-2.5,0V198a1.25,1.25,0,0,1,1.25-1.25h0Z" transform="translate(-50 -45.22)"/><path class="cls-141" d="M142.23,196.87V208.1a1.25,1.25,0,0,1-1.87,1.08V198a1.25,1.25,0,0,1,1.87-1.08h0Z" transform="translate(-50 -45.22)"/><path class="cls-146" d="M141.54,197.9v7a0.34,0.34,0,0,1-.68,0v-7a0.34,0.34,0,0,1,.68,0h0Z" transform="translate(-50 -45.22)"/><polygon class="cls-82" points="261.47 304.06 405.21 304.06 405.21 311.59 405.34 311.59 406.76 319.72 396.62 311.59 270.25 311.59 260.11 319.72 261.53 311.59 261.47 311.59 261.47 304.06 261.47 304.06"/><path class="cls-3" d="M341.9,235c-5.29,2.73-6.8,5.15-5.12,12.37,1.91,8.17,3.81,17.46,5.73,25.63h88.63c1.92-8.16,3.83-17.46,5.73-25.63,1.68-7.22.17-9.65-5.12-12.37-26.12-13.48-63.74-13.48-89.87,0h0Z" transform="translate(-50 -45.22)"/><path class="cls-3" d="M342.68,269.63a91.13,91.13,0,0,0-9.9,12.31c30.87-4.69,80.69-.83,112.24,1-4.95-4.37-10.32-10.35-13.28-13.35-35.7-2.55-53.36-2.52-89.07,0h0Z" transform="translate(-50 -45.22)"/><path class="cls-82" d="M295.8,334.42l-7.23,23.48c-1.11,3.61-1.52,3.31-4.27,3.31H229.83c-4.3,0-5.46-1.24-3.71-3.15,0.16-.18,1.44-1.46,1.64-1.66,8.4-8.4,17.17-14.84,25.57-23.24,1-1,1.5-1.26,3.56-1.26,12.2,0,24.71-1.37,36.91-1.37,2.83,0,2.68,1.68,2,3.89h0Z" transform="translate(-50 -45.22)"/><path class="cls-147" d="M295,332.25l-7.23,23.48c-1.11,3.61-1.52,3.31-4.27,3.31H229c-4.7,0-4-.21-1.7-2.56,8.4-8.4,17-16.59,25.42-25,1-1,1.16-1.07,3.22-1.07h36.59c2.83,0,3.12-.38,2.44,1.83h0Z" transform="translate(-50 -45.22)"/><path class="cls-148" d="M252,332.24l0.75-.75c1-1,1.16-1.07,3.22-1.07h36.59c2.83,0,3.12-.38,2.44,1.82H252Z" transform="translate(-50 -45.22)"/><path class="cls-148" d="M293.46,337.24l-1.54,5H241.84l5.11-5h46.51Z" transform="translate(-50 -45.22)"/><path class="cls-148" d="M290.38,347.24l-1.54,5H231.61l5.1-5h53.67Z" transform="translate(-50 -45.22)"/><path class="cls-148" d="M287.26,357.24c-0.8,2-1.47,1.8-3.75,1.8H229c-4.13,0-4.12-.17-2.46-1.8h60.69Z" transform="translate(-50 -45.22)"/><path class="cls-149" d="M361.18,221.93c-8.34,1.68-29.7,7.66-28.54,17.87H434c1.15-10.21-20.21-16.19-28.54-17.87a121.61,121.61,0,0,0-44.31,0h0Z" transform="translate(-50 -45.22)"/><path class="cls-150" d="M338.4,232.54c-5.29,2.73-6.8,5.15-5.12,12.37,1.91,8.17,3.81,17.46,5.73,25.63h88.63c1.92-8.16,3.83-17.46,5.73-25.63,1.68-7.22.17-9.65-5.12-12.37-26.12-13.48-63.74-13.48-89.87,0h0Z" transform="translate(-50 -45.22)"/><path class="cls-151" d="M339.11,270.54h88.54c1.92-8.17,3.83-17.46,5.73-25.63,1.68-7.22.17-9.65-5.12-12.37q-1.51-.78-3.06-1.49c5.3,4.16,4,10.22,2.76,16.12-0.75,3.62-1.63,6.75-2.38,10.37-2.33,11.24-18.08,9.51-28.75,9.56-19.78.1-40.38,0.1-57.72,3.44h0Z" transform="translate(-50 -45.22)"/><path class="cls-152" d="M381.21,263c-10.61.73-35.94,3-39.05-8-3.37-11.92-2.06-14.84,3.5-19.5,12.81-10.76,33.06-9.38,48.87-5.73,15.17,3.5,15.34,10.26,11,19.22C399,262.22,395,262,381.21,263h0Z" transform="translate(-50 -45.22)"/><path class="cls-151" d="M411,268.53l4.54,0.32c1-6-3.15-15.35-4.81-22.69,0.16,7.23.12,15.14,0.28,22.37h0Z" transform="translate(-50 -45.22)"/><path class="cls-153" d="M338.8,269.63a91.05,91.05,0,0,0-9.9,12.31L345,279.5l43.28-.94,39.69,1.56,9.46,1.33a95,95,0,0,0-9.53-11.85c-35.7-2.55-53.36-2.52-89.06,0h0Z" transform="translate(-50 -45.22)"/><path class="cls-150" d="M306.67,365.19c-3.84.09-4.61-.07-4.66-3.25q-0.33-20.87-.67-41.75c-0.08-5-.08-6.87,5.33-6.75,5.41-.12,5.41,1.77,5.33,6.75q-0.34,20.87-.67,41.75c-0.05,3.18-.81,3.34-4.66,3.25h0Z" transform="translate(-50 -45.22)"/><path class="cls-151" d="M306.67,365.19c-3.39.08-4.38,0-4.61-2.25,2.87,1.45,7,.24,7.42-4.56,0.87-10,1.09-19.42,1.21-29.26,0.08-6.73.85-13.6-1.68-15.57,3.06,0.5,3,2.51,3,6.63q-0.34,20.87-.67,41.75c-0.05,3.18-.81,3.34-4.66,3.25h0Z" transform="translate(-50 -45.22)"/><path class="cls-154" d="M309.11,322.69c0.54,5.37-.05,13.26-0.52,19.36-0.91,11.82-4.29,11.79-5.3,2.92-0.66-5.82-.48-15.92-0.59-22-0.19-10.27,5.52-9.31,6.42-.31h0Z" transform="translate(-50 -45.22)"/><path class="cls-150" d="M460,365.19c-3.84.09-4.61-.07-4.66-3.25q-0.33-20.87-.67-41.75c-0.08-5-.08-6.87,5.33-6.75,5.41-.12,5.41,1.77,5.33,6.75q-0.34,20.87-.67,41.75c0,3.18-.81,3.34-4.66,3.25h0Z" transform="translate(-50 -45.22)"/><path class="cls-151" d="M460,365.19c-3.39.08-4.38,0-4.6-2.25,2.87,1.45,7,.24,7.42-4.56,0.87-10,1.09-19.42,1.21-29.26,0.08-6.73.85-13.6-1.68-15.57,3.06,0.5,3,2.51,3,6.63q-0.34,20.87-.67,41.75c0,3.18-.81,3.34-4.66,3.25h0Z" transform="translate(-50 -45.22)"/><path class="cls-154" d="M462.44,322.69c0.54,5.37-.05,13.26-0.52,19.36-0.91,11.82-4.29,11.79-5.3,2.92-0.66-5.82-.48-15.92-0.59-22-0.19-10.27,5.52-9.31,6.42-.31h0Z" transform="translate(-50 -45.22)"/><path class="cls-155" d="M324.94,288.68c-2.14.3-1.36-1-.23-2.82,2-3.11,3.12-6.54,7.1-7.12,25.2-3.65,77.84-3.65,103,0,4,0.58,5.12,4,7.1,7.12,1.13,1.78,1.91,3.11-.23,2.82-34.16-4.74-82.63-4.74-116.79,0h0Z" transform="translate(-50 -45.22)"/><path class="cls-156" d="M324.94,288.68c-1.15.16-1.45-.15-1.32-0.75s3.1-.36,4.69-0.54a575.36,575.36,0,0,1,66.19-3.14c10.12,0,19.87.38,31.14,1.21,3.66,0.27,7.13.75,10.15,0.49,3.38-.29,3.45-1.5,2.68-3.29-1.53-3.56-4-3.6-7.82-4.46,1.47,0.17,2.88.35,4.2,0.54,4,0.58,5.12,4,7.1,7.12,1.13,1.78,1.91,3.11-.23,2.82-34.16-4.74-82.63-4.74-116.79,0h0Z" transform="translate(-50 -45.22)"/><path class="cls-157" d="M411,278.16c2.3-2.91,2.15-7,4.63-9.37l-4.54-.26L411,278.16h0Z" transform="translate(-50 -45.22)"/><path class="cls-157" d="M404.8,245.11c6.49-.84,6.51,1.66,6.25,5.07-0.31,4,1.21,6.95,1.54,11.09a35.44,35.44,0,0,1-.79,10.47c-1.88,7.16,2.17,9.11-5.74,7.44-5.18-1.09-27.12,2.59-42.13.25-3.08-.48-3-1-6.12-0.33-2.35.49-5.46,0.71-4-3.34,0.73-2,.32-4.06-0.34-7-2.09-9.19.43-11.3,0-19.56-0.26-5.22,5.34-2.6,12.37-3.75,3-.49,5.78-0.94,8.34-1.29a59.28,59.28,0,0,1,19.37.24c4.31,0.63,7,1.22,11.22.68h0Z" transform="translate(-50 -45.22)"/><path class="cls-158" d="M405.17,243.61c6.49-.84,6.51,1.66,6.25,5.07-0.31,4,1.21,6.95,1.54,11.09a35.44,35.44,0,0,1-.79,10.47c-1.88,7.16,2.16,9.11-5.74,7.44-5.18-1.09-28.43,2.59-43.44.25-3.08-.48-3-1-6.12-0.33-2.35.49-5.46,0.71-4-3.34,0.73-2,.32-4.06-0.34-7-2.09-9.19.43-11.3,0-19.56-0.26-5.22,5.34-2.6,12.37-3.75,3-.49,5.78-0.94,8.34-1.29a59.27,59.27,0,0,1,19.37.24c4.31,0.63,8.33,1.22,12.53.68h0Z" transform="translate(-50 -45.22)"/><path class="cls-159" d="M409,243.59c2.61,0.55,2.58,2.57,2.38,5.08-0.31,4,1.21,6.95,1.54,11.09a35.48,35.48,0,0,1-.79,10.47c-1.88,7.16,2.16,9.11-5.74,7.44-5.18-1.09-28.43,2.59-43.44.25-3-.47-3-1-6-0.36,5.72-2.66,9.74-.91,16.82-0.72a54.48,54.48,0,0,0,10.46-.74c7-1.21,13.34-.72,19.66-1.7,2.66-.41,3.2-0.67,4.23-4.47,0.87-3.18,1.67-6.87,1.31-9.61-0.6-4.6-2.49-6-.26-11.11,0.79-1.79,1.43-4.36-.19-5.62h0Z" transform="translate(-50 -45.22)"/><path class="cls-155" d="M365.3,247.08c4.58-.49,8.12-1.08,12.43-1.31a50,50,0,0,1,12.57.88c6.08,1.22,8.77,6.25,9.51,11.73,1.21,8.9-10.89,12.27-17.84,11.45-6.12-.72-13.58,1.1-17.92-1.23-9.4-5.05-6.26-20.71,1.24-21.52h0Z" transform="translate(-50 -45.22)"/></svg>