<svg id="svg26943" xmlns="http://www.w3.org/2000/svg" viewBox="0 0 155.39 225.17"><defs><style>.cls-1{fill:#1f2b39;}.cls-2{fill:#e1eaf3;}.cls-3{fill:#f1f5f9;}.cls-4{fill:#2a3d51;}.cls-5{fill:#aebac6;}.cls-6{fill:#fff;}</style></defs><title>STANDARD</title><g id="g28973"><g id="g4389"><g id="g4391"><g id="g4393"><path id="path4395" class="cls-1" d="M132.59,116.89c-2.74-3.33-10.08-5.56-16.61-.11-7,5.81-5.64,14.16-2.56,17.18L127,149.13s7.24,2.81,13.13-1.68,5.1-12.22,5.1-12.22c-3.52-6.38-8.73-12.94-12.68-18.34h0Z"/><path id="path4397" class="cls-1" d="M146.72,137.67s-1.43-7.3-12.64-5.19-9.89,9.43-9.89,9.43l8.27,21.34c3.3,7.43,17.28,3.19,16.86-3.94Z"/><g id="g4399"><path id="path4401" class="cls-1" d="M135.4,158.64a3.07,3.07,0,0,0-3.79,1.59l-3.44,8.54a2.4,2.4,0,0,0,4.31,2.09l4.64-8a3.07,3.07,0,0,0-1.72-4.27h0Z"/><path id="path4403" class="cls-1" d="M138.39,167.38a2.4,2.4,0,0,0-3.69,1.82l-0.42,8.91a2,2,0,0,0,4,.37l1.21-8.84a2.39,2.39,0,0,0-1.08-2.26h0Z"/><path id="path4405" class="cls-1" d="M141.94,168.55a2.4,2.4,0,0,0-3.32,2.43l1.12,8.85a2,2,0,1,0,4-.33l-0.34-8.91a2.4,2.4,0,0,0-1.45-2h0Z"/><path id="path4407" class="cls-1" d="M145.71,167.34a2.39,2.39,0,0,0-3.16,2.64l1.68,8.76a2,2,0,1,0,4-.58l-0.9-8.88a2.39,2.39,0,0,0-1.58-1.94h0Z"/><path id="path4409" class="cls-1" d="M149.2,164.25a2.22,2.22,0,0,0-2.74,2.66l2.15,8a1.86,1.86,0,0,0,3.62-.81l-1.44-8.14a2.22,2.22,0,0,0-1.59-1.69h0Z"/><path id="path4411" class="cls-1" d="M148.69,157.1c-2-2.21-3.87-4-8.78-3.09s-6.7,3.36-7.73,6.17,2.2,9.93,2.2,9.93a5.5,5.5,0,0,0,6.5,3.67l5.61-1.3c2.92-.68,4.26-3.33,4-6.12C150.53,166.36,150.57,159.16,148.69,157.1Z"/></g></g><g id="g4413"><path id="path4415" class="cls-1" d="M22.8,116.89c2.74-3.33,10.08-5.56,16.61-.11,7,5.81,5.64,14.16,2.56,17.18L28.35,149.13s-7.24,2.81-13.13-1.68-5.09-12.22-5.09-12.22c3.52-6.38,8.73-12.94,12.68-18.34h0Z"/><path id="path4417" class="cls-1" d="M8.67,137.67s1.43-7.3,12.64-5.19,9.89,9.43,9.89,9.43l-8.27,21.34c-3.3,7.43-17.28,3.19-16.86-3.94Z"/><g id="g4419"><path id="path4421" class="cls-1" d="M20,158.64a3.07,3.07,0,0,1,3.79,1.59l3.44,8.54a2.4,2.4,0,0,1-4.31,2.09l-4.64-8A3.07,3.07,0,0,1,20,158.64h0Z"/><path id="path4423" class="cls-1" d="M17,167.38a2.4,2.4,0,0,1,3.69,1.82l0.42,8.91a2,2,0,0,1-4,.37l-1.21-8.84A2.39,2.39,0,0,1,17,167.38h0Z"/><path id="path4425" class="cls-1" d="M13.46,168.55A2.4,2.4,0,0,1,16.78,171l-1.12,8.85a2,2,0,1,1-4-.33L12,170.59a2.39,2.39,0,0,1,1.45-2h0Z"/><path id="path4427" class="cls-1" d="M9.68,167.34A2.4,2.4,0,0,1,12.84,170l-1.68,8.76a2,2,0,1,1-4-.58l0.9-8.88a2.39,2.39,0,0,1,1.58-1.94h0Z"/><path id="path4429" class="cls-1" d="M6.2,164.25a2.22,2.22,0,0,1,2.74,2.66l-2.15,8a1.86,1.86,0,0,1-3.62-.81l1.44-8.14a2.22,2.22,0,0,1,1.59-1.69h0Z"/><path id="path4431" class="cls-1" d="M6.7,157.1c2-2.21,3.87-4,8.78-3.09s6.7,3.36,7.73,6.17-2.2,9.93-2.2,9.93a5.5,5.5,0,0,1-6.5,3.67l-5.61-1.3c-2.92-.68-4.26-3.33-4-6.12C4.86,166.36,4.82,159.16,6.7,157.1Z"/></g></g></g><g id="g4433"><path id="path4435" class="cls-1" d="M101.4,178.07l9.15,1.27c4.76,0.66,7.48,4.7,7.32,9.19l-1.16,31.65c-0.15,4-4.54,5-8.84,5l-13.12,0c-4.3,0-7-4.23-6.55-8.23l3.34-32c0.46-4.46,5.11-7.47,9.87-6.81h0Z"/><path id="path4437" class="cls-1" d="M54,178.07l-9.15,1.27c-4.76.66-7.48,4.7-7.32,9.19l1.16,31.65c0.15,4,4.54,5,8.84,5l13.12,0c4.3,0,7-4.23,6.55-8.23l-3.34-32c-0.46-4.46-5.11-7.47-9.87-6.81h0Z"/></g><path id="path4439" class="cls-2" d="M127.43,153.68c0,38.31-12.53,40.92-49.74,40.92S28,192,28,153.68,56.73,96.06,77.7,96.06,127.43,115.37,127.43,153.68Z"/><path id="path4441" class="cls-3" d="M119.38,158.1c0,27.57-10.5,29.45-41.68,29.45S36,185.67,36,158.1s18.11-56.46,41.68-56.46,41.68,28.88,41.68,56.46h0Z"/><path id="path4443" class="cls-1" d="M77.7,96.06c-16.17,0-37,11.5-45.64,34.33a226.31,226.31,0,0,0,45.64,4.46,226.31,226.31,0,0,0,45.64-4.46C114.67,107.56,93.87,96.06,77.7,96.06Z"/><g id="g4445"><g id="g4447"><g id="g4449"><ellipse id="ellipse4451" class="cls-4" cx="19.89" cy="20.97" rx="19.89" ry="16.37"/><ellipse id="ellipse4453" cx="19.89" cy="20.97" rx="14.1" ry="11.61"/></g><g id="g4455"><ellipse id="ellipse4457" class="cls-4" cx="135.51" cy="20.97" rx="19.89" ry="16.37"/><ellipse id="ellipse4459" cx="135.51" cy="20.97" rx="14.1" ry="11.61"/></g></g><ellipse id="ellipse4461" class="cls-2" cx="77.7" cy="61.83" rx="77.51" ry="61.83"/><ellipse id="ellipse4463" class="cls-3" cx="77.7" cy="59.41" rx="72.24" ry="56.94"/><g id="g4465"><path id="path4467" class="cls-1" d="M89.18,68.36c3.82,10.41,13.18,16.2,20.9,12.93S120.78,70,117,59.61s-8.5-17.94-20.71-18.34c-13.77-.45-10.89,16.68-7.07,27.09h0Z"/><path id="path4469" class="cls-1" d="M66.21,68.36C62.39,78.77,53,84.56,45.31,81.29S34.61,70,38.43,59.61s8.5-17.94,20.71-18.34C72.91,40.81,70,57.95,66.21,68.36h0Z"/></g><path id="path4471" class="cls-5" d="M77.67,73a1.88,1.88,0,0,0-1.89,1.88V88.77a1.92,1.92,0,0,0,3.84,0s0,0,0,0V74.89A1.88,1.88,0,0,0,77.73,73H77.67Z"/><path id="path4473" class="cls-5" d="M61.73,85.44a1.7,1.7,0,0,0-1.22,2.84,35.91,35.91,0,0,0,3,3c1.71,1.52,3.65,3.29,6.23,3.29,2.27,0,4.3-1.22,6-2.3a18.24,18.24,0,0,0,1.94-1.39,18.32,18.32,0,0,0,1.94,1.39c1.71,1.08,3.74,2.3,6,2.3,2.58,0,4.52-1.77,6.23-3.29a35.91,35.91,0,0,0,3-3A1.7,1.7,0,0,0,92.34,86l0,0a32.92,32.92,0,0,1-2.69,2.7,11.84,11.84,0,0,1-4,2.43,11.73,11.73,0,0,1-4.19-1.78,29.56,29.56,0,0,1-2.68-1.92l-1.08-.89-1.08.89a29.55,29.55,0,0,1-2.68,1.92,11.73,11.73,0,0,1-4.19,1.78,11.85,11.85,0,0,1-4-2.43,32.92,32.92,0,0,1-2.69-2.7,1.7,1.7,0,0,0-1.35-.61h0Z"/><path id="path4475" class="cls-5" d="M72.16,100.07a2.1,2.1,0,0,0-2.27,1.87,2.08,2.08,0,0,0,2.21,1.92H83.24A2.1,2.1,0,0,0,85.51,102a2.08,2.08,0,0,0-2.21-1.92H72.16Z"/><g id="g4477"><g id="g4479"><circle id="circle4481" class="cls-6" cx="58" cy="59.85" r="7.11"/><circle id="circle4483" cx="58.07" cy="59.85" r="5.13"/><circle id="circle4485" class="cls-6" cx="59.72" cy="57.3" r="1.55"/></g><g id="g4487"><circle id="circle4489" class="cls-6" cx="97.4" cy="59.85" r="7.11"/><circle id="circle4491" cx="97.46" cy="59.85" r="5.13"/><circle id="circle4493" class="cls-6" cx="99.12" cy="57.3" r="1.55"/></g></g><g id="g4495"><path id="path4497" d="M89.07,75.33c0,4.39-5.09,7.45-11.38,7.45s-11.38-3.06-11.38-7.45S69.68,70,77.7,70,89.07,70.93,89.07,75.33Z"/><rect id="rect4499" class="cls-6" x="81.3" y="71.32" width="3.93" height="2.7" rx="1.19" ry="1.19"/></g><g id="g4501"><path id="path4503" d="M50,24.54a20.3,20.3,0,0,1,6.46-.78,4.18,4.18,0,1,1-.23,8.36H56.16a9.31,9.31,0,0,0-6.84,2,4.18,4.18,0,0,1-5.42-6.37l0.1-.08a16.86,16.86,0,0,1,6-3.17h0Z"/><path id="path4505" d="M105.39,24.54a20.3,20.3,0,0,0-6.46-.78,4.18,4.18,0,1,0,.23,8.36h0.07a9.31,9.31,0,0,1,6.84,2,4.18,4.18,0,0,0,5.42-6.37l-0.1-.08a16.86,16.86,0,0,0-6-3.17h0Z"/></g></g></g></g></svg>