<?xml version="1.0" encoding="utf-8"?>
<!-- Generator: Adobe Illustrator 19.2.0, SVG Export Plug-In . SVG Version: 6.00 Build 0)  -->
<svg version="1.1" id="svg26943" xmlns="http://www.w3.org/2000/svg" xmlns:xlink="http://www.w3.org/1999/xlink" x="0px" y="0px"
	 viewBox="0 0 155.4 225.2" style="enable-background:new 0 0 155.4 225.2;" xml:space="preserve">
<style type="text/css">
	.st0{fill:#1F2B39;}
	.st1{fill:#F2B453;}
	.st2{fill:#FCC97E;}
	.st3{fill:#2A3D51;}
	.st4{fill:#FFFFFF;}
</style>
<title>STANDARD</title>
<g id="g28973">
	<g id="g4389">
		<g id="g4391">
			<g id="g4393">
				<path id="path4395" class="st0" d="M132.6,116.9c-2.7-3.3-10.1-5.6-16.6-0.1c-7,5.8-5.6,14.2-2.6,17.2l13.6,15.2
					c0,0,7.2,2.8,13.1-1.7s5.1-12.2,5.1-12.2C141.7,128.8,136.5,122.3,132.6,116.9L132.6,116.9L132.6,116.9z"/>
				<path id="path4397" class="st0" d="M146.7,137.7c0,0-1.4-7.3-12.6-5.2s-9.9,9.4-9.9,9.4l8.3,21.3c3.3,7.4,17.3,3.2,16.9-3.9
					L146.7,137.7z"/>
				<g id="g4399">
					<path id="path4401" class="st0" d="M135.4,158.6c-1.5-0.5-3.1,0.2-3.8,1.6l-3.4,8.5c-0.5,1.2,0.1,2.6,1.3,3.1
						c1.1,0.5,2.4,0,3-1l4.6-8c0.8-1.5,0.1-3.4-1.4-4.1C135.6,158.7,135.5,158.6,135.4,158.6L135.4,158.6L135.4,158.6z"/>
					<path id="path4403" class="st0" d="M138.4,167.4c-1.1-0.7-2.6-0.4-3.3,0.7c-0.2,0.3-0.3,0.7-0.4,1.1l-0.4,8.9
						c-0.1,1.1,0.7,2.1,1.8,2.2s2.1-0.7,2.2-1.8l1.2-8.8C139.6,168.7,139.2,167.9,138.4,167.4L138.4,167.4L138.4,167.4z"/>
					<path id="path4405" class="st0" d="M141.9,168.5c-1.2-0.5-2.6,0.1-3.1,1.3c-0.2,0.4-0.2,0.8-0.2,1.1l1.1,8.9
						c0.1,1.1,1.1,1.9,2.2,1.8c1.1-0.1,1.9-1.1,1.8-2.2l-0.3-8.9C143.3,169.7,142.8,168.9,141.9,168.5L141.9,168.5L141.9,168.5z"/>
					<path id="path4407" class="st0" d="M145.7,167.3c-1.2-0.4-2.6,0.2-3.1,1.4c-0.1,0.4-0.2,0.8-0.1,1.2l1.7,8.8
						c0.2,1.1,1.2,1.9,2.3,1.7c1.1-0.2,1.9-1.2,1.7-2.3l-0.9-8.9C147.2,168.4,146.6,167.6,145.7,167.3L145.7,167.3L145.7,167.3z"/>
					<path id="path4409" class="st0" d="M149.2,164.2c-1.2-0.3-2.4,0.4-2.7,1.6c-0.1,0.4-0.1,0.7,0,1.1l2.1,8c0.3,1,1.3,1.5,2.3,1.2
						c0.9-0.3,1.4-1.1,1.3-2l-1.4-8.1C150.6,165.1,150,164.5,149.2,164.2L149.2,164.2L149.2,164.2z"/>
					<path id="path4411" class="st0" d="M148.7,157.1c-2-2.2-3.9-4-8.8-3.1s-6.7,3.4-7.7,6.2s2.2,9.9,2.2,9.9
						c0.9,2.7,3.7,4.3,6.5,3.7l5.6-1.3c2.9-0.7,4.3-3.3,4-6.1C150.5,166.4,150.6,159.2,148.7,157.1z"/>
				</g>
			</g>
			<g id="g4413">
				<path id="path4415" class="st0" d="M22.8,116.9c2.7-3.3,10.1-5.6,16.6-0.1c7,5.8,5.6,14.2,2.6,17.2l-13.6,15.2
					c0,0-7.2,2.8-13.1-1.7s-5.1-12.2-5.1-12.2C13.6,128.8,18.9,122.3,22.8,116.9L22.8,116.9L22.8,116.9z"/>
				<path id="path4417" class="st0" d="M8.7,137.7c0,0,1.4-7.3,12.6-5.2s9.9,9.4,9.9,9.4l-8.3,21.3c-3.3,7.4-17.3,3.2-16.9-3.9
					L8.7,137.7z"/>
				<g id="g4419">
					<path id="path4421" class="st0" d="M20,158.6c1.5-0.5,3.1,0.2,3.8,1.6l3.4,8.5c0.5,1.2-0.1,2.6-1.3,3.1c-1.1,0.5-2.4,0-3-1
						l-4.6-8c-0.7-1.5-0.1-3.4,1.4-4.1C19.8,158.7,19.9,158.7,20,158.6L20,158.6z"/>
					<path id="path4423" class="st0" d="M17,167.4c1.1-0.7,2.6-0.4,3.3,0.7c0.2,0.3,0.3,0.7,0.4,1.1l0.4,8.9
						c0.1,1.1-0.7,2.1-1.8,2.2s-2.1-0.7-2.2-1.8l-1.2-8.8C15.8,168.7,16.2,167.9,17,167.4L17,167.4z"/>
					<path id="path4425" class="st0" d="M13.5,168.5c1.2-0.5,2.6,0.1,3.1,1.3c0.2,0.4,0.2,0.8,0.2,1.2l-1.1,8.9
						c-0.1,1.1-1.1,1.9-2.2,1.8c-1.1-0.1-1.9-1.1-1.8-2.2l0.3-8.9C12.1,169.7,12.6,168.9,13.5,168.5L13.5,168.5L13.5,168.5z"/>
					<path id="path4427" class="st0" d="M9.7,167.3c1.3-0.4,2.6,0.2,3.1,1.5c0.1,0.4,0.2,0.8,0.1,1.2l-1.7,8.8
						c-0.2,1.1-1.2,1.9-2.3,1.7c-1.1-0.2-1.9-1.2-1.7-2.3l0.9-8.9C8.2,168.4,8.8,167.7,9.7,167.3L9.7,167.3L9.7,167.3z"/>
					<path id="path4429" class="st0" d="M6.2,164.2c1.2-0.3,2.4,0.4,2.7,1.6c0.1,0.4,0.1,0.7,0,1.1l-2.2,8c-0.3,1-1.3,1.5-2.3,1.2
						c-0.9-0.3-1.4-1.1-1.3-2l1.4-8.1C4.8,165.1,5.4,164.5,6.2,164.2L6.2,164.2L6.2,164.2z"/>
					<path id="path4431" class="st0" d="M6.7,157.1c2-2.2,3.9-4,8.8-3.1s6.7,3.4,7.7,6.2s-2.2,9.9-2.2,9.9c-0.9,2.7-3.7,4.3-6.5,3.7
						l-5.6-1.3c-2.9-0.7-4.3-3.3-4-6.1C4.9,166.4,4.8,159.2,6.7,157.1z"/>
				</g>
			</g>
		</g>
		<g id="g4433">
			<path id="path4435" class="st0" d="M101.4,178.1l9.2,1.3c4.8,0.7,7.5,4.7,7.3,9.2l-1.2,31.6c-0.2,4-4.5,5-8.8,5H94.7
				c-4.3,0-7-4.2-6.6-8.2l3.3-32C92,180.5,96.6,177.5,101.4,178.1L101.4,178.1L101.4,178.1z"/>
			<path id="path4437" class="st0" d="M54,178.1l-9.2,1.3c-4.8,0.7-7.5,4.7-7.3,9.2l1.2,31.6c0.2,4,4.5,5,8.8,5h13.1
				c4.3,0,7-4.2,6.5-8.2l-3.3-32C63.4,180.5,58.7,177.5,54,178.1L54,178.1L54,178.1z"/>
		</g>
		<path id="path4439" class="st1" d="M127.4,153.7c0,38.3-12.5,40.9-49.7,40.9S28,192,28,153.7s28.7-57.6,49.7-57.6
			S127.4,115.4,127.4,153.7z"/>
		<path id="path4441" class="st2" d="M119.4,158.1c0,27.6-10.5,29.4-41.7,29.4S36,185.7,36,158.1s18.1-56.5,41.7-56.5
			S119.4,130.5,119.4,158.1L119.4,158.1L119.4,158.1z"/>
		<path id="path4443" class="st0" d="M77.7,96.1c-16.2,0-37,11.5-45.6,34.3c15,3,30.3,4.5,45.6,4.5c15.3,0.1,30.6-1.4,45.6-4.5
			C114.7,107.6,93.9,96.1,77.7,96.1z"/>
		<g id="g4445">
			<g id="g4447">
				<g id="g4449">
					<ellipse id="ellipse4451" class="st3" cx="19.9" cy="21" rx="19.9" ry="16.4"/>
					<ellipse id="ellipse4453" cx="19.9" cy="21" rx="14.1" ry="11.6"/>
				</g>
				<g id="g4455">
					<ellipse id="ellipse4457" class="st3" cx="135.5" cy="21" rx="19.9" ry="16.4"/>
					<ellipse id="ellipse4459" cx="135.5" cy="21" rx="14.1" ry="11.6"/>
				</g>
			</g>
			<ellipse id="ellipse4461" class="st1" cx="77.7" cy="61.8" rx="77.5" ry="61.8"/>
			<ellipse id="ellipse4463" class="st2" cx="77.7" cy="59.4" rx="72.2" ry="56.9"/>
			<g id="g4465">
				<path id="path4467" class="st0" d="M89.2,68.4c3.8,10.4,13.2,16.2,20.9,12.9S120.8,70,117,59.6s-8.5-17.9-20.7-18.3
					C82.5,40.8,85.4,57.9,89.2,68.4L89.2,68.4L89.2,68.4z"/>
				<path id="path4469" class="st0" d="M66.2,68.4C62.4,78.8,53,84.6,45.3,81.3S34.6,70,38.4,59.6s8.5-17.9,20.7-18.3
					C72.9,40.8,70,57.9,66.2,68.4L66.2,68.4z"/>
			</g>
			<path id="path4471" class="st1" d="M77.7,73c-1,0-1.9,0.8-1.9,1.9c0,0,0,0,0,0v13.9c0,1.1,0.9,1.9,1.9,1.9c1.1,0,1.9-0.9,1.9-1.9
				l0,0V74.9C79.6,73.9,78.8,73,77.7,73C77.7,73,77.7,73,77.7,73L77.7,73z"/>
			<path id="path4473" class="st1" d="M61.7,85.4c-0.9,0-1.7,0.8-1.7,1.7c0,0.4,0.2,0.8,0.4,1.1c0.9,1.1,1.9,2.1,3,3
				c1.7,1.5,3.6,3.3,6.2,3.3c2.3,0,4.3-1.2,6-2.3c0.7-0.4,1.3-0.9,1.9-1.4c0.6,0.5,1.3,1,1.9,1.4c1.7,1.1,3.7,2.3,6,2.3
				c2.6,0,4.5-1.8,6.2-3.3c1.1-0.9,2.1-1.9,3-3c0.6-0.7,0.4-1.8-0.3-2.4c-0.7-0.5-1.6-0.5-2.2,0.1l0,0c-0.8,1-1.7,1.9-2.7,2.7
				c-1.2,1.1-2.5,1.9-4,2.4c-1.5-0.3-2.9-0.9-4.2-1.8c-0.9-0.6-1.8-1.2-2.7-1.9l-1.1-0.9l-1.1,0.9c-0.9,0.7-1.8,1.3-2.7,1.9
				c-1.3,0.9-2.7,1.5-4.2,1.8c-1.5-0.5-2.8-1.4-4-2.4c-0.9-0.8-1.8-1.7-2.7-2.7C62.7,85.6,62.2,85.4,61.7,85.4L61.7,85.4L61.7,85.4z
				"/>
			<path id="path4475" class="st1" d="M72.2,100.1c-1.1-0.1-2.1,0.7-2.3,1.9c0.1,1.1,1.1,2,2.2,1.9h11.1c1.1,0.1,2.1-0.7,2.3-1.9
				c-0.1-1.1-1.1-2-2.2-1.9L72.2,100.1L72.2,100.1z"/>
			<g id="g4477">
				<g id="g4479">
					<circle id="circle4481" class="st4" cx="58" cy="59.8" r="7.1"/>
					<circle id="circle4483" cx="58.1" cy="59.8" r="5.1"/>
					<circle id="circle4485" class="st4" cx="59.7" cy="57.3" r="1.5"/>
				</g>
				<g id="g4487">
					<circle id="circle4489" class="st4" cx="97.4" cy="59.8" r="7.1"/>
					<circle id="circle4491" cx="97.5" cy="59.8" r="5.1"/>
					<circle id="circle4493" class="st4" cx="99.1" cy="57.3" r="1.6"/>
				</g>
			</g>
			<g id="g4495">
				<path id="path4497" d="M89.1,75.3c0,4.4-5.1,7.4-11.4,7.4s-11.4-3.1-11.4-7.4S69.7,70,77.7,70S89.1,70.9,89.1,75.3z"/>
				<path id="rect4499" class="st4" d="M82.5,71.3H84c0.7,0,1.2,0.5,1.2,1.2v0.3c0,0.7-0.5,1.2-1.2,1.2h-1.5c-0.7,0-1.2-0.5-1.2-1.2
					v-0.3C81.3,71.9,81.8,71.3,82.5,71.3z"/>
			</g>
			<g id="g4501">
				<path id="path4503" d="M50,24.5c2.1-0.6,4.3-0.9,6.5-0.8c2.3,0.1,4.1,2,4.1,4.3c-0.1,2.3-2,4.1-4.3,4.1l0,0h-0.1
					c-2.5-0.3-4.9,0.5-6.8,2c-1.8,1.5-4.4,1.3-5.9-0.5c-1.5-1.8-1.3-4.4,0.5-5.9l0.1-0.1C45.8,26.2,47.8,25.1,50,24.5L50,24.5
					L50,24.5z"/>
				<path id="path4505" d="M105.4,24.5c-2.1-0.6-4.3-0.9-6.5-0.8c-2.3,0.1-4.1,2-4.1,4.3c0.1,2.3,2,4.1,4.3,4.1h0.1
					c2.5-0.3,4.9,0.5,6.8,2c1.8,1.5,4.4,1.3,5.9-0.5c1.5-1.8,1.3-4.4-0.5-5.9l-0.1-0.1C109.6,26.2,107.6,25.1,105.4,24.5L105.4,24.5
					L105.4,24.5z"/>
			</g>
		</g>
	</g>
</g>
</svg>
