<svg id="svg26943" xmlns="http://www.w3.org/2000/svg" viewBox="0 0 155.94 225.17"><defs><style>.cls-1{fill:#1f2b39;}.cls-2{fill:#e1eaf3;}.cls-3{fill:#f1f5f9;}.cls-4{fill:#2a3d51;}.cls-5{fill:#aebac6;}.cls-6{fill:#fff;}.cls-7{fill:#8e625f;}.cls-8{fill:#485463;}</style></defs><title>6</title><g id="g28973"><g id="g5336"><path id="path5037" class="cls-1" d="M419.58,495.36c-3.76,1.22-8.12,6.74-5.65,14.14,2.63,7.89,10.19,9.55,13.81,7.94l23.54-6.81s5.26-5.71,3.23-12.84-9.51-9.2-9.51-9.2c-7.23.95-19.48,5.2-25.41,6.77h0Z" transform="translate(-303.64 -380)"/><g id="g5041"><path id="path5043" class="cls-1" d="M326.44,496.89c2.74-3.33,10.08-5.56,16.61-.11,7,5.81,5.64,14.16,2.56,17.18L332,529.13s-7.24,2.81-13.13-1.68-5.09-12.22-5.09-12.22c3.52-6.38,8.73-12.94,12.68-18.34h0Z" transform="translate(-303.64 -380)"/><path id="path5045" class="cls-1" d="M312.31,517.67s1.43-7.3,12.64-5.19,9.89,9.43,9.89,9.43l-8.27,21.34c-3.3,7.43-17.28,3.19-16.86-3.94Z" transform="translate(-303.64 -380)"/><g id="g5047"><path id="path5049" class="cls-1" d="M323.63,538.64a3.07,3.07,0,0,1,3.79,1.59l3.44,8.54a2.4,2.4,0,0,1-4.31,2.09l-4.64-8a3.07,3.07,0,0,1,1.72-4.27h0Z" transform="translate(-303.64 -380)"/><path id="path5051" class="cls-1" d="M320.65,547.38a2.4,2.4,0,0,1,3.69,1.82l0.42,8.91a2,2,0,0,1-4,.37l-1.21-8.84a2.39,2.39,0,0,1,1.08-2.26h0Z" transform="translate(-303.64 -380)"/><path id="path5053" class="cls-1" d="M317.1,548.55a2.4,2.4,0,0,1,3.32,2.43l-1.12,8.85a2,2,0,0,1-4-.33l0.34-8.91a2.4,2.4,0,0,1,1.45-2h0Z" transform="translate(-303.64 -380)"/><path id="path5055" class="cls-1" d="M313.32,547.34a2.4,2.4,0,0,1,3.16,2.64l-1.68,8.76a2,2,0,1,1-4-.58l0.9-8.88a2.39,2.39,0,0,1,1.58-1.94h0Z" transform="translate(-303.64 -380)"/><path id="path5057" class="cls-1" d="M309.83,544.25a2.22,2.22,0,0,1,2.74,2.66l-2.15,8a1.86,1.86,0,0,1-3.62-.81l1.44-8.14a2.22,2.22,0,0,1,1.59-1.69h0Z" transform="translate(-303.64 -380)"/><path id="path5059" class="cls-1" d="M310.34,537.1c2-2.21,3.87-4,8.78-3.09s6.7,3.36,7.73,6.17-2.2,9.93-2.2,9.93a5.5,5.5,0,0,1-6.5,3.67l-5.61-1.3c-2.92-.68-4.26-3.33-4-6.12C308.5,546.36,308.46,539.16,310.34,537.1Z" transform="translate(-303.64 -380)"/></g></g><g id="g5061"><path id="path5063" class="cls-1" d="M405,558.07l9.15,1.27c4.76,0.66,7.48,4.7,7.32,9.19l-1.16,31.65c-0.15,4-4.54,5-8.84,5l-13.12,0c-4.3,0-7-4.23-6.55-8.23l3.34-32c0.46-4.46,5.11-7.47,9.87-6.81h0Z" transform="translate(-303.64 -380)"/><path id="path5065" class="cls-1" d="M357.64,558.07l-9.15,1.27c-4.76.66-7.48,4.7-7.32,9.19l1.16,31.65c0.15,4,4.54,5,8.84,5l13.12,0c4.3,0,7-4.23,6.55-8.23l-3.34-32c-0.46-4.46-5.11-7.47-9.87-6.81h0Z" transform="translate(-303.64 -380)"/></g><path id="path5067" class="cls-2" d="M431.07,533.68c0,38.31-12.53,40.92-49.74,40.92S331.6,572,331.6,533.68s28.77-57.62,49.74-57.62S431.07,495.37,431.07,533.68Z" transform="translate(-303.64 -380)"/><path id="path5069" class="cls-3" d="M423,538.1c0,27.57-10.5,29.45-41.68,29.45s-41.68-1.88-41.68-29.45,18.11-56.46,41.68-56.46S423,510.52,423,538.1Z" transform="translate(-303.64 -380)"/><path id="path5071" class="cls-1" d="M381.34,476.06c-16.17,0-37,11.5-45.64,34.33a235.75,235.75,0,0,0,91.29,0C418.31,487.56,397.51,476.06,381.34,476.06Z" transform="translate(-303.64 -380)"/><g id="g5073"><g id="g5075"><ellipse id="ellipse5077" class="cls-4" cx="19.89" cy="20.97" rx="19.89" ry="16.37"/><ellipse id="ellipse5079" cx="19.89" cy="20.97" rx="14.1" ry="11.61"/></g><g id="g5081"><ellipse id="ellipse5083" class="cls-4" cx="135.51" cy="20.97" rx="19.89" ry="16.37"/><ellipse id="ellipse5085" cx="135.51" cy="20.97" rx="14.1" ry="11.61"/></g></g><ellipse id="ellipse5087" class="cls-2" cx="77.7" cy="61.83" rx="77.51" ry="61.83"/><ellipse id="ellipse5089" class="cls-3" cx="77.7" cy="59.41" rx="72.24" ry="56.94"/><g id="g5091"><path id="path5093" class="cls-1" d="M392.82,448.36c3.82,10.41,13.18,16.2,20.9,12.93s10.7-11.27,6.88-21.68-8.5-17.94-20.71-18.34c-13.77-.45-10.89,16.68-7.07,27.09h0Z" transform="translate(-303.64 -380)"/><path id="path5095" class="cls-1" d="M369.85,448.36c-3.82,10.41-13.18,16.2-20.9,12.93s-10.7-11.27-6.88-21.68,8.5-17.94,20.71-18.34c13.77-.45,10.89,16.68,7.07,27.09h0Z" transform="translate(-303.64 -380)"/></g><path id="path5097" class="cls-5" d="M381.31,453a1.88,1.88,0,0,0-1.89,1.88v13.88a1.92,1.92,0,0,0,3.84.05s0,0,0-.05V454.89a1.88,1.88,0,0,0-1.89-1.88h-0.06Z" transform="translate(-303.64 -380)"/><g id="g5099"><g id="g5101"><circle id="circle5103" class="cls-6" cx="58" cy="59.85" r="7.11"/><circle id="circle5105" cx="58.07" cy="59.85" r="5.13"/><circle id="circle5107" class="cls-6" cx="59.72" cy="57.3" r="1.55"/></g><g id="g5109"><circle id="circle5111" class="cls-6" cx="97.4" cy="59.85" r="7.11"/><circle id="circle5113" cx="97.46" cy="59.85" r="5.13"/><circle id="circle5115" class="cls-6" cx="99.12" cy="57.3" r="1.55"/></g></g><g id="g5117"><path id="path5119" d="M392.71,455.33c0,4.39-5.09,7.45-11.38,7.45S370,459.72,370,455.33s3.36-5.34,11.38-5.34S392.71,450.93,392.71,455.33Z" transform="translate(-303.64 -380)"/><rect id="rect5121" class="cls-6" x="81.3" y="71.32" width="3.93" height="2.7" rx="1.19" ry="1.19"/></g><g id="g5123"><path id="path5125" d="M353.64,404.54a20.3,20.3,0,0,1,6.46-.78,4.18,4.18,0,1,1-.23,8.36H359.8a9.31,9.31,0,0,0-6.84,2,4.18,4.18,0,0,1-5.42-6.37l0.1-.08a16.86,16.86,0,0,1,6-3.17h0Z" transform="translate(-303.64 -380)"/><path id="path5127" d="M409,404.54a20.3,20.3,0,0,0-6.46-.78,4.18,4.18,0,1,0,.23,8.36h0.07a9.31,9.31,0,0,1,6.84,2,4.18,4.18,0,0,0,5.42-6.37l-0.1-.08a16.86,16.86,0,0,0-6-3.17h0Z" transform="translate(-303.64 -380)"/></g><g id="g5129"><path id="path5131" class="cls-7" d="M362.43,468.45h37.82s-1.36,18.82-18.91,18.82-18.91-18.82-18.91-18.82h0Z" transform="translate(-303.64 -380)"/><path id="path5133" class="cls-6" d="M365.27,468.45V471s6,2.86,16.06,2.86S397.4,471,397.4,471v-2.6H365.27Z" transform="translate(-303.64 -380)"/></g><path id="path5039" class="cls-1" d="M433,496s-2.31,7.07,8.5,10.69,13.23-3.41,13.23-3.41l3.18-22.66c0.74-8.1-13.53-11.21-16.64-4.78Z" transform="translate(-303.64 -380)"/><g id="g5327"><path id="path5323" class="cls-1" d="M457.75,479.75c-2,2.22-3.85,4-8.77,3.13s-6.71-3.34-7.75-6.14,2.16-9.94,2.16-9.94a5.5,5.5,0,0,1,6.49-3.7l5.62,1.28c2.92,0.67,4.28,3.32,4.07,6.1,0,0,.07,7.2-1.8,9.27h0Z" transform="translate(-303.64 -380)"/><path id="path5287" class="cls-1" d="M449.69,470.31a1.93,1.93,0,0,0,1.18-2c-0.39-5.18-2.26-9.87-4.1-14.35a1.92,1.92,0,1,0-3.55,1.4l0,0.05c1.82,4.44,3.43,8.64,3.76,12.91a2.22,2.22,0,0,0,2.07,2.13A1.73,1.73,0,0,0,449.69,470.31Z" transform="translate(-303.64 -380)"/><path id="path5289" class="cls-1" d="M453.71,469.57a1.89,1.89,0,0,0,.94-1.58,29.83,29.83,0,0,0-.82-7.63,35.86,35.86,0,0,0-1.69-6,2.06,2.06,0,0,0-2.6-1.24,2,2,0,0,0-.93,2.69,40,40,0,0,1,1.41,5.12,28.34,28.34,0,0,1,.73,6.4,2.29,2.29,0,0,0,1.78,2.42,1.76,1.76,0,0,0,1.18-.18h0Z" transform="translate(-303.64 -380)"/><path id="path5291" class="cls-1" d="M457.25,471.07a1.89,1.89,0,0,0,.79-1.23c0.62-3.1,1.19-6.87-.26-10.55a2,2,0,0,0-2.52-1.26,2,2,0,0,0-1.06,2.58l0,0c0.9,2.3.62,5.25,0,8.14a2.16,2.16,0,0,0,1.47,2.51,1.81,1.81,0,0,0,1.53-.23h0Z" transform="translate(-303.64 -380)"/><path id="path5293" class="cls-1" d="M438.64,464.49c2.15-.73,4.87-0.26,7.43,1.74,1.88,1.47-.13,4.32-2,2.85s-3.21-1.52-4.24-1.17a2.66,2.66,0,0,0-2,1.78c-0.14,1.53-3.73,1.87-3.4-.64a6.68,6.68,0,0,1,4.24-4.57h0Z" transform="translate(-303.64 -380)"/><path id="path5295" class="cls-1" d="M434.46,472.15a1.61,1.61,0,0,1,3-.37,6.77,6.77,0,0,0,1.59,1.83c0.9,0.55,1.76.68,5,.38,2.34-.28,2.79,3.43.43,3.58-3.82.36-6.65-.45-8.43-2.18a4.32,4.32,0,0,1-1.57-3.24h0Z" transform="translate(-303.64 -380)"/><circle id="circle5325" class="cls-8" cx="450.79" cy="472.1" r="5.38" transform="translate(-350.58 -330.22) rotate(-6.01)"/></g></g></g></svg>