<?xml version="1.0" encoding="utf-8"?>
<!-- Generator: Adobe Illustrator 19.2.0, SVG Export Plug-In . SVG Version: 6.00 Build 0)  -->
<svg version="1.1" id="svg26943" xmlns="http://www.w3.org/2000/svg" xmlns:xlink="http://www.w3.org/1999/xlink" x="0px" y="0px"
	 viewBox="0 0 155.9 225.2" style="enable-background:new 0 0 155.9 225.2;" xml:space="preserve">
<style type="text/css">
	.st0{fill:#1F2B39;}
	.st1{fill:#F2B453;}
	.st2{fill:#FCC97E;}
	.st3{fill:#2A3D51;}
	.st4{fill:#FFFFFF;}
	.st5{fill:#8E625F;}
	.st6{fill:#485463;}
</style>
<title>6</title>
<g id="g28973">
	<g id="g5336">
		<path id="path5037" class="st0" d="M115.9,115.4c-3.8,1.2-8.1,6.7-5.6,14.1c2.6,7.9,10.2,9.5,13.8,7.9l23.5-6.8
			c0,0,5.3-5.7,3.2-12.8s-9.5-9.2-9.5-9.2C134.1,109.5,121.9,113.8,115.9,115.4L115.9,115.4L115.9,115.4z"/>
		<g id="g5041">
			<path id="path5043" class="st0" d="M22.8,116.9c2.7-3.3,10.1-5.6,16.6-0.1c7,5.8,5.6,14.2,2.6,17.2l-13.6,15.2
				c0,0-7.2,2.8-13.1-1.7s-5.1-12.2-5.1-12.2C13.7,128.9,18.9,122.3,22.8,116.9L22.8,116.9L22.8,116.9z"/>
			<path id="path5045" class="st0" d="M8.7,137.7c0,0,1.4-7.3,12.6-5.2s9.9,9.4,9.9,9.4l-8.3,21.3c-3.3,7.4-17.3,3.2-16.9-3.9
				L8.7,137.7z"/>
			<g id="g5047">
				<path id="path5049" class="st0" d="M20,158.6c1.5-0.5,3.1,0.2,3.8,1.6l3.4,8.5c0.5,1.2-0.1,2.6-1.3,3.1c-1.1,0.5-2.4,0-3-1
					l-4.6-8c-0.8-1.5-0.1-3.4,1.4-4.1C19.8,158.7,19.9,158.6,20,158.6L20,158.6L20,158.6z"/>
				<path id="path5051" class="st0" d="M17,167.4c1.1-0.7,2.6-0.4,3.3,0.7c0.2,0.3,0.3,0.7,0.4,1.1l0.4,8.9c0.1,1.1-0.7,2.1-1.8,2.2
					s-2.1-0.7-2.2-1.8l-1.2-8.8C15.8,168.7,16.2,167.9,17,167.4L17,167.4L17,167.4z"/>
				<path id="path5053" class="st0" d="M13.5,168.5c1.2-0.5,2.6,0.1,3.1,1.3c0.2,0.4,0.2,0.8,0.2,1.1l-1.1,8.8
					c-0.1,1.1-1.1,1.9-2.2,1.8c-1.1-0.1-1.9-1.1-1.8-2.2l0.3-8.9C12.1,169.7,12.6,168.9,13.5,168.5L13.5,168.5L13.5,168.5z"/>
				<path id="path5055" class="st0" d="M9.7,167.3c1.3-0.4,2.6,0.2,3.1,1.5c0.1,0.4,0.2,0.8,0.1,1.2l-1.7,8.8
					c-0.2,1.1-1.2,1.9-2.3,1.7c-1.1-0.2-1.9-1.2-1.7-2.3l0.9-8.9C8.2,168.4,8.8,167.6,9.7,167.3L9.7,167.3L9.7,167.3z"/>
				<path id="path5057" class="st0" d="M6.2,164.2c1.2-0.3,2.4,0.4,2.7,1.6c0.1,0.4,0.1,0.7,0,1.1l-2.1,8c-0.3,1-1.3,1.5-2.3,1.2
					c-0.9-0.3-1.4-1.1-1.3-2l1.4-8.1C4.8,165.1,5.4,164.5,6.2,164.2L6.2,164.2L6.2,164.2z"/>
				<path id="path5059" class="st0" d="M6.7,157.1c2-2.2,3.9-4,8.8-3.1s6.7,3.4,7.7,6.2s-2.2,9.9-2.2,9.9c-0.9,2.7-3.7,4.3-6.5,3.7
					l-5.6-1.3c-2.9-0.7-4.3-3.3-4-6.1C4.9,166.4,4.8,159.2,6.7,157.1z"/>
			</g>
		</g>
		<g id="g5061">
			<path id="path5063" class="st0" d="M101.4,178.1l9.1,1.3c4.8,0.7,7.5,4.7,7.3,9.2l-1.2,31.7c-0.1,4-4.5,5-8.8,5H94.7
				c-4.3,0-7-4.2-6.5-8.2l3.3-32C92,180.5,96.6,177.5,101.4,178.1L101.4,178.1L101.4,178.1z"/>
			<path id="path5065" class="st0" d="M54,178.1l-9.1,1.3c-4.8,0.7-7.5,4.7-7.3,9.2l1.2,31.7c0.1,4,4.5,5,8.8,5h13.1
				c4.3,0,7-4.2,6.5-8.2l-3.3-32C63.4,180.5,58.8,177.5,54,178.1L54,178.1L54,178.1z"/>
		</g>
		<path id="path5067" class="st1" d="M127.4,153.7c0,38.3-12.5,40.9-49.7,40.9S28,192,28,153.7s28.8-57.6,49.7-57.6
			S127.4,115.4,127.4,153.7z"/>
		<path id="path5069" class="st2" d="M119.4,158.1c0,27.6-10.5,29.5-41.7,29.5S36,185.7,36,158.1s18.1-56.5,41.7-56.5
			S119.4,130.5,119.4,158.1z"/>
		<path id="path5071" class="st0" d="M77.7,96.1c-16.2,0-37,11.5-45.6,34.3c30.1,5.9,61.2,5.9,91.3,0
			C114.7,107.6,93.9,96.1,77.7,96.1z"/>
		<g id="g5073">
			<g id="g5075">
				<ellipse id="ellipse5077" class="st3" cx="19.9" cy="21" rx="19.9" ry="16.4"/>
				<ellipse id="ellipse5079" cx="19.9" cy="21" rx="14.1" ry="11.6"/>
			</g>
			<g id="g5081">
				<ellipse id="ellipse5083" class="st3" cx="135.5" cy="21" rx="19.9" ry="16.4"/>
				<ellipse id="ellipse5085" cx="135.5" cy="21" rx="14.1" ry="11.6"/>
			</g>
		</g>
		<ellipse id="ellipse5087" class="st1" cx="77.7" cy="61.8" rx="77.5" ry="61.8"/>
		<ellipse id="ellipse5089" class="st2" cx="77.7" cy="59.4" rx="72.2" ry="56.9"/>
		<g id="g5091">
			<path id="path5093" class="st0" d="M89.2,68.4c3.8,10.4,13.2,16.2,20.9,12.9S120.8,70,117,59.6s-8.5-17.9-20.7-18.3
				C82.5,40.8,85.4,57.9,89.2,68.4L89.2,68.4z"/>
			<path id="path5095" class="st0" d="M66.2,68.4C62.4,78.8,53,84.6,45.3,81.3S34.6,70,38.4,59.6s8.5-17.9,20.7-18.3
				C72.9,40.8,70,57.9,66.2,68.4L66.2,68.4z"/>
		</g>
		<path id="path5097" class="st1" d="M77.7,73c-1,0-1.9,0.8-1.9,1.9c0,0,0,0,0,0v13.9c0,1.1,0.8,1.9,1.9,1.9c1.1,0,1.9-0.8,1.9-1.9
			c0,0,0,0,0,0V74.9C79.6,73.9,78.8,73,77.7,73C77.7,73,77.7,73,77.7,73L77.7,73L77.7,73z"/>
		<g id="g5099">
			<g id="g5101">
				<circle id="circle5103" class="st4" cx="58" cy="59.8" r="7.1"/>
				<circle id="circle5105" cx="58.1" cy="59.8" r="5.1"/>
				<circle id="circle5107" class="st4" cx="59.7" cy="57.3" r="1.5"/>
			</g>
			<g id="g5109">
				<circle id="circle5111" class="st4" cx="97.4" cy="59.8" r="7.1"/>
				<circle id="circle5113" cx="97.5" cy="59.8" r="5.1"/>
				<circle id="circle5115" class="st4" cx="99.1" cy="57.3" r="1.6"/>
			</g>
		</g>
		<g id="g5117">
			<path id="path5119" d="M89.1,75.3c0,4.4-5.1,7.5-11.4,7.5s-11.3-3.1-11.3-7.5S69.7,70,77.7,70S89.1,70.9,89.1,75.3z"/>
			<path id="rect5121" class="st4" d="M82.5,71.3H84c0.7,0,1.2,0.5,1.2,1.2v0.3c0,0.7-0.5,1.2-1.2,1.2h-1.5c-0.7,0-1.2-0.5-1.2-1.2
				v-0.3C81.3,71.9,81.8,71.3,82.5,71.3z"/>
		</g>
		<g id="g5123">
			<path id="path5125" d="M50,24.5c2.1-0.6,4.3-0.9,6.5-0.8c2.3,0.1,4.1,2,4.1,4.3c-0.1,2.3-2,4.1-4.3,4.1l0,0h-0.1
				c-2.5-0.3-4.9,0.5-6.8,2c-1.8,1.5-4.4,1.3-5.9-0.5c-1.5-1.8-1.3-4.4,0.5-5.9l0,0l0.1-0.1C45.8,26.2,47.8,25.1,50,24.5L50,24.5
				L50,24.5z"/>
			<path id="path5127" d="M105.4,24.5c-2.1-0.6-4.3-0.9-6.5-0.8c-2.3,0.1-4.1,2-4.1,4.3c0.1,2.3,2,4.1,4.3,4.1l0,0h0.1
				c2.5-0.3,4.9,0.5,6.8,2c1.8,1.5,4.4,1.3,5.9-0.5c1.5-1.8,1.3-4.4-0.5-5.9l-0.1-0.1C109.6,26.2,107.6,25.1,105.4,24.5L105.4,24.5
				L105.4,24.5z"/>
		</g>
		<g id="g5129">
			<path id="path5131" class="st5" d="M58.8,88.4h37.8c0,0-1.4,18.8-18.9,18.8S58.8,88.4,58.8,88.4L58.8,88.4z"/>
			<path id="path5133" class="st4" d="M61.6,88.4V91c0,0,6,2.9,16.1,2.9S93.8,91,93.8,91v-2.6L61.6,88.4L61.6,88.4z"/>
		</g>
		<path id="path5039" class="st0" d="M129.4,116c0,0-2.3,7.1,8.5,10.7s13.2-3.4,13.2-3.4l3.2-22.7c0.7-8.1-13.5-11.2-16.6-4.8
			L129.4,116z"/>
		<g id="g5327">
			<path id="path5323" class="st0" d="M154.1,99.7c-2,2.2-3.9,4-8.8,3.1s-6.7-3.3-7.8-6.1s2.2-9.9,2.2-9.9c0.9-2.7,3.7-4.4,6.5-3.7
				l5.6,1.3c2.9,0.7,4.3,3.3,4.1,6.1C155.9,90.5,156,97.7,154.1,99.7L154.1,99.7L154.1,99.7z"/>
			<path id="path5287" class="st0" d="M146,90.3c0.8-0.3,1.3-1.1,1.2-2c-0.4-5.2-2.3-9.9-4.1-14.4c-0.3-1-1.3-1.6-2.4-1.4
				c-1,0.3-1.6,1.3-1.4,2.4c0,0.1,0.1,0.3,0.2,0.4v0c1.8,4.4,3.4,8.6,3.8,12.9c0,1.1,0.9,2.1,2.1,2.1
				C145.6,90.4,145.8,90.4,146,90.3z"/>
			<path id="path5289" class="st0" d="M150.1,89.6c0.6-0.3,0.9-0.9,0.9-1.6c0.1-2.6-0.2-5.1-0.8-7.6c-0.4-2-1-4.1-1.7-6
				c-0.4-1.1-1.5-1.6-2.6-1.2c-1,0.5-1.4,1.7-0.9,2.7c0,0,0,0,0,0c0.6,1.7,1.1,3.4,1.4,5.1c0.5,2.1,0.7,4.2,0.7,6.4
				c-0.1,1.1,0.7,2.2,1.8,2.4C149.3,89.8,149.7,89.8,150.1,89.6L150.1,89.6L150.1,89.6z"/>
			<path id="path5291" class="st0" d="M153.6,91.1c0.4-0.3,0.7-0.7,0.8-1.2c0.6-3.1,1.2-6.9-0.3-10.5c-0.4-1-1.5-1.6-2.5-1.3
				c-1,0.4-1.5,1.6-1.1,2.6l0,0c0.9,2.3,0.6,5.2,0,8.1c-0.2,1.1,0.4,2.2,1.5,2.5C152.5,91.4,153.1,91.3,153.6,91.1L153.6,91.1
				L153.6,91.1z"/>
			<path id="path5293" class="st0" d="M135,84.5c2.1-0.7,4.9-0.3,7.4,1.7c1.9,1.5-0.1,4.3-2,2.9s-3.2-1.5-4.2-1.2
				c-0.9,0.2-1.7,0.9-2,1.8c-0.1,1.5-3.7,1.9-3.4-0.6C131.4,86.9,132.9,85.2,135,84.5L135,84.5L135,84.5z"/>
			<path id="path5295" class="st0" d="M130.8,92.1c0.2-0.9,1.1-1.4,1.9-1.2c0.5,0.1,0.9,0.4,1.1,0.8c0.4,0.7,1,1.3,1.6,1.8
				c0.9,0.5,1.8,0.7,5,0.4c2.3-0.3,2.8,3.4,0.4,3.6c-3.8,0.4-6.6-0.5-8.4-2.2C131.4,94.6,130.9,93.4,130.8,92.1L130.8,92.1
				L130.8,92.1z"/>
			
				<ellipse id="circle5325" transform="matrix(0.9945 -0.1047 0.1047 0.9945 -8.8328 15.9143)" class="st6" cx="147.2" cy="92.1" rx="5.4" ry="5.4"/>
		</g>
	</g>
</g>
</svg>
