<svg id="Laag_1" data-name="Laag 1" xmlns="http://www.w3.org/2000/svg" viewBox="0 0 137.35 163.33"><defs><style>.cls-1{fill:#eae8e5;}.cls-2{fill:#54b5d0;}.cls-3{fill:#08724b;}.cls-4{fill:#fac594;}.cls-5{fill:#eab78b;}.cls-6{fill:#b47038;}.cls-7{fill:#44ad43;}</style></defs><title>add_user</title><rect class="cls-1" width="121.27" height="149.8" rx="4.2" ry="4.2"/><rect class="cls-2" x="3.73" y="4.04" width="113.8" height="141.71" rx="2.87" ry="2.87"/><path class="cls-3" d="M100.9,121.71v24H20.37v-24a21.44,21.44,0,0,1,21.42-21.42,9.49,9.49,0,0,0,1-.05,19.11,19.11,0,0,0,35.68,0h0a9.45,9.45,0,0,0,1,.05A21.41,21.41,0,0,1,100.9,121.71Z"/><path class="cls-4" d="M60.64,112.5a19.12,19.12,0,0,0,17.84-12.26,9.71,9.71,0,0,1-8.69-9.65V77.72H51.49V90.59a9.71,9.71,0,0,1-8.69,9.65A19.12,19.12,0,0,0,60.64,112.5Z"/><path class="cls-5" d="M69.79,77.72v13a16.32,16.32,0,0,1-8.65,2.64,16.9,16.9,0,0,1-9.66-3.3V77.72h18.3Z"/><path class="cls-4" d="M90.82,49a5.91,5.91,0,0,0-.62-0.1,39.36,39.36,0,0,0,.22-4c0-16.62-12.66-30.1-29.28-30.1S31.86,28.36,31.86,45a39.36,39.36,0,0,0,.22,4,5.91,5.91,0,0,0-.62.1c-3.9.85-6.19,5.46-5.14,10.29s5.07,8,9,7.19a5.89,5.89,0,0,0,1.21-.42c5.13,12.76,14.08,24.42,24.63,24.42s19.5-11.66,24.63-24.42a5.89,5.89,0,0,0,1.21.42c3.9,0.85,7.91-2.37,9-7.19S94.72,49.9,90.82,49Z"/><path class="cls-6" d="M81.59,16.51A48.9,48.9,0,0,0,61,12.68a48.9,48.9,0,0,0-20.56,3.82C28.6,21.66,27.65,35.95,30.32,46c0,0,0,0,0,.06A10.79,10.79,0,0,0,31,48.2h0L31.26,49l2.27,1.76,3.21,2.72a60.77,60.77,0,0,1,1.37-15.31c3,0.76,9.1-.58,13.38-2.87,0,1.57-5.86,4.49-5.86,4.49,5.86,1.35,24.17-2.24,31.17-14,0.07,0,1.62-.1,1.69-0.05,9.5,6.55,6.85,27.71,6.85,27.71l3.16-2.68L90.83,49c0.11-.31.22-0.63,0.33-1a10.4,10.4,0,0,0,.55-1.81s0,0,0,0C94.43,36.14,93.56,21.7,81.59,16.51Z"/><circle class="cls-7" cx="107.92" cy="133.9" r="29.43"/><path class="cls-1" d="M123.54,130.6H111.21V118.27a3.3,3.3,0,1,0-6.6,0V130.6H92.29a3.3,3.3,0,1,0,0,6.6h12.32v12.32a3.3,3.3,0,0,0,6.6,0V137.19h12.32A3.3,3.3,0,1,0,123.54,130.6Z"/></svg>