<svg id="Laag_1" data-name="Laag 1" xmlns="http://www.w3.org/2000/svg" viewBox="0 0 161.26 143.25"><defs><style>.cls-1{fill:#ee7265;}.cls-2{fill:#d4554e;}</style></defs><title>back</title><path class="cls-1" d="M74.15,37.89h0V5.14c0-5.36-3.17-6.76-7.1-3.1L42.19,25.23c-3.92,3.66-10.37,9.61-14.32,13.23L3,61.22A8.77,8.77,0,0,0,3,74.38L27.87,97.13c4,3.62,10.4,9.57,14.32,13.23L67,133.55c3.92,3.66,7.11,2.27,7.1-3.09V94.56h0c39.6-1.11,63.39,15.17,73.58,38.37s13.58,0,13.58,0C161.26,47.84,74.15,37.89,74.15,37.89Z"/><path class="cls-2" d="M74.17,94.69l0.09,0.12Z"/><path class="cls-2" d="M74.08,94.56l0,0Z"/><path class="cls-2" d="M74.1,94.58l0.08,0.1Z"/><path class="cls-2" d="M78.48,69.54C43.32,67.73,16.82,67.91,0,68.43a8.91,8.91,0,0,0,2.94,5.95L27.83,97.13c4,3.62,10.4,9.57,14.32,13.23L67,133.55c3.92,3.66,7.11,2.27,7.1-3.09V94.56c39.6-1.11,63.39,15.17,73.57,38.37,4,9,6.9,11,9,10.09C152.25,109,129.83,72.17,78.48,69.54Z"/><path class="cls-2" d="M74.26,94.81l0.24,0.32Z"/><path class="cls-2" d="M74.5,95.13h0Z"/></svg>