<svg id="Layer_1" data-name="Layer 1" xmlns="http://www.w3.org/2000/svg" viewBox="0 0 54.62 55.05"><defs><style>.cls-1{fill:#8dc63f;}</style></defs><title>bamboo</title><path class="cls-1" d="M43.15,32.29a51.47,51.47,0,0,0-11,1.8,33.81,33.81,0,0,0,11.43,1.37,36.19,36.19,0,0,0,11-2.36A48.1,48.1,0,0,0,43.15,32.29Z"/><path class="cls-1" d="M53.28,22.53a50,50,0,0,0-11.21,4.25,60.91,60.91,0,0,0-9.93,6.59,35.88,35.88,0,0,0,11.47-3.72A41.41,41.41,0,0,0,53.28,22.53Z"/><path class="cls-1" d="M39,27.1a22.79,22.79,0,0,0,4.57-7.32,23.81,23.81,0,0,0-6.71,4.89A29.72,29.72,0,0,0,32,31.77,19.74,19.74,0,0,0,39,27.1Z"/><path class="cls-1" d="M8,6.91a29.84,29.84,0,0,0,3.95,8.86,21.89,21.89,0,0,0,6.64,6.31,46.2,46.2,0,0,0-4.43-8.61A27.86,27.86,0,0,0,8,6.91Z"/><path class="cls-1" d="M0,13.87a29.44,29.44,0,0,0,8.14,6,27.32,27.32,0,0,0,10,2.71A42.93,42.93,0,0,0,9.71,17,36.83,36.83,0,0,0,0,13.87Z"/><path class="cls-1" d="M1.82,22.84a17,17,0,0,0,7.24,2.21,19.52,19.52,0,0,0,8-1.21A20.71,20.71,0,0,0,9.86,22,25.32,25.32,0,0,0,1.82,22.84Z"/><path class="cls-1" d="M20.1,12.6c0,3.84-.14,6.71-0.41,10.47a0.66,0.66,0,0,0,.66.61c1.31,0,2,.49,3.28.49a0.66,0.66,0,0,0,.67-0.61c-0.27-3.76-.42-7.12-0.42-11H20.1Z"/><path class="cls-1" d="M23.63,25.07c-1.31,0-2-.49-3.28-0.49a0.66,0.66,0,0,0-.66.61c0.26,3.39.39,5.66,0.41,8.88,0,3.66-.15,7-0.41,10.6a0.66,0.66,0,0,0,.66.61c1.31,0,2-.49,3.28-0.49a0.66,0.66,0,0,0,.67-0.61C24,40.53,23.89,37.71,23.88,34c0-3.21.16-5,.42-8.36A0.67,0.67,0,0,0,23.63,25.07Z"/><path class="cls-1" d="M23.63,45.68c-1.31,0-2,.49-3.28.49a0.66,0.66,0,0,0-.66.61,71.68,71.68,0,0,1,.41,8h3.77a80.61,80.61,0,0,1,.43-8.52A0.66,0.66,0,0,0,23.63,45.68Z"/><path class="cls-1" d="M27,0a60,60,0,0,1-.41,6.83,0.6,0.6,0,0,0,.66.4c1.31,0,2,.32,3.28.32a0.6,0.6,0,0,0,.67-0.4A65.34,65.34,0,0,1,30.73,0H27Z"/><path class="cls-1" d="M30.49,8.13c-1.32,0-2-.32-3.28-0.32a0.6,0.6,0,0,0-.66.4A48.66,48.66,0,0,1,27,14a66.37,66.37,0,0,1-.41,6.91,0.6,0.6,0,0,0,.66.4c1.31,0,2-.32,3.28-0.32a0.6,0.6,0,0,0,.67-0.4A60.45,60.45,0,0,1,30.74,14a43.42,43.42,0,0,1,.42-5.45A0.61,0.61,0,0,0,30.49,8.13Z"/><path class="cls-1" d="M30.49,21.57c-1.32,0-2,.32-3.28.32a0.6,0.6,0,0,0-.66.4A30.7,30.7,0,0,1,27,27.52a60,60,0,0,1-.41,6.83,0.59,0.59,0,0,0,.66.4c1.31,0,2,.32,3.28.32a0.61,0.61,0,0,0,.67-0.4,65.56,65.56,0,0,1-.43-7.15h0A34.45,34.45,0,0,1,31.16,22,0.6,0.6,0,0,0,30.49,21.57Z"/><path class="cls-1" d="M30.49,35.66c-1.32,0-2-.32-3.28-0.32a0.6,0.6,0,0,0-.66.4,48.69,48.69,0,0,1,.41,5.8,66.37,66.37,0,0,1-.41,6.91,0.6,0.6,0,0,0,.66.4c1.31,0,2-.32,3.28-0.32a0.61,0.61,0,0,0,.67-0.4,60.4,60.4,0,0,1-.42-6.61,43.42,43.42,0,0,1,.42-5.45A0.6,0.6,0,0,0,30.49,35.66Z"/><path class="cls-1" d="M30.49,49.1c-1.32,0-2,.32-3.28.32a0.6,0.6,0,0,0-.66.4A30.7,30.7,0,0,1,27,55h3.77a34.5,34.5,0,0,1,.43-5.55A0.6,0.6,0,0,0,30.49,49.1Z"/></svg>