<svg id="Laag_1" data-name="Laag 1" xmlns="http://www.w3.org/2000/svg" xmlns:xlink="http://www.w3.org/1999/xlink" viewBox="0 0 160.88 105.21"><defs><style>.cls-1{fill:url(#linear-gradient);}.cls-2{fill:#36a8c8;}.cls-3{fill:#0c91b3;}</style><linearGradient id="linear-gradient" x1="122.68" y1="28.92" x2="225.59" y2="131.83" gradientUnits="userSpaceOnUse"><stop offset="0" stop-color="#ebdbbf"/><stop offset="1" stop-color="#fff"/></linearGradient></defs><title>cap</title><path class="cls-1" d="M100.26,5.93h0L97.86,3.55h0A8.31,8.31,0,0,1,99,5.79Z"/><circle class="cls-2" cx="91.05" cy="8.32" r="8.32"/><path class="cls-2" d="M92.68,5.43c10.21,3.21,35.27,16.87,35.87,77h32.32S162.92,7.11,92.68,5.43Z"/><path class="cls-2" d="M26.71,82.41H64.14V10.31C24.41,27.29,26.71,82.41,26.71,82.41Z"/><path class="cls-3" d="M92.68,5.43c-0.79,0-1.58,0-2.39,0a65.84,65.84,0,0,0-26.15,4.92v72.1h64.41C127.94,22.3,102.89,8.64,92.68,5.43Z"/><path class="cls-3" d="M26.71,82.41S-5.45,94.93.81,96.94s24-12.4,48.88-3.5,42.41,26,78.87-11H26.71Z"/></svg>