<svg id="Laag_1" data-name="Laag 1" xmlns="http://www.w3.org/2000/svg" viewBox="0 0 155.55 162.4"><defs><style>.cls-1{fill:#f07e27;}.cls-2{fill:#f8c848;}.cls-3{fill:#efb025;}.cls-4{fill:#e4a726;}</style></defs><title>donate2</title><circle class="cls-1" cx="77.78" cy="84.62" r="77.78"/><circle class="cls-2" cx="77.78" cy="77.78" r="77.78"/><path class="cls-3" d="M146,77.78a66.17,66.17,0,0,1-.57,8.72c-0.08.62-.17,1.23-0.26,1.84A66.84,66.84,0,0,1,88.5,144.08a66.3,66.3,0,0,1-9.42.66A67,67,0,1,1,146,77.78Z"/><path class="cls-1" d="M79.07,16.39a67,67,0,0,1,66.9,64c0-1,.07-2,0.07-2.95a67,67,0,1,0-133.94,0c0,1,0,2,.07,2.95A67,67,0,0,1,79.07,16.39Z"/><polygon class="cls-4" points="54.39 107.87 56.89 110.36 54.39 110.97 54.39 107.87"/><path class="cls-4" d="M145.21,88.34A66.84,66.84,0,0,1,88.5,144.08L57.94,113.52l11.91-2.95L90,101.22,62.19,73.37l-4.77-6.8L78.32,36.51l6-8.59L96.82,40.41,99,42.09Z"/><path class="cls-2" d="M72.21,116.46A35.14,35.14,0,0,1,55.44,111L60.5,98.69q8.12,5.7,16,5.7,12.08,0,12.08-8.33a12,12,0,0,0-3.09-7.83q-3.09-3.67-11.71-8T62,73.06a19.17,19.17,0,0,1-4.77-6.8,22.53,22.53,0,0,1-1.66-8.81,19.35,19.35,0,0,1,4.51-12.66,21.83,21.83,0,0,1,12.1-7.33V27.92H84.29l-0.05,9q9.7,0.95,14.45,4.75L94.52,53.49a25.78,25.78,0,0,0-15.24-5.17q-4.75,0-7.36,2.56a8.66,8.66,0,0,0-2.61,6.46Q69.31,64,84,71.16q7.75,3.8,11.18,7a21.47,21.47,0,0,1,5.22,7.44,24.1,24.1,0,0,1,1.79,9.47,19.14,19.14,0,0,1-4.75,12.89q-4.75,5.51-13.18,7.57v12.13H72.21V116.46Z"/></svg>