<svg id="_ÎÓÈ_1" data-name="—ÎÓÈ_1" xmlns="http://www.w3.org/2000/svg" viewBox="0 0 873.3 616.42"><defs><style>.cls-1{fill:#211712;}.cls-2{fill:#323d24;}.cls-3{fill:#1f2614;}.cls-4{opacity:0.35;}.cls-5{fill:#0c0203;}</style></defs><title>hat_witch</title><path class="cls-1" d="M918.21,2754c-31.79-30.31-213-53.53-431.7-53.53S86.6,2723.65,54.81,2754h-5v9.52c0,34.82,195.49,63.05,436.65,63.05s436.65-28.23,436.65-63.05V2754h-5Z" transform="translate(-49.86 -2210.12)"/><ellipse class="cls-2" cx="436.65" cy="543.84" rx="436.65" ry="63.05"/><path class="cls-3" d="M711.93,2754c0,11.32-100.92,20.49-225.42,20.49-86.68,0-161.94-4.44-199.66-11-16.46-2.84-25.76-6.08-25.76-9.52a2.26,2.26,0,0,1,.32-1.1l54.86-186.48-27.59-36.26,58.64-72.73,43-53.37-37.83-17.34,25.22-39.41h-33.1l-18.92-28.37-75.66,48.87-26.8,126.11v-175l129.26-108.77,134,99.31,93,138.72-18.92,20.49L589,2482l28.37,122.17,56.75,45.71,37.34,102.72A2.29,2.29,0,0,1,711.93,2754Z" transform="translate(-49.86 -2210.12)"/><g class="cls-4"><path class="cls-5" d="M288.68,2530.12l68.57,18.13-70.4,215.23c-16.46-2.84-25.76-6.08-25.76-9.52a2.26,2.26,0,0,1,.32-1.1l54.86-186.48Z" transform="translate(-49.86 -2210.12)"/><polygon class="cls-5" points="275.86 108.77 200.2 157.63 173.4 283.74 190.74 129.26 292.41 72.51 301.87 119.01 346.01 104.04 327.88 137.14 294.78 137.14 275.86 108.77"/><polygon class="cls-5" points="297.46 247.27 340.49 193.89 302.66 176.55 378.32 178.13 297.46 247.27"/></g></svg>