<svg id="_ÎÓÈ_1" data-name="—ÎÓÈ_1" xmlns="http://www.w3.org/2000/svg" viewBox="0 0 855.79 525.42"><defs><style>.cls-1,.cls-8{fill:#e6b072;}.cls-2{fill:#3a3a3a;}.cls-3{fill:#efcf96;}.cls-4{fill:#595959;}.cls-5{fill:#2d2d2d;opacity:0.44;}.cls-6{fill:#6b6b6b;}.cls-7{fill:#a8a8a8;}.cls-8{opacity:0.42;}</style></defs><title>hat_lady</title><path class="cls-1" d="M613.35,262.12H279.54L287,200.44l8-66.26a152.52,152.52,0,0,1,302.82,0l8,66.26Z"/><polygon class="cls-2" points="622.05 288.75 270.84 288.75 278.7 200.44 614.19 200.44 622.05 288.75"/><path class="cls-3" d="M832.55,457.57a246.49,246.49,0,0,1-22.61,23.69c-56.86,52.8-123.36,50.18-167.35,33.56a133.16,133.16,0,0,1-29.23-15.13c-37.9-26.62-114.69-61.43-189.44-29.69-29.31,12.44-61.65,25.84-95,35.43C277.22,520.27,223.09,526,174,504.8c-29.22-12.58-54.29-25.17-76.49-40.28C58.3,437.86,28.11,403.34,0,347.12c0,0,178.45-58.36,270.84-58.36H622S776.15,336.88,847.82,386C847.82,386,873.53,407.83,832.55,457.57Z"/><path class="cls-4" d="M315.73,249.45l-0.26.35V158a45,45,0,0,1,12.12,7.22C358,191.13,319.36,244.6,315.73,249.45Z"/><path class="cls-5" d="M327.59,165.25l-11.86,84.2-0.26.35V158A45,45,0,0,1,327.59,165.25Z"/><path class="cls-4" d="M312.71,249.89l-0.12.42-31.39-86.24a45,45,0,0,1,13.86,2.64C332.51,180.62,314.45,244.09,312.71,249.89Z"/><path class="cls-5" d="M295.05,166.72l17.66,83.18-0.12.42-31.39-86.24A45,45,0,0,1,295.05,166.72Z"/><path class="cls-4" d="M310,251.34c0,0.28,0,.44,0,0.44l-59-70.3A45,45,0,0,1,265,179.22C304.93,179.48,309.67,245.29,310,251.34Z"/><path class="cls-5" d="M265,179.22l45,72.12c0,0.28,0,.44,0,0.44l-59-70.3A45,45,0,0,1,265,179.22Z"/><path class="cls-4" d="M308,253.62l0.18,0.4-79.48-45.89A45,45,0,0,1,241,201.26C278.62,187.83,305.59,248.06,308,253.62Z"/><path class="cls-5" d="M241,201.26l67,52.37,0.18,0.4-79.48-45.89A45,45,0,0,1,241,201.26Z"/><path class="cls-4" d="M306.85,256.47l0.3,0.32-90.38-15.94A45,45,0,0,1,226,230.17C256.76,204.68,302.7,252.05,306.85,256.47Z"/><path class="cls-5" d="M226,230.17l80.86,26.3,0.3,0.32-90.38-15.94A45,45,0,0,1,226,230.17Z"/><path class="cls-4" d="M306.76,259.52l0.39,0.2-90.38,15.94a45,45,0,0,1,5-13.19C242,228,301.35,256.8,306.76,259.52Z"/><path class="cls-5" d="M221.78,262.47l85-2.94,0.39,0.2-90.38,15.94A45,45,0,0,1,221.78,262.47Z"/><path class="cls-4" d="M307.72,262.43l0.44,0-79.48,45.89a45,45,0,0,1,.19-14.1C236.06,255,301.7,261.71,307.72,262.43Z"/><path class="cls-5" d="M228.87,294.26l78.85-31.83,0.44,0-79.48,45.89A45,45,0,0,1,228.87,294.26Z"/><path class="cls-4" d="M309.61,264.83l0.43-.1-59,70.3a45,45,0,0,1-4.64-13.32C239.72,282.31,303.72,266.21,309.61,264.83Z"/><path class="cls-5" d="M246.41,321.7l63.21-56.88,0.43-.1-59,70.3A45,45,0,0,1,246.41,321.7Z"/><path class="cls-4" d="M312.22,266.43l0.37-.24-31.39,86.24a45,45,0,0,1-8.92-10.93C252.52,306.77,307.15,269.75,312.22,266.43Z"/><path class="cls-5" d="M272.28,341.5l39.94-75.07,0.37-.24-31.39,86.24A45,45,0,0,1,272.28,341.5Z"/><path class="cls-4" d="M315.21,267.05l0.26-.35v91.77a45,45,0,0,1-12.12-7.22C272.91,325.37,311.58,271.91,315.21,267.05Z"/><path class="cls-5" d="M303.35,351.25l11.86-84.2,0.26-.35v91.77A45,45,0,0,1,303.35,351.25Z"/><path class="cls-4" d="M318.24,266.61l0.12-.42,31.39,86.24a45,45,0,0,1-13.86-2.64C298.43,335.88,316.49,272.41,318.24,266.61Z"/><path class="cls-5" d="M335.89,349.79l-17.66-83.18,0.12-.42,31.39,86.24A45,45,0,0,1,335.89,349.79Z"/><path class="cls-4" d="M320.93,265.16c0-.28,0-0.44,0-0.44l59,70.3A45,45,0,0,1,366,337.28C326,337,321.27,271.21,320.93,265.16Z"/><path class="cls-5" d="M366,337.28l-45-72.12c0-.28,0-0.44,0-0.44l59,70.3A45,45,0,0,1,366,337.28Z"/><path class="cls-4" d="M323,262.88l-0.18-.4,79.48,45.89A45,45,0,0,1,390,315.25C352.32,328.67,325.35,268.44,323,262.88Z"/><path class="cls-5" d="M390,315.25l-67-52.37-0.18-.4,79.48,45.89A45,45,0,0,1,390,315.25Z"/><path class="cls-4" d="M324.09,260l-0.3-.32,90.38,15.94A45,45,0,0,1,405,286.33C374.18,311.82,328.24,264.45,324.09,260Z"/><path class="cls-5" d="M405,286.33L324.09,260l-0.3-.32,90.38,15.94A45,45,0,0,1,405,286.33Z"/><path class="cls-4" d="M324.18,257l-0.39-.2,90.38-15.94a45,45,0,0,1-5,13.19C389,288.51,329.59,259.71,324.18,257Z"/><path class="cls-5" d="M409.16,254l-85,2.94-0.39-.2,90.38-15.94A45,45,0,0,1,409.16,254Z"/><path class="cls-4" d="M323.22,254.08l-0.44,0,79.48-45.89a45,45,0,0,1-.19,14.1C394.88,261.55,329.24,254.79,323.22,254.08Z"/><path class="cls-5" d="M402.07,222.25l-78.85,31.83-0.44,0,79.48-45.89A45,45,0,0,1,402.07,222.25Z"/><path class="cls-4" d="M321.33,251.68l-0.43.1,59-70.3a45,45,0,0,1,4.64,13.32C391.22,234.19,327.22,250.29,321.33,251.68Z"/><path class="cls-5" d="M384.53,194.8l-63.21,56.88-0.43.1,59-70.3A45,45,0,0,1,384.53,194.8Z"/><path class="cls-4" d="M318.73,250.07l-0.37.24,31.39-86.24A45,45,0,0,1,358.67,175C378.42,209.74,323.79,246.75,318.73,250.07Z"/><path class="cls-5" d="M358.67,175l-39.94,75.07-0.37.24,31.39-86.24A45,45,0,0,1,358.67,175Z"/><path class="cls-6" d="M315.33,253.48l0.14,0.19V203.92a24.42,24.42,0,0,0-6.57,3.91C292.4,221.86,313.36,250.85,315.33,253.48Z"/><path class="cls-5" d="M308.9,207.83l6.43,45.65,0.14,0.19V203.92A24.42,24.42,0,0,0,308.9,207.83Z"/><path class="cls-6" d="M317,253.72l0.07,0.23,17-46.75a24.42,24.42,0,0,0-7.51,1.43C306.23,216.17,316,250.57,317,253.72Z"/><path class="cls-5" d="M326.54,208.63L317,253.72l0.07,0.23,17-46.75A24.42,24.42,0,0,0,326.54,208.63Z"/><path class="cls-6" d="M318.43,254.51v0.24l32-38.11a24.42,24.42,0,0,0-7.55-1.23C321.19,215.54,318.62,251.23,318.43,254.51Z"/><path class="cls-5" d="M342.85,215.4l-24.42,39.1v0.24l32-38.11A24.42,24.42,0,0,0,342.85,215.4Z"/><path class="cls-6" d="M319.53,255.74l-0.1.22,43.09-24.88a24.42,24.42,0,0,0-6.67-3.73C335.45,220.07,320.83,252.73,319.53,255.74Z"/><path class="cls-5" d="M355.85,227.35l-36.32,28.39-0.1.22,43.09-24.88A24.42,24.42,0,0,0,355.85,227.35Z"/><path class="cls-6" d="M320.15,257.28l-0.16.17,49-8.64a24.42,24.42,0,0,0-5-5.79C347.3,229.21,322.4,254.89,320.15,257.28Z"/><path class="cls-5" d="M364,243l-43.84,14.26-0.16.17,49-8.64A24.42,24.42,0,0,0,364,243Z"/><path class="cls-6" d="M320.19,258.94L320,259l49,8.64a24.42,24.42,0,0,0-2.71-7.15C355.31,241.85,323.13,257.46,320.19,258.94Z"/><path class="cls-5" d="M366.27,260.54l-46.07-1.6L320,259l49,8.64A24.42,24.42,0,0,0,366.27,260.54Z"/><path class="cls-6" d="M319.67,260.51l-0.24,0,43.09,24.88a24.42,24.42,0,0,0-.1-7.65C358.52,256.46,322.94,260.13,319.67,260.51Z"/><path class="cls-5" d="M362.42,277.77l-42.75-17.26-0.24,0,43.09,24.88A24.42,24.42,0,0,0,362.42,277.77Z"/><path class="cls-6" d="M318.65,261.82l-0.23-.06,32,38.11a24.42,24.42,0,0,0,2.52-7.22C356.54,271.3,321.84,262.57,318.65,261.82Z"/><path class="cls-5" d="M352.91,292.65l-34.27-30.84-0.23-.06,32,38.11A24.42,24.42,0,0,0,352.91,292.65Z"/><path class="cls-6" d="M317.24,262.69l-0.2-.13,17,46.75a24.42,24.42,0,0,0,4.84-5.92C349.6,284.55,320,264.49,317.24,262.69Z"/><path class="cls-5" d="M338.89,303.38l-21.65-40.7-0.2-.13,17,46.75A24.42,24.42,0,0,0,338.89,303.38Z"/><path class="cls-6" d="M315.61,263l-0.14-.19v49.75a24.42,24.42,0,0,0,6.57-3.91C338.54,294.64,317.58,265.65,315.61,263Z"/><path class="cls-5" d="M322,308.67L315.61,263l-0.14-.19v49.75A24.42,24.42,0,0,0,322,308.67Z"/><path class="cls-6" d="M314,262.78l-0.07-.23-17,46.75a24.42,24.42,0,0,0,7.51-1.43C324.71,300.34,314.92,265.93,314,262.78Z"/><path class="cls-5" d="M304.4,307.88L314,262.78l-0.07-.23-17,46.75A24.42,24.42,0,0,0,304.4,307.88Z"/><path class="cls-6" d="M312.51,262v-0.24l-32,38.11a24.42,24.42,0,0,0,7.55,1.23C309.76,301,312.33,265.28,312.51,262Z"/><path class="cls-5" d="M288.09,301.1L312.51,262v-0.24l-32,38.11A24.42,24.42,0,0,0,288.09,301.1Z"/><path class="cls-6" d="M311.41,260.76l0.1-.22-43.09,24.88a24.42,24.42,0,0,0,6.67,3.73C295.49,296.43,310.11,263.78,311.41,260.76Z"/><path class="cls-5" d="M275.09,289.15l36.32-28.39,0.1-.22-43.09,24.88A24.42,24.42,0,0,0,275.09,289.15Z"/><path class="cls-6" d="M310.8,259.22L311,259l-49,8.64a24.42,24.42,0,0,0,5,5.79C283.64,287.29,308.55,261.61,310.8,259.22Z"/><path class="cls-5" d="M267,273.48l43.84-14.26L311,259l-49,8.64A24.42,24.42,0,0,0,267,273.48Z"/><path class="cls-6" d="M310.75,257.56l0.21-.11-49-8.64a24.42,24.42,0,0,0,2.71,7.15C275.63,274.66,307.81,259,310.75,257.56Z"/><path class="cls-5" d="M264.68,256l46.07,1.6,0.21-.11-49-8.64A24.42,24.42,0,0,0,264.68,256Z"/><path class="cls-6" d="M311.27,256l0.24,0-43.09-24.88a24.42,24.42,0,0,0,.1,7.65C272.42,260,308,256.37,311.27,256Z"/><path class="cls-5" d="M268.52,238.73L311.27,256l0.24,0-43.09-24.88A24.42,24.42,0,0,0,268.52,238.73Z"/><path class="cls-6" d="M312.3,254.69l0.23,0.06-32-38.11a24.42,24.42,0,0,0-2.52,7.22C274.4,245.21,309.1,253.93,312.3,254.69Z"/><path class="cls-5" d="M278,223.85l34.27,30.84,0.23,0.06-32-38.11A24.42,24.42,0,0,0,278,223.85Z"/><path class="cls-6" d="M313.71,253.82l0.2,0.13-17-46.75a24.42,24.42,0,0,0-4.84,5.92C281.34,231.95,311,252,313.71,253.82Z"/><path class="cls-5" d="M292.05,213.12l21.65,40.7,0.2,0.13-17-46.75A24.42,24.42,0,0,0,292.05,213.12Z"/><circle class="cls-7" cx="315.47" cy="257.46" r="9.25"/><path class="cls-8" d="M832.55,457.57a246.49,246.49,0,0,1-22.61,23.69c-56.86,52.8-123.36,50.18-167.35,33.56-13.86-35.32-77.79-70.92-80.61-142.3C559,298,762.61,415.16,832.55,457.57Z"/><path class="cls-8" d="M328.92,505.42C277.22,520.27,223.09,526,174,504.8c-29.22-12.58-54.29-25.17-76.49-40.28C413.24,283.48,372.64,420.19,328.92,505.42Z"/><path class="cls-4" d="M810,481.26c-71.7,66.54-158.69,45-196.6,18.43S498.65,438.26,423.91,470,254.78,539.63,174,504.8,44,435.19,0,347.12c0,0,9-2.92,23.9-7.47C64.54,410.12,112.09,442.59,180.53,474c86.9,39.81,186.31-5.07,252.08-34.77,71.54-32.31,143.52,17.11,157.22,27.34,22,16.46,56.4,30.1,94.74,30.1,37.91,0,79.74-13.36,117.34-50.5,21.78-21.47,36.49-42,44.05-61.35,0.65,0.43,1.26.83,1.87,1.26C847.83,386,881.62,414.7,810,481.26Z"/></svg>