<svg id="_ÎÓÈ_1" data-name="—ÎÓÈ_1" xmlns="http://www.w3.org/2000/svg" viewBox="0 0 973.02 523.37"><defs><style>.cls-1{fill:#72300c;}.cls-2{fill:#aa5733;}.cls-3{fill:#e88c38;}.cls-4{fill:#d68029;}.cls-5{fill:#590f0b;}.cls-6{fill:#0f0302;opacity:0.3;}.cls-7{fill:#ffe6ae;}.cls-8{fill:#99502c;}</style></defs><title>hat_cowboy</title><path class="cls-1" d="M-170.71,3563.63c-23.34-60-44-32.67-99.34,12s-173.33,44-173.33,44c-25.33-23.34-52.5-183.17-52.5-231.17,0-45.85-142.58,23.34-155.37,29.63-12.79-6.3-155.37-75.48-155.37-29.63,0,48-27.17,207.83-52.5,231.17,0,0-118,.66-173.33-44s-76-72-99.34-12,26,157.33,74,199.33,95.67,86.92,236.78,115.63c56.22,11.44,114.54,18.2,169.76,17.6,55.22,0.59,113.54-6.17,169.76-17.6C-340.38,3849.88-292.71,3805-244.71,3763S-147.38,3623.63-170.71,3563.63Z" transform="translate(1137.76 -3372.86)"/><path class="cls-2" d="M-1077.14,3547.17l-2-.42a0.21,0.21,0,0,0,0,.11c-0.12-.29-1.33-1.1-4.14-1.58l0.34-2c1.61,0.28,4.46,1,5.44,2.4A1.85,1.85,0,0,1-1077.14,3547.17Z" transform="translate(1137.76 -3372.86)"/><path class="cls-2" d="M-668.3,3875c-3.93,0-7.94-.13-11.91-0.24l0.06-2c4,0.11,8,.19,11.87.24Zm-23.81-.68c-3.93-.18-7.93-0.39-11.9-0.63l0.12-2c4,0.24,7.94.45,11.87,0.62Zm-23.78-1.43c-3.93-.3-7.93-0.63-11.87-1l0.18-2c3.93,0.36,7.92.69,11.84,1Zm-23.73-2.14c-3.93-.41-7.91-0.86-11.84-1.33l0.24-2c3.91,0.47,7.89.91,11.81,1.32Zm-23.65-2.82c-3.93-.53-7.9-1.09-11.79-1.67l0.29-2c3.88,0.58,7.84,1.14,11.77,1.66Zm-23.56-3.5c-3.91-.64-7.86-1.31-11.74-2l0.35-2c3.87,0.69,7.81,1.36,11.71,2Zm-23.45-4.18c-3.92-.76-7.86-1.55-11.71-2.36l0.41-2c3.84,0.8,7.77,1.59,11.68,2.35Zm-23.37-4.88c-3.87-.87-7.78-1.78-11.61-2.71l0.47-1.94c3.82,0.92,7.72,1.83,11.58,2.7Zm-23.17-5.59c-3.84-1-7.71-2-11.5-3.07l0.53-1.93c3.78,1,7.64,2.07,11.47,3.06Zm-22.94-6.33c-3.81-1.12-7.63-2.28-11.37-3.46l0.6-1.91c3.73,1.17,7.54,2.33,11.34,3.45Zm-22.67-7.11c-3.77-1.26-7.56-2.57-11.26-3.88l0.67-1.88c3.69,1.31,7.46,2.61,11.23,3.87Zm-22.45-8c-3.73-1.41-7.46-2.87-11.1-4.33l0.75-1.86c3.62,1.46,7.34,2.91,11.06,4.32Zm-22.1-8.91c-3.67-1.57-7.34-3.2-10.9-4.82l0.83-1.82c3.55,1.62,7.2,3.24,10.85,4.81Zm-21.67-9.91c-3.59-1.75-7.17-3.55-10.64-5.36l0.92-1.77c3.46,1.8,7,3.6,10.6,5.34Zm-21.14-11c-3.49-1.95-7-4-10.33-6l1-1.72c3.34,2,6.8,4,10.27,5.93Zm-20.46-12.24c-3.37-2.17-6.71-4.4-9.92-6.62l1.14-1.64c3.19,2.21,6.51,4.42,9.86,6.58Zm-19.6-13.59c-3.21-2.4-6.37-4.87-9.4-7.34l1.26-1.55c3,2.45,6.15,4.91,9.34,7.29Zm-18.48-15.08c-3-2.66-5.93-5.4-8.73-8.13l1.4-1.43c2.78,2.72,5.69,5.43,8.66,8.07Zm-17.05-16.68c-2.72-2.94-5.37-6-7.87-9l1.54-1.28c2.47,3,5.1,6,7.8,8.89Zm-15.22-18.38c-2.37-3.23-4.65-6.53-6.78-9.83l1.68-1.08c2.1,3.26,4.36,6.53,6.71,9.73Zm-12.92-20.06c-1.93-3.48-3.76-7-5.43-10.6l1.81-.85c1.65,3.51,3.46,7,5.37,10.48Zm-10.34-21.45c-1.62-3.7-3.19-7.39-4.65-11l1.85-.76c1.45,3.56,3,7.24,4.63,10.92Zm-9-22.07c-1.42-3.81-2.76-7.59-4-11.24l1.9-.63c1.21,3.63,2.54,7.39,4,11.17Zm-7.52-22.63c-1.13-3.95-2.14-7.83-3-11.55l1.95-.45c0.85,3.69,1.86,7.54,3,11.45Zm-5.33-23.28c-0.67-4.1-1.16-8.1-1.45-11.88l2-.15c0.29,3.73.77,7.67,1.43,11.71Zm0.29-23.79-2-.08a76,76,0,0,1,1.36-12l2,0.39A73.92,73.92,0,0,0-1125.43,3589.26Zm4.8-22.73-1.82-.82a40.75,40.75,0,0,1,6.51-10.24l1.5,1.32A38.77,38.77,0,0,0-1120.63,3566.53Zm15.11-17-1-1.74a38.07,38.07,0,0,1,11.42-4.17l0.38,2A36.06,36.06,0,0,0-1105.51,3549.55Z" transform="translate(1137.76 -3372.86)"/><path class="cls-2" d="M-656.32,3875v-2l6-.06,0,2Z" transform="translate(1137.76 -3372.86)"/><path class="cls-3" d="M-196.45,3583.32c-21.3-48.53-45.61-18.8-96.13,17.32-39,27.9-112.1,33.93-143.39,35.23-9.24.39-14.83,0.36-14.83,0.36-23.13-18.87-47.93-148.14-47.93-187S-514.35,3409-514.35,3409l-39.8,1.06a100.72,100.72,0,0,0-97.1,87.06A100.72,100.72,0,0,0-748.34,3410l-39.8-1.06s-15.62,1.49-15.62,40.31-24.8,168.09-47.93,187c0,0-5.59,0-14.83-.36-31.29-1.3-104.39-7.33-143.39-35.23-50.52-36.12-74.83-65.85-96.13-17.32s29.18,134.86,73,168.83,45,55.92,216.14,93.52c54.44,12,112.2,15.21,165.66,14.08,53.46,1.13,111.22-2.11,165.66-14.08,171.15-37.6,172.32-59.55,216.14-93.52S-175.15,3631.85-196.45,3583.32Z" transform="translate(1137.76 -3372.86)"/><path class="cls-4" d="M-429.65,3667.42c0-.32,0-0.64,0-1-0.05-1.16-.13-2.3-0.22-3.44,0-.47-0.08-0.94-0.13-1.4-0.16-1.71-.37-3.39-0.62-5-0.09-.54-0.17-1.09-0.26-1.63-0.17-1-.35-2-0.55-3,0-.12,0-0.24-0.07-0.37-0.2-1-.42-2-0.64-2.93s-0.41-1.72-.62-2.55c-0.16-.63-0.33-1.26-0.5-1.87-0.83-3-1.74-5.83-2.67-8.4a98.49,98.49,0,0,0-7.41-16.24c-25.33-23.34-52.5-183.17-52.5-231.17,0-31.69-68.14-8.42-114.43,11.06a105.59,105.59,0,0,1-81.88,0c-46.29-19.47-114.43-42.75-114.43-11.06,0,48-27.17,207.83-52.5,231.17a98.48,98.48,0,0,0-7.41,16.24c-0.93,2.57-1.84,5.38-2.67,8.4-0.17.61-.34,1.24-0.5,1.87-0.21.83-.42,1.69-0.62,2.55s-0.44,1.94-.64,2.93c0,0.13,0,.25-0.07.37-0.2,1-.38,2-0.55,3-0.09.54-.17,1.09-0.26,1.63-0.25,1.64-.46,3.32-0.62,5,0,0.46-.09.93-0.13,1.4-0.09,1.14-.17,2.28-0.22,3.44,0,0.32,0,.64,0,1-1.31,38.79,22.45,89.56,146.73,105.54a590.15,590.15,0,0,0,73.95,4.91h1.84a590.15,590.15,0,0,0,73.95-4.91C-452.1,3757-428.34,3706.21-429.65,3667.42Z" transform="translate(1137.76 -3372.86)"/><path class="cls-5" d="M-429.65,3667.42c0-.32,0-0.64,0-1-0.05-1.16-.13-2.3-0.22-3.44,0-.47-0.08-0.94-0.13-1.4-0.16-1.71-.37-3.38-0.62-5-0.09-.54-0.17-1.09-0.26-1.63-0.17-1-.35-2-0.55-3,0-.12,0-0.24-0.07-0.37-0.2-1-.42-2-0.64-2.93s-0.41-1.72-.62-2.55c-0.16-.63-0.33-1.26-0.5-1.87-31.38,54.44-116.58,94.08-217.95,96.55-101.36-2.48-186.57-42.11-217.95-96.55-0.17.61-.34,1.24-0.5,1.87-0.21.83-.42,1.69-0.62,2.55s-0.44,1.94-.64,2.93c0,0.13,0,.25-0.07.37-0.2,1-.38,2-0.55,3-0.09.54-.17,1.09-0.26,1.63-0.25,1.65-.46,3.32-0.62,5,0,0.46-.09.93-0.13,1.4-0.09,1.14-.17,2.28-0.22,3.44,0,0.32,0,.64,0,1-1.31,38.79,22.45,89.56,146.73,105.54a590.15,590.15,0,0,0,73.95,4.91h1.84a590.15,590.15,0,0,0,73.95-4.91C-452.1,3757-428.34,3706.21-429.65,3667.42Z" transform="translate(1137.76 -3372.86)"/><path class="cls-2" d="M-225.35,3547.17l2-.42a0.21,0.21,0,0,1,0,.11c0.12-.29,1.33-1.1,4.14-1.58l-0.34-2c-1.61.28-4.46,1-5.44,2.4A1.85,1.85,0,0,0-225.35,3547.17Z" transform="translate(1137.76 -3372.86)"/><path class="cls-2" d="M-634.22,3873c3.92,0,7.92-.13,11.87-0.24l0.06,2c-4,.11-8,0.2-11.91.24Zm23.75-.68c3.92-.18,7.91-0.39,11.87-0.62l0.12,2c-4,.24-8,0.45-11.9.63Zm23.72-1.43c3.92-.3,7.91-0.63,11.84-1l0.18,2c-3.94.36-7.94,0.69-11.87,1Zm23.67-2.13c3.92-.41,7.89-0.86,11.81-1.32l0.24,2c-3.92.47-7.91,0.92-11.84,1.33Zm23.59-2.82c3.92-.53,7.88-1.08,11.77-1.66l0.29,2c-3.89.58-7.86,1.14-11.79,1.67Zm23.51-3.49c3.9-.64,7.84-1.31,11.71-2l0.35,2c-3.88.69-7.83,1.36-11.74,2Zm23.39-4.17c3.91-.76,7.84-1.55,11.68-2.35l0.41,2c-3.85.8-7.79,1.6-11.71,2.36Zm23.31-4.87c3.86-.87,7.76-1.78,11.58-2.7l0.47,1.94c-3.83.92-7.74,1.84-11.61,2.71Zm23.11-5.58c3.83-1,7.69-2,11.47-3.06l0.53,1.93c-3.79,1-7.66,2.08-11.5,3.07Zm22.87-6.31c3.8-1.12,7.61-2.28,11.34-3.45l0.6,1.91c-3.74,1.17-7.56,2.34-11.37,3.46Zm22.6-7.09c3.76-1.26,7.54-2.56,11.23-3.87l0.67,1.88c-3.7,1.32-7.49,2.62-11.26,3.88Zm22.38-8c3.72-1.41,7.44-2.86,11.06-4.32l0.75,1.86c-3.64,1.46-7.37,2.92-11.1,4.33Zm22-8.87c3.66-1.57,7.31-3.19,10.85-4.81l0.83,1.82c-3.56,1.63-7.23,3.25-10.9,4.82Zm21.59-9.87c3.57-1.74,7.14-3.54,10.6-5.34l0.92,1.77c-3.48,1.81-7.06,3.62-10.64,5.36Zm21-11c3.48-1.94,6.93-3.93,10.27-5.93l1,1.72c-3.36,2-6.83,4-10.33,6Zm20.35-12.18c3.36-2.16,6.67-4.37,9.86-6.58l1.14,1.64c-3.21,2.22-6.55,4.45-9.92,6.62Zm19.48-13.51c3.19-2.39,6.33-4.84,9.34-7.29l1.26,1.55c-3,2.47-6.19,4.94-9.4,7.34Zm18.35-15c3-2.64,5.88-5.36,8.66-8.07l1.4,1.43c-2.8,2.74-5.74,5.47-8.73,8.13Zm16.92-16.55c2.7-2.92,5.32-5.91,7.8-8.89l1.54,1.28c-2.5,3-5.14,6-7.87,9Zm15.08-18.2c2.35-3.19,4.61-6.47,6.71-9.73l1.68,1.08c-2.12,3.29-4.4,6.6-6.78,9.83Zm12.78-19.85c1.91-3.44,3.72-7,5.37-10.48l1.81,0.85c-1.67,3.55-3.5,7.12-5.43,10.6Zm10.26-21.28c1.62-3.69,3.17-7.36,4.63-10.92l1.85,0.76c-1.46,3.58-3,7.27-4.65,11Zm8.94-22c1.41-3.79,2.74-7.55,4-11.17l1.9,0.63c-1.22,3.65-2.56,7.43-4,11.24Zm7.47-22.48c1.12-3.91,2.13-7.77,3-11.45l1.95,0.45c-0.86,3.72-1.87,7.61-3,11.55Zm5.28-23c0.66-4,1.14-8,1.43-11.71l2,0.15c-0.29,3.78-.78,7.78-1.45,11.88Zm0.37-35.11,2-.39a76,76,0,0,1,1.36,12l-2,.08A73.92,73.92,0,0,0-178.39,3577.63Zm-9.66-20.84,1.5-1.32a40.75,40.75,0,0,1,6.51,10.24l-1.82.82A38.77,38.77,0,0,0-188.05,3556.79Zm-19.75-11.2,0.38-2a38.07,38.07,0,0,1,11.42,4.17l-1,1.74A36.06,36.06,0,0,0-207.8,3545.59Z" transform="translate(1137.76 -3372.86)"/><path class="cls-2" d="M-646.18,3875v-2l-6-.06,0,2Z" transform="translate(1137.76 -3372.86)"/><path class="cls-6" d="M-572.79,3428.1c-7.08,4.27-14.19,8.68-19.89,14.66s-9.92,13.79-10,22.05c0,9,4.92,17.46,11.67,23.4,7.44,6.54,16.88,10.38,26.21,13.57a184,184,0,0,0,38.23,8.69,21.22,21.22,0,0,0,8.65-.34c9-2.75,11.65-14.08,11.93-23.47,0.69-22.39-3.44-44.62-7.58-66.64-0.75-4-1.54-8.06-3.68-11.49l-0.06-.1a10.6,10.6,0,0,0-14-3.48C-540,3409.66-561.22,3421.12-572.79,3428.1Z" transform="translate(1137.76 -3372.86)"/><path class="cls-6" d="M-729.7,3428.1c7.08,4.27,14.19,8.68,19.89,14.66s9.92,13.79,10,22.05c0,9-4.92,17.46-11.67,23.4-7.44,6.54-16.88,10.38-26.21,13.57a184,184,0,0,1-38.23,8.69,21.22,21.22,0,0,1-8.65-.34c-9-2.75-11.65-14.08-11.93-23.47-0.69-22.39,3.44-44.62,7.58-66.64,0.75-4,1.54-8.06,3.68-11.49l0.06-.1a10.6,10.6,0,0,1,14-3.48C-762.45,3409.66-741.28,3421.12-729.7,3428.1Z" transform="translate(1137.76 -3372.86)"/><path class="cls-7" d="M-656.86,3671.94c-5.86,22.64-16.91,69.85-16.46,102.63a16.49,16.49,0,0,0,16.49,16.26h7a16.49,16.49,0,0,0,16.49-16.26c0.45-32.79-10.6-80-16.46-102.63A3.66,3.66,0,0,0-656.86,3671.94Z" transform="translate(1137.76 -3372.86)"/><path class="cls-7" d="M-858.6,3735.79s-7.89-104.46,50.51-126.59a3.2,3.2,0,0,1,4.06,4.26c-8.71,20-33,82.67-18.55,128.57a10.45,10.45,0,0,1-10.06,13.55C-841.53,3755.45-852.4,3751.57-858.6,3735.79Z" transform="translate(1137.76 -3372.86)"/><path class="cls-7" d="M-733.3,3643.18a3.19,3.19,0,0,0-5.6-2.69c-17,21.37-50.65,73.84-29.2,132.19,0,0,2.75,11.37,21,8.8a12.93,12.93,0,0,0,10.88-15.15C-740.1,3745.45-745.76,3698.42-733.3,3643.18Z" transform="translate(1137.76 -3372.86)"/><path class="cls-8" d="M-857.46,3687.74c3.73,3.28,17.33,14,33,12,0,0-1.9,8.24-.25,13.14s-25.76-2-34.26-17.14a2.72,2.72,0,0,1-.31-1.64l0.67-6A0.71,0.71,0,0,1-857.46,3687.74Z" transform="translate(1137.76 -3372.86)"/><path class="cls-8" d="M-773.87,3729.87c4.26,5.69,14.3,14.18,35.51,11.69a1.16,1.16,0,0,1,1.3,1.27,38.06,38.06,0,0,0,1.6,16.24,1.15,1.15,0,0,1-1,1.53c-6.25.34-29.51,0.62-39.75-13.1a1.15,1.15,0,0,1-.17-1c0.44-1.39,1.4-5.75.45-15.78A1.16,1.16,0,0,1-773.87,3729.87Z" transform="translate(1137.76 -3372.86)"/><path class="cls-7" d="M-443.89,3735.79s7.89-104.46-50.51-126.59a3.2,3.2,0,0,0-4.06,4.26c8.71,20,33,82.67,18.55,128.57a10.45,10.45,0,0,0,10.06,13.55C-461,3755.45-450.09,3751.57-443.89,3735.79Z" transform="translate(1137.76 -3372.86)"/><path class="cls-7" d="M-569.19,3643.18a3.19,3.19,0,0,1,5.6-2.69c17,21.37,50.65,73.84,29.2,132.19,0,0-2.75,11.37-21,8.8a12.93,12.93,0,0,1-10.88-15.15C-562.39,3745.45-556.73,3698.42-569.19,3643.18Z" transform="translate(1137.76 -3372.86)"/><path class="cls-8" d="M-445,3687.74c-3.73,3.28-17.33,14-33,12,0,0,1.9,8.24.25,13.14s25.76-2,34.26-17.14a2.72,2.72,0,0,0,.31-1.64l-0.67-6A0.71,0.71,0,0,0-445,3687.74Z" transform="translate(1137.76 -3372.86)"/><path class="cls-8" d="M-528.62,3729.87c-4.26,5.69-14.3,14.18-35.51,11.69a1.16,1.16,0,0,0-1.3,1.27,38.06,38.06,0,0,1-1.6,16.24,1.15,1.15,0,0,0,1,1.53c6.25,0.34,29.51.62,39.75-13.1a1.15,1.15,0,0,0,.17-1c-0.44-1.39-1.4-5.75-.45-15.78A1.16,1.16,0,0,0-528.62,3729.87Z" transform="translate(1137.76 -3372.86)"/><path class="cls-8" d="M-634.82,3752.41c-4.95,4-17.78,4.44-18.47,4.46h-0.06c-0.69,0-13.52-.5-18.47-4.46a1,1,0,0,0-1.66.76c-0.27,4.43-.89,13.39-1.71,16.53a1,1,0,0,0,.57,1.21c2.17,1,8.72,3.33,21.3,3.33s19.13-2.36,21.3-3.33a1,1,0,0,0,.57-1.21c-0.82-3.15-1.44-12.1-1.71-16.53A1,1,0,0,0-634.82,3752.41Z" transform="translate(1137.76 -3372.86)"/></svg>