<svg id="Layer_1" data-name="Layer 1" xmlns="http://www.w3.org/2000/svg" viewBox="0 0 208 252"><defs><style>.cls-1{fill:none;}.cls-2{fill:#4d4d4d;}.cls-3{fill:#ffef5a;}.cls-4{fill:#f4dd53;}.cls-5{fill:#94dbff;}.cls-6{fill:#8cd6f4;}.cls-7{fill:#edd94c;}.cls-8{fill:#73c5e5;}</style></defs><title>parasol</title><polygon class="cls-1" points="122.89 102.16 122.89 102.16 122.89 102.16 163.71 114.66 163.71 114.65 122.89 102.16"/><polygon class="cls-1" points="82.07 89.66 41.24 77.16 41.24 77.16 82.06 89.66 82.07 89.66 82.07 89.66"/><path class="cls-2" d="M93,107.27L50.43,246.71a4.11,4.11,0,0,0,7.85,2.4l42.45-139c-0.79-.18-1.59-0.38-2.38-0.63A31.6,31.6,0,0,1,93,107.27Z"/><path class="cls-2" d="M121.32,6.21q1.81,0.43,3.62.91l0.48,0.12-0.24-.06c0.7,0.19,1.39.37,2.09,0.57h0l0.26,0.07,0.13,0,0.12,0,0.08,0L128.16,8l0.08,0h0l0.05,0,0.92,0.27,0.69,0.22,2.34,0.75L133,9.56q1.28,0.44,2.55.9l0.21,0.07a8.54,8.54,0,0,0-16.38-4.78L120.42,6Z"/><path class="cls-3" d="M88.83,3c1.08,0,2.16-.06,3.24-0.07C91,2.94,89.91,3,88.83,3Z"/><path class="cls-3" d="M84.5,3.25c1-.07,2-0.13,3-0.18C86.47,3.12,85.49,3.18,84.5,3.25Z"/><path class="cls-3" d="M80.21,3.66Q81.61,3.5,83,3.38,81.61,3.5,80.21,3.66Z"/><path class="cls-3" d="M93.2,2.91c1.27,0,2.54,0,3.82.06C95.74,2.93,94.47,2.91,93.2,2.91Z"/><path class="cls-3" d="M97.6,3a120.8,120.8,0,0,1,13.72,1.28A120.85,120.85,0,0,0,97.6,3Z"/><path class="cls-3" d="M63.44,6.89c0.88-.24,1.75-0.48,2.64-0.7C65.2,6.41,64.32,6.65,63.44,6.89Z"/><path class="cls-3" d="M54.18,9.87q1.92-.72,3.89-1.37Q56.11,9.15,54.18,9.87Z"/><path class="cls-3" d="M76,4.23q1.34-.2,2.69-0.38Q77.31,4,76,4.23Z"/><path class="cls-3" d="M59.23,8.14c0.93-.3,1.86-0.59,2.8-0.86C61.09,7.55,60.16,7.84,59.23,8.14Z"/><path class="cls-3" d="M67.59,5.84c0.86-.2,1.73-0.4,2.6-0.58C69.33,5.44,68.46,5.64,67.59,5.84Z"/><path class="cls-3" d="M111.77,4.34q2,0.32,4.08.7Q113.81,4.65,111.77,4.34Z"/><path class="cls-3" d="M71.76,5c0.87-.17,1.75-0.33,2.63-0.48C73.51,4.63,72.64,4.79,71.76,5Z"/><path class="cls-3" d="M127.67,7.87l-0.13,0,0.1,0h0Z"/><path class="cls-3" d="M127.27,7.76c-0.7-.2-1.39-0.38-2.09-0.57C92.76-.69,55.66,30,41.24,77.16l40.82,12.5C96.67,41.82,116.75,5.53,127.27,7.76Z"/><path class="cls-3" d="M119.36,5.75c-0.9-.2-1.79-0.36-2.69-0.54,1.25,0.25,2.5.51,3.75,0.79Z"/><path class="cls-3" d="M124.94,7.12q-1.81-.49-3.62-0.91Q123.13,6.64,124.94,7.12Z"/><path class="cls-3" d="M127.9,7.94L128.16,8l-0.3-.09,0,0h0Z"/><path class="cls-4" d="M175.69,34.76l0.17,0.15Z"/><path class="cls-4" d="M185.92,45.57l0.14,0.16Z"/><path class="cls-4" d="M181,40l0.15,0.16Z"/><path class="cls-4" d="M203.41,76.6l0,0.13Z"/><path class="cls-4" d="M190.38,51.37l0.12,0.16Z"/><path class="cls-4" d="M157.29,20.9L157.51,21Z"/><path class="cls-4" d="M150.4,17l0.25,0.13Z"/><path class="cls-4" d="M163.81,25.17l0.2,0.14Z"/><path class="cls-4" d="M169.95,29.8L170.13,30Z"/><path class="cls-4" d="M196.24,60.57l0,0.06Z"/><path class="cls-4" d="M199.49,66.88l0,0.1Z"/><path class="cls-4" d="M197.88,63.62L198,63.78Z"/><path class="cls-4" d="M200.9,70L201,70.18Z"/><path class="cls-4" d="M133,9.56l-0.73-.25Z"/><path class="cls-4" d="M192.5,54.45h0Z"/><path class="cls-4" d="M128.29,8.06l0.14,0,0.79,0.23,0.69,0.22-0.69-.22Z"/><path class="cls-4" d="M194.37,57.4l0.1,0.16Z"/><path class="cls-4" d="M143.16,13.52l0.28,0.12Z"/><path class="cls-4" d="M202.24,73.34l0.06,0.15Z"/><path class="cls-4" d="M208,105v0Z"/><path class="cls-4" d="M207.79,98v0Z"/><path class="cls-4" d="M207.71,97v0Z"/><path class="cls-4" d="M135.9,10.59l-0.15-.06-0.21-.07Z"/><path class="cls-4" d="M207.22,115v0h0Z"/><path class="cls-4" d="M205.5,123.71l-0.18.69Z"/><path class="cls-4" d="M207.58,112h0v0Z"/><path class="cls-4" d="M205.4,83.3l0,0.11Z"/><path class="cls-4" d="M206.16,120.93l-0.1.46Z"/><path class="cls-4" d="M204.48,80l0.05,0.18Z"/><path class="cls-4" d="M206.18,86.67l0,0.22Z"/><path class="cls-4" d="M206.83,90.1v0Z"/><path class="cls-4" d="M207.34,93.48l0,0.25Z"/><path class="cls-4" d="M128.16,8l-0.26-.08h0a6,6,0,0,1,1,.47h0c0.16,0.09.31,0.19,0.46,0.3l0,0,0.43,0.34,0.05,0,0.4,0.37,0.06,0.06,0.37,0.4L130.82,10l0.34,0.43,0.08,0.1L131.56,11l0.08,0.12,0.3,0.49L132,11.79c0.09,0.17.19,0.34,0.28,0.52l0.08,0.16L132.64,13l0.08,0.18c0.08,0.18.16,0.37,0.24,0.57L133.05,14c0.08,0.19.15,0.39,0.22,0.59l0.08,0.23c0.07,0.2.14,0.4,0.2,0.61l0.08,0.25c0.06,0.21.12,0.42,0.18,0.63l0.08,0.27c0.06,0.22.12,0.44,0.17,0.66l0.07,0.29c0.05,0.22.1,0.45,0.15,0.68l0.07,0.32c0,0.23.09,0.46,0.14,0.7l0.06,0.34c0,0.24.08,0.48,0.13,0.72l0.06,0.36c0,0.24.07,0.49,0.11,0.74l0.05,0.38c0,0.25.07,0.5,0.1,0.76l0,0.41c0,0.25.06,0.51,0.08,0.77l0,0.43c0,0.26,0,.53.07,0.79l0,0.45c0,0.26,0,.53.06,0.8s0,0.32,0,.48,0,0.54,0,.81,0,0.33,0,.5,0,0.55,0,.83,0,0.35,0,.52,0,0.57,0,.85,0,0.36,0,.54,0,0.57,0,.86,0,0.37,0,.56,0,0.58,0,.88,0,0.39,0,.59,0,0.59,0,.88,0,0.4,0,.61,0,0.6,0,.9,0,0.42,0,.64,0,0.59,0,.89l0,0.67q0,0.45,0,.91l0,0.68q0,0.46-.06.92t0,0.71q0,0.46-.07.92c0,0.25,0,.49-0.06.74S135,43.65,135,44l-0.07.75q0,0.47-.09.94l-0.08.77-0.1,1-0.09.78q-0.05.48-.11,1l-0.1.81-0.12,1-0.11.84-0.12,1-0.12.86-0.13,1-0.13.88-0.14,1-0.14.9-0.15,1-0.14.91-0.16,1-0.15.92-0.17,1L132.4,63l-0.18,1L132,65l-0.18,1-0.19,1-0.19,1-0.2,1-0.2,1-0.21,1-0.21,1-0.22,1.05-0.21,1L130,75.18l-0.22,1-0.24,1.05-0.24,1-0.25,1.06-0.24,1-0.27,1.11-0.24,1L128,83.57l-0.26,1-0.28,1.11-0.26,1-0.29,1.12-0.27,1-0.31,1.16-0.27,1-0.33,1.22-0.27,1-0.34,1.21-0.28,1-0.36,1.26-0.27,1-0.42,1.42-0.23.8-0.67,2.23,40.82,12.5q0.34-1.13.67-2.25l0.11-.41c0.17-.61.34-1.23,0.51-1.84,0.08-.3.15-0.59,0.23-0.89,0.12-.45.24-0.91,0.35-1.36,0.07-.26.12-0.53,0.19-0.79,0.12-.49.24-1,0.35-1.45,0.07-.33.14-0.65,0.21-1s0.19-.84.28-1.26,0.15-.75.23-1.13,0.15-.74.22-1.11,0.13-.72.2-1.08,0.14-.77.21-1.15,0.13-.79.19-1.18,0.12-.7.17-1,0.12-.87.19-1.3,0.09-.61.13-0.92,0.1-.83.16-1.25,0.08-.64.12-1,0.09-.83.13-1.24,0.07-.64.1-1,0.08-.87.11-1.3,0.05-.59.08-0.89c0-.45.06-0.9,0.09-1.35,0-.28,0-0.55.06-0.83,0-.46,0-0.92.07-1.37,0-.26,0-0.53,0-0.79,0-.47,0-0.93,0-1.39,0-.25,0-0.51,0-0.76,0-.48,0-1,0-1.43,0-.23,0-0.47,0-0.71,0-.49,0-1,0-1.46,0-.22,0-0.45,0-0.67,0-.48,0-1,0-1.45,0-.22,0-0.44,0-0.67,0-.51,0-1-0.07-1.51,0-.19,0-0.39,0-0.58,0-.5-0.06-1-0.09-1.51,0-.19,0-0.38,0-0.58,0-.52-0.08-1-0.13-1.56,0-.17,0-0.33,0-0.5,0-.52-0.1-1-0.16-1.55,0-.16,0-0.33-0.05-0.5-0.06-.55-0.13-1.09-0.2-1.63l0-.39c-0.07-.55-0.15-1.1-0.23-1.64L168,62.74c-0.08-.55-0.17-1.09-0.27-1.64l-0.06-.35c-0.1-.55-0.2-1.09-0.3-1.64l-0.06-.32c-0.11-.55-0.22-1.1-0.34-1.65l-0.06-.29c-0.12-.56-0.25-1.11-0.38-1.67l-0.06-.25q-0.2-.85-0.42-1.69L166,53q-0.22-.86-0.47-1.71l0-.16q-0.24-.86-0.5-1.7l0-.14q-0.27-.87-0.55-1.72l0-.09q-0.28-.86-0.59-1.7l0-.09q-0.3-.85-0.62-1.69l0-.07q-0.33-.87-0.68-1.72h0q-0.35-.86-0.72-1.7h0C154.81,24.77,143.38,13,128.43,8.1L128.24,8Z"/><path class="cls-5" d="M125.18,7.19l0.24,0.06-0.48-.12q-1.81-.49-3.62-0.91L120.42,6c-1.25-.29-2.5-0.55-3.75-0.79L115.85,5q-2-.39-4.08-0.7l-0.45-.07A120.8,120.8,0,0,0,97.6,3H97c-1.28,0-2.55-.06-3.82-0.06l-1.13,0c-1.08,0-2.16,0-3.24.07l-1.37.07c-1,0-2,.11-3,0.18L83,3.38q-1.4.13-2.8,0.28l-1.55.19Q77.31,4,76,4.23l-1.57.25c-0.88.15-1.76,0.31-2.63,0.48l-1.56.31c-0.87.18-1.74,0.38-2.6,0.58l-1.51.35c-0.89.22-1.76,0.46-2.64,0.7L62,7.27c-0.94.27-1.87,0.57-2.8,0.86l-1.16.36q-2,.65-3.89,1.37l-0.07,0-2,.79-0.21.08L50,11.54l-0.32.14-1.76.78-0.4.18-1.66.78-0.47.23-1.57.79-0.52.27-1.49.79-0.57.31-1.42.8L39.23,17l-1.36.81-0.63.38-1.3.82-0.66.42L34,20.21l-0.67.45-1.2.84L31.46,22l-1.15.84-0.69.52-1.11.86-0.7.55-1.06.87-0.7.59-1,.88-0.7.62-1,.89-0.69.64-1,.9L21,30.83l-0.91.92-0.68.7-0.88.93-0.67.73L17,35l-0.66.76-0.81,1-0.64.78-0.78,1-0.62.81-0.75,1-0.61.84-0.71,1-0.6.87-0.68,1-0.58.89-0.65,1-0.56.92-0.62,1-0.53.94-0.58,1-0.52,1c-0.18.35-.37,0.69-0.55,1s-0.33.67-.5,1-0.34.69-.51,1-0.32.7-.48,1.06-0.31.68-.47,1-0.31.74-.47,1.11-0.29.67-.42,1-0.3.78-.46,1.17-0.26.65-.38,1-0.32.89-.48,1.34c-0.1.28-.2,0.56-0.3,0.85q-0.35,1-.68,2.11l0,0.11,40.82,12.5C55.66,30,92.76-.69,125.18,7.19Z"/><path class="cls-5" d="M128.91,8.42a6,6,0,0,0-1-.47h0l0,0-0.08,0-0.12,0h0l-0.1,0-0.26-.07h0c-10.52-2.23-30.6,34.06-45.2,81.9l19.63,6L128.41,8.16C128.58,8.23,128.75,8.32,128.91,8.42Z"/><path class="cls-5" d="M128.24,8h0l0.19,0.06h0l-0.14,0Z"/><path class="cls-6" d="M123.8,99.13l0.42-1.42,0.27-1,0.36-1.26,0.28-1,0.34-1.21,0.27-1,0.33-1.22,0.27-1,0.31-1.16,0.27-1,0.29-1.12,0.26-1,0.28-1.11,0.26-1,0.27-1.09,0.24-1,0.27-1.11,0.24-1,0.25-1.06,0.24-1,0.24-1.05,0.22-1,0.24-1.08,0.21-1,0.22-1.05,0.21-1,0.21-1,0.2-1,0.2-1,0.19-1,0.19-1L132,65l0.18-1,0.18-1,0.16-.94,0.17-1,0.15-.92,0.16-1,0.14-.91,0.15-1,0.14-.9,0.14-1,0.13-.88,0.13-1L134,52.7l0.12-1,0.11-.84,0.12-1,0.1-.81q0.06-.48.11-1l0.09-.78,0.1-1,0.08-.77q0-.47.09-0.94L135,44c0-.31.05-0.62,0.08-0.93s0-.49.06-0.74,0-.61.07-0.92,0-.47,0-0.71,0-.62.06-0.92l0-.68q0-.46,0-0.91l0-.67q0-.45,0-0.89t0-.64q0-.45,0-0.9c0-.2,0-0.41,0-0.61s0-.59,0-0.88,0-.39,0-0.59,0-.59,0-0.88,0-.38,0-0.56,0-.58,0-0.86,0-.36,0-0.54,0-.57,0-0.85,0-.35,0-0.52,0-.55,0-0.83,0-.34,0-0.5,0-.55,0-0.81,0-.32,0-0.48,0-.54-0.06-0.8l0-.45c0-.27,0-0.53-0.07-0.79l0-.43c0-.26-0.05-0.52-0.08-0.77l0-.41c0-.25-0.06-0.51-0.1-0.76l-0.05-.38c0-.25-0.07-0.49-0.11-0.74l-0.06-.36c0-.24-0.08-0.48-0.12-0.72l-0.06-.34c0-.24-0.09-0.47-0.14-0.7l-0.07-.32c-0.05-.23-0.1-0.46-0.15-0.68l-0.07-.29C134,17,134,16.77,133.9,16.56l-0.08-.27c-0.06-.21-0.12-0.43-0.18-0.63l-0.08-.25c-0.07-.21-0.13-0.41-0.2-0.61l-0.08-.23c-0.07-.2-0.14-0.4-0.22-0.59L133,13.76c-0.08-.19-0.16-0.38-0.24-0.57L132.64,13l-0.26-.54-0.08-.16c-0.09-.18-0.18-0.35-0.28-0.52l-0.08-.14-0.3-.49L131.56,11l-0.32-.46-0.08-.1L130.82,10,130.75,10l-0.37-.4-0.06-.06-0.4-.37-0.05,0-0.43-.34,0,0c-0.15-.11-0.31-0.21-0.46-0.3h0c-0.16-.1-0.33-0.18-0.5-0.26L101.69,95.67l21.2,6.49,0.67-2.23Z"/><path class="cls-6" d="M204.54,127.15c0.28-.92.54-1.84,0.78-2.76l0.18-.69q0.3-1.16.56-2.32l0.1-.46q0.65-3,1.06-5.92v0q0.2-1.46.35-2.92v0q0.36-3.5.41-7v0q0-3.5-.2-7v0c0-.31,0-0.62-0.07-0.92V97q-0.14-1.62-.34-3.24l0-.25q-0.21-1.66-.49-3.3V90.1q-0.27-1.61-.61-3.21l0-.22q-0.35-1.64-.76-3.27l0-.11q-0.4-1.59-.87-3.16L204.48,80q-0.48-1.62-1-3.22l0-.13q-0.53-1.56-1.12-3.11l-0.06-.15q-0.61-1.59-1.27-3.16L200.9,70q-0.66-1.54-1.37-3.06l0-.1q-0.73-1.56-1.52-3.09l-0.08-.16q-0.78-1.51-1.62-3l0-.06q-0.86-1.52-1.77-3l-0.1-.16q-0.91-1.48-1.87-2.94h0q-1-1.48-2-2.92l-0.12-.16q-2.05-2.87-4.32-5.64l-0.14-.16q-2.27-2.75-4.75-5.38L181,40q-2.48-2.62-5.16-5.11l-0.17-.15Q173,32.28,170.13,30l-0.18-.15q-2.88-2.32-5.94-4.49l-0.2-.14Q160.74,23,157.51,21l-0.22-.13q-3.24-2-6.64-3.76L150.4,17q-3.4-1.78-7-3.36l-0.28-.12Q139.6,12,135.9,10.59l-0.37-.13Q134.27,10,133,9.56l-0.73-.25-2.34-.75-0.69-.22-0.79-.23h0c14.95,4.86,26.38,16.66,33.28,32.43h0q0.37,0.84.72,1.7h0q0.35,0.85.68,1.72l0,0.07q0.32,0.84.62,1.69l0,0.09q0.3,0.84.59,1.7l0,0.09q0.28,0.86.55,1.72l0,0.14q0.26,0.85.5,1.7l0,0.16q0.24,0.85.47,1.71l0.05,0.2q0.22,0.84.42,1.69l0.06,0.25c0.13,0.55.26,1.11,0.38,1.67L167,57.15c0.12,0.55.23,1.1,0.34,1.65l0.06,0.32c0.1,0.54.21,1.09,0.3,1.64l0.06,0.35c0.09,0.54.18,1.09,0.27,1.64l0.05,0.36c0.08,0.55.16,1.09,0.23,1.64l0,0.39c0.07,0.54.14,1.08,0.2,1.63,0,0.16,0,.33.05,0.5,0.06,0.52.11,1,.16,1.55,0,0.17,0,.33,0,0.5,0,0.52.09,1,.13,1.56,0,0.19,0,.38,0,0.58,0,0.5.07,1,.09,1.51,0,0.19,0,.39,0,0.58,0,0.5,0,1,.07,1.51,0,0.22,0,.44,0,0.67,0,0.48,0,1,0,1.45,0,0.22,0,.45,0,0.67,0,0.48,0,1,0,1.46,0,0.23,0,.47,0,0.71,0,0.48,0,1,0,1.43,0,0.25,0,.51,0,0.76,0,0.46,0,.93,0,1.39,0,0.26,0,.53,0,0.79,0,0.46,0,.91-0.07,1.37,0,0.28,0,.55-0.06.83,0,0.45-.06.9-0.09,1.35,0,0.3-.05.59-0.08,0.89s-0.07.86-.11,1.3-0.07.64-.1,1-0.08.82-.13,1.24-0.08.64-.12,1-0.1.83-.16,1.25-0.09.61-.13,0.92-0.12.87-.19,1.3-0.11.7-.17,1-0.12.79-.19,1.18-0.14.77-.21,1.15-0.13.72-.2,1.08-0.15.74-.22,1.11-0.15.75-.23,1.13-0.18.84-.28,1.26-0.14.65-.21,1c-0.11.48-.23,1-0.35,1.45-0.06.26-.12,0.53-0.19,0.79-0.11.45-.23,0.9-0.35,1.36-0.08.3-.15,0.59-0.23,0.89-0.16.61-.33,1.23-0.51,1.84l-0.11.41q-0.32,1.13-.67,2.25h0Z"/><path class="cls-7" d="M57.52,97c11.27,3.45,22.26.18,24.55-7.3L41.24,77.16C39,84.65,46.24,93.51,57.52,97Z"/><path class="cls-7" d="M139.16,122c11.27,3.45,22.26.18,24.55-7.3l-40.82-12.5C120.6,109.64,127.89,118.51,139.16,122Z"/><path class="cls-8" d="M0.42,64.66h0c-2.28,7.48,5,16.35,16.27,19.8S39,84.64,41.24,77.16h0Z"/><path class="cls-8" d="M122.89,102.16l-21.2-6.49-19.63-6h0C80.17,95.88,84.88,103,93,107.27a31.6,31.6,0,0,0,5.34,2.18c0.8,0.24,1.59.45,2.38,0.63,10.4,2.34,20-1,22.17-7.93h0Z"/><path class="cls-8" d="M163.71,114.65h0c-2.28,7.48,5,16.35,16.27,19.8s22.26,0.18,24.55-7.3h0Z"/></svg>