<svg xmlns="http://www.w3.org/2000/svg" viewBox="0 0 147.43 172.19"><defs><style>.cls-1{isolation:isolate;}.cls-2{fill:#484848;}.cls-3{fill:#c68c26;}.cls-4{fill:#fac848;}.cls-5{fill:#fff;opacity:0.47;mix-blend-mode:soft-light;}</style></defs><title>scoreboard</title><g class="cls-1"><g id="Laag_1" data-name="Laag 1"><polygon class="cls-2" points="123.37 149.08 123.37 172.19 23.62 172.19 23.62 149.08 31.94 149.08 31.94 138.16 115.5 138.16 115.5 149.08 123.37 149.08"/><path class="cls-3" d="M101.88,167.87H46.52a7.45,7.45,0,0,1-7.45-7.45h0A7.45,7.45,0,0,1,46.52,153h55.36a7.45,7.45,0,0,1,7.45,7.45h0A7.45,7.45,0,0,1,101.88,167.87Z"/><path class="cls-4" d="M142.69,9.77H115.1l0.46-4.3A2.78,2.78,0,0,0,114.91,0H32.53a2.77,2.77,0,0,0-.64,5.47l0.45,4.3H4.75A4.75,4.75,0,0,0,0,14.52v7.75A47.91,47.91,0,0,0,40.64,69.63a36.61,36.61,0,0,0,17.75,17.7,2.36,2.36,0,0,0,0,.4,3,3,0,0,0,3,3h3.61v7.14a4.76,4.76,0,0,0-2.16,4v3.79a4.76,4.76,0,0,0,2.16,4v2a9.6,9.6,0,0,1-9.59,9.59,5.8,5.8,0,0,0-5.7,4.77A23.17,23.17,0,0,0,39,138.16h69.53A23.2,23.2,0,0,0,97.3,125.64a5.8,5.8,0,0,0-5.63-4.49h0A9.14,9.14,0,0,1,82.51,112v-2.41a4.77,4.77,0,0,0,2.17-4v-3.79a4.77,4.77,0,0,0-2.17-4V90.68h3.61a3,3,0,0,0,3-3,2.36,2.36,0,0,0,0-.4,36.57,36.57,0,0,0,17.75-17.7,47.91,47.91,0,0,0,40.64-47.36V14.52A4.74,4.74,0,0,0,142.69,9.77ZM6.49,21V19.22a2.58,2.58,0,0,1,2.58-2.59h24L37.41,58a36.58,36.58,0,0,0,.7,4.08C19.67,57.07,6.49,43,6.49,21Zm134.45,0c0,22.06-13.17,36.11-31.62,41.15A36.58,36.58,0,0,0,110,58l4.36-41.4h24a2.58,2.58,0,0,1,2.58,2.59V21Z"/><path class="cls-5" d="M32.53,0a2.77,2.77,0,0,0-.64,5.47l0.45,4.3H4.75A4.75,4.75,0,0,0,0,14.52v7.75A47.91,47.91,0,0,0,40.64,69.63a36.61,36.61,0,0,0,17.75,17.7,2.36,2.36,0,0,0,0,.4,3,3,0,0,0,3,3h3.61v7.14a4.76,4.76,0,0,0-2.16,4v3.79a4.76,4.76,0,0,0,2.16,4v2a9.6,9.6,0,0,1-9.59,9.59,5.8,5.8,0,0,0-5.7,4.77A23.17,23.17,0,0,0,39,138.16h-7v10.92H23.62v23.11H73.5V0h-41Zm-26,21V19.22a2.58,2.58,0,0,1,2.58-2.59h24L37.41,58a36.58,36.58,0,0,0,.7,4.08C19.67,57.07,6.49,43,6.49,21Z"/></g></g></svg>