<svg id="Laag_1" data-name="Laag 1" xmlns="http://www.w3.org/2000/svg" viewBox="0 0 65.29 148.21"><defs><style>.cls-1{fill:#fff;}.cls-2{fill:#f49b23;}.cls-3{fill:#f47623;}.cls-4{fill:#65acc3;}.cls-5{fill:#8dbcce;}.cls-6{fill:#e6e6e6;}.cls-7{fill:#498da8;}.cls-8{fill:#296c8e;}.cls-9{fill:#ddedf1;}.cls-10{fill:#fc0;}.cls-11{fill:#ffb900;}.cls-12{fill:#f48223;}.cls-13{fill:#f48323;}.cls-14{fill:#f66023;}.cls-15{fill:#f2f2f2;}.cls-16{fill:#dbdbdb;}</style></defs><title>tube</title><polygon class="cls-1" points="0.01 0 10.34 131.21 54.97 131.21 65.29 0 0.01 0"/><path class="cls-2" d="M10.27,131v15.19a1.92,1.92,0,0,0,1.81,2H53.2a1.94,1.94,0,0,0,1.83-2V131H10.27Z"/><path class="cls-3" d="M32.65,142.86c-3.2,0-5.88.79-6.53,1.85H10.27v0.69H55v-0.69H39.18c-0.65-1.06-3.32-1.85-6.52-1.85h0Z"/><path class="cls-4" d="M2,25.15l0.17,2.31h61l0.17-2.31H2ZM2.29,29L7.77,98.55H57.55L63,29H2.29ZM7.9,100.11l0.17,2.33H57.24l0.17-2.33H7.9Z"/><path class="cls-5" d="M2.16,27.46L2.29,29H63l0.13-1.56h-61ZM7.77,98.55l0.14,1.58H57.41l0.14-1.58H7.77Z"/><polygon class="cls-6" points="32.65 0 32.65 131.21 54.97 131.21 65.29 0 32.65 0"/><path class="cls-7" d="M32.65,25.15v2.31H63.14l0.17-2.31H32.65Zm0,3.87V98.55h24.9L63,29H32.65Zm0,71.09v2.33H57.24l0.17-2.33H32.65Z"/><path class="cls-8" d="M32.65,27.46V29H63l0.13-1.56H32.65Zm0,71.09v1.56H57.41l0.14-1.56H32.65Z"/><rect class="cls-9" x="11.26" y="27.45" width="9.57" height="1.57"/><rect class="cls-9" x="11.26" y="98.55" width="9.58" height="1.57"/><path class="cls-10" d="M47.37,57.07a15,15,0,1,1-17.6-11.86,15,15,0,0,1,17.6,11.86h0Z"/><path class="cls-2" d="M27.21,35.38l-0.34,10a15.66,15.66,0,0,1,4.83-1.08Zm11,0-4.54,8.85a15.66,15.66,0,0,1,4,.82c0.31,0.1.61,0.22,0.91,0.34ZM17.07,40.19l4,9.16a15.21,15.21,0,0,1,4-3.14Zm31.32,0.13-8,5.95a15.6,15.6,0,0,1,4,3.19ZM10,49l7.59,6.44a15.7,15.7,0,0,1,2.25-4.58Zm35.48,2a15.7,15.7,0,0,1,2.2,4.59l7.64-6.4ZM17.15,57.39L7.5,59.88l9.63,2.44a15.67,15.67,0,0,1,0-4.93h0Zm31,0.25a15.92,15.92,0,0,1,0,4.95l9.68-2.35ZM17.57,64.3L9.91,70.7l9.83-1.81a15.51,15.51,0,0,1-2.18-4.59h0Zm30.09,0.24A15.9,15.9,0,0,1,45.47,69l9.78,2ZM20.92,70.37L16.85,79.5l8-5.92a15.58,15.58,0,0,1-4-3.21h0Zm23.28,0.2A15.45,15.45,0,0,1,43,71.78a15.65,15.65,0,0,1-2.74,1.91l8,6Zm-17.51,3.9,0.1,9.93,4.69-8.8a15.65,15.65,0,0,1-3.94-.81c-0.29-.1-0.57-0.21-0.85-0.32h0Zm11.81,0a15.62,15.62,0,0,1-5,1.11L38,84.51Z"/><path class="cls-11" d="M32.65,44.93v30a15,15,0,0,0,0-30h0Z"/><path class="cls-12" d="M38.25,35.43l-4.54,8.85a15.4,15.4,0,0,1,4,.81c0.3,0.11.61,0.23,0.91,0.36Zm10.13,4.89-8,6a15.44,15.44,0,0,1,4,3.19Zm7,8.81-9.85,1.8a15.79,15.79,0,0,1,2.21,4.58Zm-7.18,8.53a15.84,15.84,0,0,1-.05,4.94l9.68-2.34Zm-0.5,6.89A15.87,15.87,0,0,1,45.47,69l9.78,2Zm-3.46,6A16.1,16.1,0,0,1,43,71.79a15.77,15.77,0,0,1-2.75,1.91l8,6Zm-5.7,3.93a15.75,15.75,0,0,1-5,1.11L38,84.51Z"/><path class="cls-13" d="M32.65,131v17.21H53.2a1.94,1.94,0,0,0,1.83-2V131H32.65Z"/><path class="cls-14" d="M32.65,142.87v2.54H55v-0.69H39.17c-0.65-1.06-3.32-1.85-6.52-1.85h0Z"/><polygon class="cls-15" points="0 0 0.31 3.95 64.99 3.95 65.29 0 0 0"/><polygon class="cls-16" points="32.65 0 32.65 3.95 64.99 3.95 65.29 0 32.65 0"/></svg>