<svg xmlns="http://www.w3.org/2000/svg" viewBox="0 0 162.14 162.14"><defs><style>.cls-1{isolation:isolate;}.cls-2{fill:#fac848;}.cls-3{fill:#eeaf21;}.cls-4{fill:#fff;opacity:0.3;mix-blend-mode:soft-light;}</style></defs><title>uv</title><g class="cls-1"><g id="Laag_1" data-name="Laag 1"><path class="cls-2" d="M132.45,81.06A51.39,51.39,0,1,1,81.07,29.68,51.38,51.38,0,0,1,132.45,81.06Z"/><polygon class="cls-2" points="89.83 27.32 72.32 27.32 81.07 0 89.83 27.32"/><polygon class="cls-3" points="61.78 30.14 46.62 38.89 40.54 10.86 61.78 30.14"/><polygon class="cls-2" points="38.89 46.62 30.14 61.78 10.86 40.54 38.89 46.62"/><polygon class="cls-2" points="27.32 72.31 27.32 89.82 0 81.06 27.32 72.31"/><polygon class="cls-3" points="38.89 115.52 10.86 121.6 30.14 100.36 38.89 115.52"/><polygon class="cls-2" points="61.78 132 40.54 151.28 46.62 123.25 61.78 132"/><polygon class="cls-2" points="89.83 134.82 81.07 162.14 72.32 134.82 89.83 134.82"/><polygon class="cls-3" points="100.37 131.99 115.53 123.24 121.61 151.28 100.37 131.99"/><polygon class="cls-2" points="123.24 115.52 132 100.36 151.28 121.6 123.24 115.52"/><polygon class="cls-2" points="134.82 89.82 134.82 72.32 162.14 81.07 134.82 89.82"/><polygon class="cls-3" points="132 61.77 123.24 46.61 151.28 40.53 132 61.77"/><polygon class="cls-2" points="115.53 38.9 100.37 30.14 121.61 10.86 115.53 38.9"/><polygon class="cls-4" points="27.32 89.82 0 81.06 27.32 72.31 27.32 89.82"/><polygon class="cls-4" points="30.14 100.36 38.89 115.52 10.86 121.6 30.14 100.36"/><polygon class="cls-4" points="30.14 61.78 10.86 40.54 38.89 46.62 30.14 61.78"/><polygon class="cls-4" points="46.62 123.25 61.78 132 40.54 151.28 46.62 123.25"/><polygon class="cls-4" points="46.62 38.89 40.54 10.86 61.78 30.14 46.62 38.89"/><polygon class="cls-4" points="81.07 0 81.07 27.32 72.32 27.32 81.07 0"/><path class="cls-4" d="M81.07,29.68V132.45A51.39,51.39,0,1,1,81.07,29.68Z"/><polygon class="cls-4" points="72.32 134.82 81.07 134.82 81.07 162.14 72.32 134.82"/></g></g></svg>