<?xml version="1.0" encoding="utf-8"?>
<!-- Generator: Adobe Illustrator 19.2.0, SVG Export Plug-In . SVG Version: 6.00 Build 0)  -->
<svg version="1.1" id="svg26943" xmlns="http://www.w3.org/2000/svg" xmlns:xlink="http://www.w3.org/1999/xlink" x="0px" y="0px"
	 viewBox="0 0 155.4 123.6" style="enable-background:new 0 0 155.4 123.6;" xml:space="preserve">
<style type="text/css">
	.st0{fill:#2A3D51;}
	.st1{fill:#E28686;}
	.st2{fill:#EAA7A7;}
	.st3{fill:#1F2B39;}
	.st4{fill:#FFFFFF;}
</style>
<title>STANDARD</title>
<g id="g28973">
	<g id="g4389">
		<g id="g4445">
			<g id="g4447">
				<g id="g4449">
					<ellipse id="ellipse4451" class="st0" cx="19.9" cy="21" rx="19.9" ry="16.4"/>
					<ellipse id="ellipse4453" cx="19.9" cy="21" rx="14.1" ry="11.6"/>
				</g>
				<g id="g4455">
					<ellipse id="ellipse4457" class="st0" cx="135.5" cy="21" rx="19.9" ry="16.4"/>
					<ellipse id="ellipse4459" cx="135.5" cy="21" rx="14.1" ry="11.6"/>
				</g>
			</g>
			<ellipse id="ellipse4461" class="st1" cx="77.7" cy="61.8" rx="77.5" ry="61.8"/>
			<ellipse id="ellipse4463" class="st2" cx="77.7" cy="59.4" rx="72.2" ry="56.9"/>
			<g id="g4465">
				<path id="path4467" class="st3" d="M89.2,68.4c3.8,10.4,13.2,16.2,20.9,12.9S120.8,70,117,59.6s-8.5-17.9-20.7-18.3
					C82.5,40.8,85.4,57.9,89.2,68.4L89.2,68.4L89.2,68.4z"/>
				<path id="path4469" class="st3" d="M66.2,68.4C62.4,78.8,53,84.6,45.3,81.3S34.6,70,38.4,59.6s8.5-17.9,20.7-18.3
					C72.9,40.8,70,57.9,66.2,68.4L66.2,68.4z"/>
			</g>
			<path id="path4471" class="st1" d="M77.7,73c-1,0-1.9,0.8-1.9,1.9l0,0v13.9c0,1.1,0.9,1.9,1.9,1.9c1.1,0,1.9-0.9,1.9-1.9l0,0
				V74.9C79.6,73.9,78.8,73,77.7,73L77.7,73L77.7,73z"/>
			<path id="path4473" class="st1" d="M61.7,85.4c-0.9,0-1.7,0.8-1.7,1.7c0,0.4,0.2,0.8,0.4,1.1c0.9,1.1,1.9,2.1,3,3
				c1.7,1.5,3.6,3.3,6.2,3.3c2.3,0,4.3-1.2,6-2.3c0.7-0.4,1.3-0.9,1.9-1.4c0.6,0.5,1.3,1,1.9,1.4c1.7,1.1,3.7,2.3,6,2.3
				c2.6,0,4.5-1.8,6.2-3.3c1.1-0.9,2.1-1.9,3-3c0.6-0.7,0.4-1.8-0.3-2.4c-0.7-0.5-1.6-0.5-2.2,0.1l0,0c-0.8,1-1.7,1.9-2.7,2.7
				c-1.2,1.1-2.5,1.9-4,2.4c-1.5-0.3-2.9-0.9-4.2-1.8c-0.9-0.6-1.8-1.2-2.7-1.9l-1.1-0.9l-1.1,0.9c-0.9,0.7-1.8,1.3-2.7,1.9
				c-1.3,0.9-2.7,1.5-4.2,1.8c-1.5-0.5-2.8-1.4-4-2.4c-0.9-0.8-1.8-1.7-2.7-2.7C62.7,85.6,62.2,85.4,61.7,85.4L61.7,85.4L61.7,85.4z
				"/>
			<path id="path4475" class="st1" d="M72.2,100.1c-1.1-0.1-2.1,0.7-2.3,1.9c0.1,1.1,1.1,2,2.2,1.9h11.1c1.1,0.1,2.1-0.7,2.3-1.9
				c-0.1-1.1-1.1-2-2.2-1.9H72.2L72.2,100.1z"/>
			<g id="g4477">
				<g id="g4479">
					<circle id="circle4481" class="st4" cx="58" cy="59.8" r="7.1"/>
					<circle id="circle4483" cx="58.1" cy="59.8" r="5.1"/>
					<circle id="circle4485" class="st4" cx="59.7" cy="57.3" r="1.5"/>
				</g>
				<g id="g4487">
					<circle id="circle4489" class="st4" cx="97.4" cy="59.8" r="7.1"/>
					<circle id="circle4491" cx="97.5" cy="59.8" r="5.1"/>
					<circle id="circle4493" class="st4" cx="99.1" cy="57.3" r="1.6"/>
				</g>
			</g>
			<g id="g4495">
				<path id="path4497" d="M89.1,75.3c0,4.4-5.1,7.4-11.4,7.4s-11.4-3.1-11.4-7.4S69.7,70,77.7,70S89.1,70.9,89.1,75.3z"/>
				<path id="rect4499" class="st4" d="M82.5,71.3H84c0.7,0,1.2,0.5,1.2,1.2v0.3c0,0.7-0.5,1.2-1.2,1.2h-1.5c-0.7,0-1.2-0.5-1.2-1.2
					v-0.3C81.3,71.9,81.8,71.3,82.5,71.3z"/>
			</g>
			<g id="g4501">
				<path id="path4503" d="M50,24.5c2.1-0.6,4.3-0.9,6.5-0.8c2.3,0.1,4.1,2,4.1,4.3c-0.1,2.3-2,4.1-4.3,4.1l0,0h-0.1
					c-2.5-0.3-4.9,0.5-6.8,2c-1.8,1.5-4.4,1.3-5.9-0.5s-1.3-4.4,0.5-5.9l0.1-0.1C45.8,26.2,47.8,25.1,50,24.5L50,24.5L50,24.5z"/>
				<path id="path4505" d="M105.4,24.5c-2.1-0.6-4.3-0.9-6.5-0.8c-2.3,0.1-4.1,2-4.1,4.3c0.1,2.3,2,4.1,4.3,4.1h0.1
					c2.5-0.3,4.9,0.5,6.8,2c1.8,1.5,4.4,1.3,5.9-0.5s1.3-4.4-0.5-5.9l-0.1-0.1C109.6,26.2,107.6,25.1,105.4,24.5L105.4,24.5
					L105.4,24.5z"/>
			</g>
		</g>
	</g>
</g>
</svg>
