<svg xmlns="http://www.w3.org/2000/svg" viewBox="0 0 207.82 105.74"><defs><style>.cls-1{isolation:isolate;}.cls-2{opacity:0.11;mix-blend-mode:multiply;}.cls-3{fill:#fff;}.cls-4{font-size:21.78px;fill:#1d1d1b;stroke:#1d1d1b;stroke-miterlimit:10;font-family:Myriad Pro;}</style></defs><title>message_1</title><g class="cls-1"><g id="Laag_1" data-name="Laag 1"><g class="cls-2"><path class="cls-3" d="M193,10.76L16.76,2C8.57,1.54,1.94,8.42,1.94,17.31V85.44c0,8.89,6.64,15.6,14.82,15l126-9.51,24,14.83V89.1l26.19-2c8.19-.62,14.82-6.47,14.82-13.07V23.46c0-6.61-6.64-12.29-14.82-12.7"/></g><path class="cls-3" d="M191.06,8.82L14.82,0C6.64-.39,0,6.49,0,15.38V83.5c0,8.89,6.64,15.6,14.82,15l126-9.51,24,14.83V87.16l26.19-2c8.19-.62,14.83-6.47,14.83-13.07V21.52c0-6.61-6.64-12.29-14.83-12.7"/><text class="cls-4" transform="translate(3.96 40.62)">Blijf de komende vier<tspan x="0" y="26.14">uur uit de </tspan><tspan x="92.48" y="26.14">z</tspan><tspan x="101.65" y="26.14">on!</tspan></text></g></g></svg>