<svg id="Layer_1" data-name="Layer 1" xmlns="http://www.w3.org/2000/svg" viewBox="0 0 453.3 539.39"><defs><style>.cls-1,.cls-12{fill:#ccc;}.cls-2{fill:#e6e6e6;}.cls-3{fill:#fff;}.cls-4{fill:#eed7a1;}.cls-11,.cls-12,.cls-4{fill-rule:evenodd;}.cls-5{fill:#fb6b6b;}.cls-6{fill:#b3b3b3;}.cls-7{fill:#8b8b8b;}.cls-8{fill:#ffd42a;}.cls-9{fill:#ffdd56;}.cls-10{fill:#e5b600;}.cls-11,.cls-13{fill:#1a1a1a;}.cls-14{fill:#cacaca;}.cls-15{fill:#d4aa00;}.cls-16{fill:#ffce07;}.cls-17{fill:#4e4d4f;}.cls-18{fill:#d1d1d1;}.cls-19,.cls-20{fill:#333;}.cls-20,.cls-21{font-size:43px;font-family:Myriad Pro;}</style></defs><title>quiz</title><polygon class="cls-1" points="76.74 16.91 411.49 29.82 413.85 32 394.22 474.28 57.11 459.19 54.9 456.9 76.74 16.91"/><rect class="cls-1" x="110.23" y="143.14" width="442.71" height="337.44" transform="translate(-93.18 560.61) rotate(-87.44)"/><polygon class="cls-1" points="100.67 23.58 434.63 49.94 436.9 52.21 399.5 493.35 63.28 464.72 61.16 462.34 100.67 23.58"/><rect class="cls-2" x="124.93" y="155.91" width="442.71" height="337.44" transform="translate(-104.95 573.58) rotate(-85.13)"/><polygon class="cls-2" points="49.3 40.35 383.75 21.2 386.31 23.14 409.04 465.27 72.04 482.48 69.62 480.41 49.3 40.35"/><rect class="cls-3" x="156.34" y="97.94" width="337.44" height="442.71" transform="translate(-114.25 -51.56) rotate(-2.92)"/><polygon class="cls-4" points="35.2 283.02 0 240.1 17.18 294.28 35.2 283.02"/><rect class="cls-5" x="246.19" y="588.1" width="23.25" height="17.49" rx="6.09" ry="6.09" transform="translate(-355.52 131.4) rotate(-29.01)"/><rect class="cls-6" x="236.48" y="563.09" width="23.25" height="32.48" rx="0.49" ry="0.49" transform="translate(-348.25 124.49) rotate(-29.01)"/><rect class="cls-7" x="246.75" y="560.44" width="12.29" height="32.48" rx="0.49" ry="0.49" transform="translate(-346.36 126.48) rotate(-29.01)"/><rect class="cls-8" x="172.44" y="340.27" width="23.25" height="247.22" rx="3.71" ry="3.71" transform="translate(-300.29 78.94) rotate(-29.01)"/><path class="cls-9" d="M117.07,359.69a3.56,3.56,0,0,0-1.39,4.85l116.45,210a3.57,3.57,0,1,0,6.24-3.46l-116.45-210A3.56,3.56,0,0,0,117.07,359.69Z" transform="translate(-98.39 -68.55)"/><rect class="cls-10" x="188.2" y="336.29" width="6.46" height="247.13" rx="2.49" ry="2.49" transform="translate(-297.41 82.01) rotate(-29.01)"/><polygon class="cls-11" points="13.43 256.47 0 240.1 6.13 259.41 13.43 256.47"/><path class="cls-12" d="M472.24,82.78a24.85,24.85,0,0,0-3.77-9.16,12.09,12.09,0,0,0-7.93-5h-0.17c-6.32-.22-10.74,2.7-13.28,7.29s-3.47,10.74-3.71,17.48c-0.49,13.49,1.82,29.54,1.22,39.65a1.35,1.35,0,1,0,2.69.16c0.64-10.67-1.68-26.61-1.21-39.71,0.24-6.55,1.2-12.35,3.38-16.27s5.3-6,10.74-5.88a9.17,9.17,0,0,1,6.09,3.92,22.5,22.5,0,0,1,3.32,8.17c1.43,6.36,1.44,13.88,1.65,19,0.26,6.42.59,17.68-1,26.32-0.78,4.32-2.07,8-3.8,9.91a5,5,0,0,1-2.87,1.76,6.88,6.88,0,0,1-4.12-.68h0A6.44,6.44,0,0,1,456,136a20.12,20.12,0,0,1-1.34-5.74h0c-0.39-5.13-1.48-17.14-1.48-27.84a74.49,74.49,0,0,1,1-13.93,12.83,12.83,0,0,1,1.38-4,1.48,1.48,0,0,1,1.32-1h0a3.07,3.07,0,0,1,2.21.87,7.9,7.9,0,0,1,1.82,2.8A35.88,35.88,0,0,1,463,97.27c0.69,7.87.24,16.78,0.49,21a1.35,1.35,0,1,0,2.7-.16c-0.23-3.83.21-13-.5-21.13a37.53,37.53,0,0,0-2.25-10.92,10.35,10.35,0,0,0-2.51-3.76,6,6,0,0,0-4-1.56A4.37,4.37,0,0,0,453.26,83a14.75,14.75,0,0,0-1.75,4.88,75.7,75.7,0,0,0-1.07,14.48c0,10.9,1.11,23,1.49,28.09v0a22.33,22.33,0,0,0,1.55,6.55,9.28,9.28,0,0,0,4.94,5.1,9.61,9.61,0,0,0,5.71.86,7.85,7.85,0,0,0,4.38-2.63c2.33-2.65,3.61-6.67,4.43-11.22,1.64-9.1,1.27-20.46,1-26.91C473.74,97.25,473.76,89.58,472.24,82.78Z" transform="translate(-98.39 -68.55)"/><path class="cls-13" d="M463.77,404.8A6.16,6.16,0,0,1,465.2,402a2.19,2.19,0,0,1,2-.81c1.36,0.32,2,2.46,1.47,4.78s-2.1,3.93-3.46,3.61a2.19,2.19,0,0,1-1.45-1.64A6.16,6.16,0,0,1,463.77,404.8Z" transform="translate(-98.39 -68.55)"/><rect class="cls-6" x="533.19" y="81.94" width="15.11" height="18.91" transform="translate(228.54 527.85) rotate(-76.65)"/><rect class="cls-14" x="529.64" y="86.67" width="15.11" height="7.76" transform="translate(226.63 523.75) rotate(-76.65)"/><path class="cls-15" d="M546.7,127.6l-27.27-6.47c2.36-10.59,6.51-19.36,10-28.84l21.38,5.07C549.54,107.35,549.33,116.61,546.7,127.6Z" transform="translate(-98.39 -68.55)"/><polygon class="cls-13" points="404.58 234.83 381.14 229.27 379.94 225.69 421.82 49.29 449.09 55.76 407.02 232.96 404.58 234.83"/><polygon class="cls-16" points="434.8 55.85 425.96 53.75 434.18 24.49 441.68 26.27 434.8 55.85"/><rect class="cls-17" x="416" y="205.15" width="184.51" height="9.34" transform="translate(88.32 587.32) rotate(-76.65)"/><path class="cls-15" d="M463.27,405c-0.09-7.29-.72-14.31-0.15-22l16.18,3.84c-2.92,7-6.75,13-10.19,19.35Z" transform="translate(-98.39 -68.55)"/><polygon class="cls-16" points="367.85 315.24 372.53 316.35 367.79 337.07 365.92 336.68 367.85 315.24"/><path class="cls-6" d="M479.21,387.47l-16.29-3.87c7-46.59,10.5-61.47,15.45-89.53l27.27,6.47Z" transform="translate(-98.39 -68.55)"/><rect class="cls-15" x="488.71" y="282.42" width="7.01" height="28.03" transform="translate(-8.28 638.32) rotate(-76.65)"/><polygon class="cls-18" points="372.29 316.9 367.75 315.82 384.9 226.69 394 228.85 372.29 316.9"/><rect class="cls-16" x="484.5" y="290.65" width="7.01" height="9.57" transform="translate(-10.55 633.45) rotate(-76.65)"/><path class="cls-19" d="M219,251.87l0.17,3.54,2.15,45.51,49.05-2.32L268,249.55Zm7.42,6.75L261.26,257l1.65,34.88L228,293.5Z" transform="translate(-98.39 -68.55)"/><path class="cls-19" d="M223.21,341.65l0.17,3.54,2.15,45.51,49.05-2.32-2.32-49.05Zm7.42,6.75,34.88-1.65,1.65,34.88-34.88,1.65Z" transform="translate(-98.39 -68.55)"/><path class="cls-19" d="M227.38,429.86l0.17,3.54,2.15,45.51,49.05-2.32-2.32-49.05Zm7.42,6.75L269.68,435l1.65,34.88-34.88,1.65Z" transform="translate(-98.39 -68.55)"/><text class="cls-20" transform="translate(188.46 218.1) rotate(-3.5)">2</text><text class="cls-21" transform="translate(190.83 308.68) rotate(-1.33)">18</text><text class="cls-21" transform="translate(204.3 396.23) rotate(-5.19)">21</text><text class="cls-21" transform="matrix(1, -0.05, 0.05, 1, 93.04, 129.6)">21 + ... + 2 = 44</text></svg>