<svg id="Layer_1" data-name="Layer 1" xmlns="http://www.w3.org/2000/svg" viewBox="0 0 665.75 237.23"><defs><style>.cls-1{fill:#f4c758;}.cls-2{fill:#f7dd70;}.cls-3{fill:#546e7a;}.cls-4{fill:#90a4ae;}.cls-5{fill:#f9e89d;}.cls-6{fill:#fbeda5;}.cls-7{fill:#f3b01c;}.cls-8{font-size:60px;font-family:Myriad Pro;}.cls-9{font-weight:700;}.cls-10{letter-spacing:-1px;}.cls-11{font-size:36px;}</style></defs><title>tip</title><path class="cls-1" d="M122,165.17c0-5.09,3.08-18.64,10.6-26.93,0.26-.28,26.48-28.15,26.48-55.89C159.11,36.91,125,0,79.6,0S0,36.91,0,82.34C0,110.08,26.54,138,26.79,138.24c7.52,8.29,10.37,21.84,10.37,26.93H122Z"/><path class="cls-2" d="M0,82.34C0,110.08,26.54,138,26.79,138.24c7.52,8.29,10.37,21.84,10.37,26.93H79.6V0C34.17,0,0,36.91,0,82.34Z"/><path class="cls-3" d="M126.4,186.58a4.41,4.41,0,0,0-4.36-4.41V174a4.4,4.4,0,0,0,0-8.8H37.12a4.4,4.4,0,1,0,0,8.81h0v8.19h0a4.41,4.41,0,0,0,0,8.82h0v8.2h0a4.41,4.41,0,0,0,0,8.82h0.05l15.41,8.23c2.93,12.81,13.8,21,26.92,21s24.14-8.18,27.07-21L122,208a4.41,4.41,0,0,0,0-8.82V191A4.41,4.41,0,0,0,126.4,186.58Z"/><path class="cls-4" d="M37.17,182.17H79.59V174H37.17v8.19Z"/><path class="cls-4" d="M79.59,191H37.17v8.2H79.59V191Z"/><polygon class="cls-4" points="37.17 208.01 52.59 216.24 79.59 216.24 79.59 208.01 37.17 208.01"/><path class="cls-5" d="M41.59,41.59L28,32.64A63.2,63.2,0,0,0,11.36,72.85l10.94-2.21A50.36,50.36,0,0,1,41.59,41.59Z"/><path class="cls-5" d="M21,82.22q0-.61,0-1.21l-9,1.82c1.6,8,5.74,16,9.83,22.31l3.55-2.33A50.13,50.13,0,0,1,21,82.22Z"/><path class="cls-6" d="M78.11,91.81q-23.51,0-46.9-20.21a2.55,2.55,0,1,1,3.33-3.85c29.32,25.39,57.82,25.39,87.14,0A2.55,2.55,0,1,1,125,71.59Q101.68,91.81,78.11,91.81Z"/><path class="cls-7" d="M65.17,165.15c0-29.87-3.86-67.49-34-93.56a2.55,2.55,0,1,1,3.33-3.85C60,89.81,67.62,119.39,69.62,146.24h17c2-26.84,9.6-56.43,35.08-78.5A2.55,2.55,0,1,1,125,71.59c-30.1,26.07-34,63.7-34,93.56H65.17Z"/><text class="cls-8" transform="translate(207.05 50.53)"><tspan class="cls-9"><tspan class="cls-10">W</tspan><tspan x="51.66" y="0">ist je d</tspan><tspan x="225.3" y="0">a</tspan><tspan x="256.5" y="0">t?</tspan></tspan><tspan class="cls-11"><tspan x="0" y="43.2"></tspan><tspan x="0" y="86.4">Je altijd je</tspan><tspan x="148.64" y="86.4">z</tspan><tspan x="163.8" y="86.4">elf met </tspan><tspan x="276.08" y="86.4">z</tspan><tspan x="291.24" y="86.4">onneb</tspan><tspan x="389.48" y="86.4">r</tspan><tspan x="401.07" y="86.4">and</tspan><tspan x="0" y="129.6">moet insme</tspan><tspan x="178.09" y="129.6">r</tspan><tspan x="189.5" y="129.6">en als de </tspan><tspan x="328.86" y="129.6">z</tspan><tspan x="344.01" y="129.6">on </tspan><tspan x="0" y="172.8">ha</tspan><tspan x="37.33" y="172.8">r</tspan><tspan x="48.74" y="172.8">d schij</tspan><tspan x="144.21" y="172.8">n</tspan><tspan x="164.05" y="172.8">t?</tspan></tspan></text></svg>